<svg id="svg" version="1.1" xmlns="http://www.w3.org/2000/svg" xmlns:xlink="http://www.w3.org/1999/xlink" width="400" height="400" viewBox="0, 0, 400,400"><g id="svgg"><path id="path0" d="M182.600 80.446 C 175.273 81.347,166.530 83.092,161.641 84.628 C 160.629 84.946,159.170 85.397,158.400 85.630 C 157.630 85.862,156.640 86.203,156.200 86.387 C 155.760 86.571,154.320 87.131,153.000 87.630 C 142.739 91.515,127.888 100.002,121.787 105.471 C 121.339 105.872,119.809 107.174,118.387 108.365 C 115.167 111.060,107.989 118.266,105.601 121.200 C 104.617 122.410,103.710 123.490,103.587 123.600 C 102.570 124.507,94.539 136.090,93.880 137.600 C 93.736 137.930,93.076 139.100,92.414 140.200 C 91.751 141.300,90.686 143.280,90.046 144.600 C 88.697 147.385,87.740 149.525,85.578 154.600 C 80.940 165.483,77.600 183.421,77.600 197.450 C 77.600 212.998,80.763 228.941,86.517 242.400 C 88.759 247.644,90.487 251.230,92.347 254.500 C 92.816 255.325,93.565 256.644,94.011 257.431 C 99.470 267.069,109.627 279.054,119.200 287.154 C 123.739 290.994,123.695 290.960,126.390 292.841 C 133.394 297.732,141.081 302.119,147.600 304.945 C 152.398 307.026,153.336 307.400,155.400 308.055 C 156.280 308.335,157.171 308.707,157.380 308.882 C 158.001 309.402,160.997 309.244,162.512 308.611 C 165.470 307.375,165.600 306.755,165.600 293.876 C 165.600 281.491,165.677 281.890,163.378 282.400 C 147.281 285.972,131.875 280.311,126.365 268.800 C 121.365 258.353,118.364 254.267,113.369 251.104 C 104.792 245.671,108.865 240.674,119.000 244.195 C 123.889 245.893,128.400 249.856,132.667 256.202 C 139.545 266.432,148.415 269.985,159.800 267.071 C 165.804 265.535,165.760 265.572,166.771 261.000 C 167.320 258.512,170.017 252.965,171.380 251.517 C 172.805 250.005,172.672 249.686,170.500 249.392 C 136.038 244.737,119.876 226.558,119.827 192.400 C 119.814 183.155,120.547 179.084,123.405 172.521 C 125.021 168.809,128.195 163.725,130.572 161.038 C 131.776 159.677,131.756 159.835,131.042 157.346 C 129.818 153.080,129.600 151.368,129.600 146.000 C 129.600 139.813,130.069 137.055,132.186 130.800 L 133.066 128.200 135.833 128.078 C 137.355 128.011,139.410 128.157,140.400 128.403 C 144.392 129.395,145.430 129.694,146.095 130.039 C 146.477 130.238,146.989 130.400,147.233 130.400 C 148.107 130.400,156.910 134.815,161.252 137.431 L 165.674 140.096 167.937 139.608 C 169.182 139.340,170.920 138.967,171.800 138.779 C 188.184 135.276,206.980 135.621,222.600 139.713 C 224.592 140.235,224.608 140.231,226.800 138.786 C 232.324 135.142,240.027 131.294,245.000 129.694 C 252.849 127.169,257.937 127.330,257.987 130.105 C 257.994 130.493,258.162 131.123,258.361 131.505 C 258.560 131.887,258.908 132.920,259.136 133.800 C 259.363 134.680,259.786 136.300,260.075 137.400 C 260.885 140.483,260.718 152.330,259.821 155.400 C 259.436 156.720,259.029 158.195,258.918 158.679 C 258.769 159.322,259.412 160.486,261.311 163.017 C 268.988 173.246,272.284 188.363,269.975 202.754 C 267.542 217.919,263.788 226.257,255.853 234.120 C 248.120 241.784,230.513 249.151,219.801 249.206 C 217.520 249.218,217.325 249.752,218.921 251.616 C 220.505 253.467,222.384 257.184,223.159 260.000 C 223.431 260.990,223.867 262.430,224.127 263.200 C 224.464 264.196,224.610 270.257,224.634 284.200 C 224.673 307.204,224.658 307.079,227.679 308.641 C 228.843 309.243,232.398 309.403,233.020 308.882 C 233.229 308.707,234.120 308.335,235.000 308.055 C 235.880 307.776,236.960 307.397,237.400 307.214 C 237.840 307.031,238.830 306.619,239.600 306.298 C 245.404 303.878,254.263 299.341,257.472 297.145 C 258.392 296.515,259.337 296.000,259.572 296.000 C 259.807 296.000,260.000 295.832,260.000 295.627 C 260.000 295.422,260.359 295.140,260.798 295.001 C 261.236 294.862,261.821 294.528,262.098 294.261 C 262.374 293.993,263.230 293.338,264.000 292.806 C 272.449 286.967,284.712 274.702,290.402 266.400 C 290.930 265.630,291.461 264.910,291.582 264.800 C 291.945 264.470,295.506 258.884,296.880 256.488 C 301.631 248.205,306.952 235.628,308.426 229.200 C 308.602 228.430,308.952 227.080,309.204 226.200 C 313.352 211.670,313.810 190.803,310.355 173.800 C 309.329 168.749,309.091 167.755,308.757 167.105 C 308.561 166.723,308.400 166.120,308.400 165.765 C 308.400 162.311,299.618 142.061,295.547 136.128 C 294.916 135.208,294.400 134.263,294.400 134.028 C 294.400 133.793,294.264 133.600,294.098 133.600 C 293.931 133.600,293.574 133.105,293.303 132.500 C 293.033 131.895,292.404 130.921,291.906 130.336 C 291.408 129.750,290.190 128.146,289.200 126.770 C 288.210 125.394,287.219 124.072,286.998 123.834 C 286.776 123.595,285.130 121.690,283.339 119.600 C 279.205 114.775,274.406 110.188,268.855 105.755 C 268.336 105.340,267.706 104.814,267.455 104.587 C 267.205 104.360,266.370 103.738,265.600 103.206 C 264.830 102.674,264.110 102.118,264.000 101.970 C 263.664 101.520,257.190 97.388,253.594 95.329 C 247.350 91.753,239.783 88.290,234.400 86.544 C 233.410 86.222,232.240 85.807,231.800 85.620 C 227.682 83.874,216.570 81.516,207.210 80.403 C 203.193 79.925,186.595 79.954,182.600 80.446 M119.200 247.786 C 119.200 248.476,120.643 249.344,121.208 248.995 C 121.813 248.621,121.672 247.713,120.967 247.443 C 119.902 247.034,119.200 247.171,119.200 247.786 M124.267 251.467 C 123.817 251.916,123.968 252.711,124.629 253.371 C 125.547 254.290,126.400 254.150,126.400 253.080 C 126.400 251.679,125.064 250.669,124.267 251.467 M128.667 257.467 C 128.133 258.001,128.421 259.081,129.326 259.930 C 130.483 261.017,131.073 261.032,131.406 259.980 C 131.902 258.419,129.718 256.415,128.667 257.467 M134.157 264.569 C 133.674 265.827,135.773 267.926,137.031 267.443 C 137.852 267.128,137.730 265.730,136.800 264.800 C 135.870 263.870,134.472 263.748,134.157 264.569 M142.416 269.381 C 141.619 270.342,142.298 271.545,143.797 271.826 C 146.114 272.261,146.916 270.692,145.014 269.446 C 143.794 268.646,143.041 268.627,142.416 269.381 M160.789 270.214 C 160.395 270.688,160.361 271.050,160.664 271.534 C 161.593 273.015,164.952 272.261,164.718 270.623 C 164.561 269.524,161.615 269.217,160.789 270.214 M152.233 270.926 C 150.967 271.852,151.590 272.984,153.438 273.120 C 155.605 273.279,156.419 272.419,155.227 271.227 C 154.275 270.275,153.263 270.174,152.233 270.926 " stroke="none" fill="#fbfbfb" fill-rule="evenodd"></path><path id="path1" d="M142.780 0.145 C 142.658 0.271,138.383 0.392,133.280 0.414 C 127.842 0.438,124.000 0.609,124.000 0.827 C 124.000 1.043,121.211 1.200,117.400 1.200 C 113.267 1.200,110.800 1.349,110.800 1.600 C 110.800 1.846,108.811 2.000,105.633 2.000 C 102.716 2.000,100.409 2.166,100.333 2.381 C 100.260 2.591,98.175 2.792,95.700 2.828 C 93.225 2.864,91.200 3.052,91.200 3.246 C 91.200 3.441,89.580 3.600,87.600 3.600 C 85.467 3.600,84.000 3.763,84.000 4.000 C 84.000 4.239,82.467 4.400,80.200 4.400 C 77.933 4.400,76.400 4.561,76.400 4.800 C 76.400 5.040,74.800 5.200,72.400 5.200 C 70.000 5.200,68.400 5.360,68.400 5.600 C 68.400 5.835,67.000 6.000,65.000 6.000 C 63.000 6.000,61.600 6.165,61.600 6.400 C 61.600 6.629,60.400 6.800,58.800 6.800 C 57.200 6.800,56.000 6.971,56.000 7.200 C 56.000 7.420,55.100 7.600,54.000 7.600 C 52.900 7.600,52.000 7.780,52.000 8.000 C 52.000 8.220,51.040 8.400,49.867 8.400 C 48.693 8.400,47.616 8.517,47.474 8.660 C 47.331 8.803,46.626 8.972,45.907 9.037 C 43.551 9.247,41.597 9.682,41.373 10.044 C 41.252 10.240,40.735 10.400,40.225 10.400 C 39.715 10.400,38.646 10.672,37.849 11.005 C 37.052 11.338,36.400 11.496,36.400 11.356 C 36.400 11.216,36.161 11.301,35.869 11.543 C 35.576 11.786,34.951 12.043,34.479 12.115 C 34.007 12.187,33.496 12.371,33.344 12.523 C 33.191 12.675,32.737 12.800,32.333 12.800 C 31.930 12.800,31.600 12.980,31.600 13.200 C 31.600 13.420,31.265 13.600,30.856 13.600 C 30.054 13.600,25.087 16.005,24.867 16.500 C 24.793 16.665,24.428 16.800,24.055 16.800 C 23.682 16.800,23.117 17.160,22.800 17.600 C 22.483 18.040,21.943 18.400,21.600 18.400 C 21.257 18.400,20.717 18.760,20.400 19.200 C 20.083 19.640,19.569 20.000,19.259 20.000 C 18.636 20.000,17.483 21.203,16.479 22.900 C 16.120 23.505,15.686 24.000,15.514 24.000 C 15.341 24.000,15.200 24.360,15.200 24.800 C 15.200 25.240,15.020 25.600,14.800 25.600 C 14.580 25.600,14.400 25.870,14.400 26.200 C 14.400 26.530,14.220 26.800,14.000 26.800 C 13.780 26.800,13.600 27.160,13.600 27.600 C 13.600 28.040,13.420 28.400,13.200 28.400 C 12.980 28.400,12.800 28.749,12.800 29.176 C 12.800 29.603,12.620 30.064,12.400 30.200 C 12.180 30.336,12.000 30.887,12.000 31.424 C 12.000 31.961,11.865 32.401,11.700 32.402 C 11.535 32.403,10.985 33.798,10.478 35.502 C 9.971 37.206,9.381 39.167,9.167 39.860 C 8.953 40.552,8.666 42.307,8.531 43.760 C 8.395 45.212,8.130 46.400,7.942 46.400 C 7.754 46.400,7.600 47.401,7.600 48.624 C 7.600 50.004,7.448 50.753,7.200 50.600 C 6.948 50.444,6.800 51.396,6.800 53.176 C 6.800 54.792,6.629 56.000,6.400 56.000 C 6.172 56.000,6.000 57.192,6.000 58.776 C 6.000 60.303,5.820 61.664,5.600 61.800 C 5.380 61.936,5.200 63.657,5.200 65.624 C 5.200 67.741,5.037 69.200,4.800 69.200 C 4.555 69.200,4.400 71.141,4.400 74.224 C 4.400 77.059,4.245 79.151,4.044 79.027 C 3.844 78.904,3.660 80.959,3.624 83.703 C 3.589 86.396,3.390 88.770,3.180 88.980 C 2.970 89.190,2.800 92.363,2.800 96.080 C 2.800 100.293,2.651 102.800,2.400 102.800 C 2.144 102.800,2.000 106.259,2.000 112.376 C 2.000 118.329,1.849 122.046,1.600 122.200 C 1.346 122.357,1.200 127.263,1.200 135.600 C 1.200 143.492,1.048 148.847,0.819 148.988 C -0.062 149.533,-0.063 261.200,0.818 261.200 C 1.052 261.200,1.200 265.634,1.200 272.600 C 1.200 279.933,1.343 284.000,1.600 284.000 C 1.853 284.000,2.000 286.925,2.000 291.976 C 2.000 296.863,2.155 300.049,2.400 300.200 C 2.639 300.348,2.800 302.937,2.800 306.624 C 2.800 310.475,2.951 312.800,3.200 312.800 C 3.445 312.800,3.600 314.733,3.600 317.800 C 3.600 320.867,3.755 322.800,4.000 322.800 C 4.242 322.800,4.400 324.533,4.400 327.200 C 4.400 329.867,4.558 331.600,4.800 331.600 C 5.037 331.600,5.200 333.067,5.200 335.200 C 5.200 337.333,5.363 338.800,5.600 338.800 C 5.831 338.800,6.000 340.067,6.000 341.800 C 6.000 343.533,6.169 344.800,6.400 344.800 C 6.625 344.800,6.800 345.925,6.800 347.376 C 6.800 348.793,6.980 350.064,7.200 350.200 C 7.420 350.336,7.600 351.157,7.600 352.024 C 7.600 352.891,7.754 353.600,7.943 353.600 C 8.132 353.600,8.403 354.715,8.545 356.077 C 8.799 358.504,9.350 360.712,10.049 362.095 C 10.242 362.477,10.400 363.152,10.400 363.595 C 10.400 364.038,10.580 364.400,10.800 364.400 C 11.020 364.400,11.206 364.715,11.213 365.100 C 11.219 365.485,11.780 366.880,12.458 368.200 C 13.136 369.520,13.895 371.004,14.145 371.497 C 14.395 371.990,14.735 372.395,14.900 372.397 C 15.065 372.399,15.200 372.588,15.200 372.817 C 15.200 373.046,15.560 373.620,16.000 374.092 C 16.440 374.564,16.800 375.187,16.800 375.475 C 16.800 375.764,17.081 376.000,17.424 376.000 C 17.767 376.000,17.953 376.153,17.837 376.340 C 17.722 376.527,18.116 376.930,18.714 377.237 C 19.311 377.544,20.091 378.111,20.447 378.497 C 20.803 378.884,21.308 379.200,21.571 379.200 C 21.833 379.200,21.919 379.408,21.762 379.662 C 21.591 379.938,21.651 380.015,21.912 379.854 C 22.152 379.706,22.765 379.993,23.274 380.492 C 23.783 380.992,24.695 381.655,25.300 381.968 C 25.905 382.280,26.400 382.685,26.400 382.868 C 26.400 383.050,26.670 383.200,27.000 383.200 C 27.330 383.200,27.600 383.380,27.600 383.600 C 27.600 383.820,27.960 384.000,28.400 384.000 C 28.840 384.000,29.200 384.180,29.200 384.400 C 29.200 384.620,29.560 384.800,30.000 384.800 C 30.440 384.800,30.800 384.980,30.800 385.200 C 30.800 385.420,31.160 385.600,31.600 385.600 C 32.040 385.600,32.400 385.780,32.400 386.000 C 32.400 386.220,32.760 386.400,33.200 386.400 C 33.640 386.400,34.000 386.580,34.000 386.800 C 34.000 387.020,34.360 387.200,34.800 387.200 C 35.240 387.200,35.600 387.380,35.600 387.600 C 35.600 387.820,35.949 388.000,36.376 388.000 C 36.803 388.000,37.264 388.180,37.400 388.400 C 37.536 388.620,38.087 388.800,38.624 388.800 C 39.161 388.800,39.600 389.010,39.600 389.267 C 39.600 389.523,39.714 389.620,39.853 389.481 C 39.992 389.342,40.453 389.414,40.879 389.642 C 41.304 389.870,41.955 390.126,42.326 390.212 C 42.697 390.298,43.720 390.638,44.600 390.967 C 45.480 391.296,46.785 391.573,47.500 391.582 C 48.215 391.592,48.800 391.780,48.800 392.000 C 48.800 392.220,49.329 392.400,49.976 392.400 C 50.623 392.400,51.264 392.580,51.400 392.800 C 51.536 393.020,52.447 393.200,53.424 393.200 C 54.401 393.200,55.200 393.380,55.200 393.600 C 55.200 393.820,55.999 394.000,56.976 394.000 C 57.953 394.000,58.864 394.180,59.000 394.400 C 59.136 394.620,60.137 394.800,61.224 394.800 C 62.311 394.800,63.200 394.980,63.200 395.200 C 63.200 395.434,64.541 395.600,66.424 395.600 C 68.197 395.600,69.550 395.758,69.430 395.951 C 69.311 396.144,71.056 396.333,73.307 396.372 C 75.558 396.410,77.571 396.612,77.780 396.821 C 77.989 397.029,80.295 397.200,82.904 397.200 C 85.618 397.200,87.552 397.354,87.424 397.561 C 87.297 397.767,89.634 397.945,92.901 397.977 C 96.126 398.008,98.658 398.199,98.733 398.416 C 98.813 398.644,102.180 398.800,107.033 398.800 C 111.975 398.800,115.200 398.951,115.200 399.183 C 115.200 400.067,271.942 400.078,273.006 399.195 C 273.257 398.987,278.342 398.807,284.536 398.788 C 291.348 398.766,295.528 398.608,295.385 398.376 C 295.243 398.146,298.116 398.000,302.776 398.000 C 307.592 398.000,310.400 397.853,310.400 397.600 C 310.400 397.353,312.459 397.200,315.776 397.200 C 318.929 397.200,321.255 397.035,321.400 396.800 C 321.538 396.577,323.396 396.400,325.600 396.400 C 327.804 396.400,329.662 396.223,329.800 396.000 C 329.936 395.780,331.297 395.600,332.824 395.600 C 334.408 395.600,335.600 395.428,335.600 395.200 C 335.600 394.980,336.590 394.800,337.800 394.800 C 339.010 394.800,340.000 394.620,340.000 394.400 C 340.000 394.180,340.900 394.000,342.000 394.000 C 343.100 394.000,344.000 393.820,344.000 393.600 C 344.000 393.380,344.720 393.200,345.600 393.200 C 346.480 393.200,347.200 393.020,347.200 392.800 C 347.200 392.580,347.920 392.400,348.800 392.400 C 349.680 392.400,350.400 392.220,350.400 392.000 C 350.400 391.780,350.940 391.600,351.600 391.600 C 352.260 391.600,352.800 391.409,352.800 391.176 C 352.800 390.943,352.981 390.865,353.202 391.001 C 353.595 391.244,355.910 390.650,357.295 389.951 C 357.677 389.758,358.262 389.600,358.595 389.600 C 358.928 389.600,359.200 389.420,359.200 389.200 C 359.200 388.980,359.650 388.800,360.200 388.800 C 360.750 388.800,361.200 388.653,361.200 388.472 C 361.200 388.292,362.092 387.902,363.182 387.605 C 364.272 387.308,365.071 386.916,364.958 386.733 C 364.845 386.550,365.213 386.400,365.776 386.400 C 366.339 386.400,366.800 386.220,366.800 386.000 C 366.800 385.780,367.160 385.600,367.600 385.600 C 368.040 385.600,368.400 385.420,368.400 385.200 C 368.400 384.980,368.670 384.800,369.000 384.800 C 369.330 384.800,369.600 384.620,369.600 384.400 C 369.600 384.180,369.870 384.000,370.200 384.000 C 370.530 384.000,370.800 383.820,370.800 383.600 C 370.800 383.380,371.068 383.200,371.395 383.200 C 372.000 383.200,372.951 382.524,374.632 380.900 C 375.144 380.405,375.760 380.000,375.999 380.000 C 376.899 380.000,384.000 372.363,384.000 371.395 C 384.000 371.068,384.180 370.800,384.400 370.800 C 384.620 370.800,384.800 370.603,384.800 370.362 C 384.800 370.121,385.126 369.446,385.525 368.862 C 385.924 368.278,386.493 367.035,386.789 366.100 C 387.086 365.165,387.479 364.400,387.664 364.400 C 387.849 364.400,388.000 364.051,388.000 363.624 C 388.000 363.197,388.180 362.736,388.400 362.600 C 388.620 362.464,388.800 361.913,388.800 361.376 C 388.800 360.839,388.980 360.400,389.200 360.400 C 389.420 360.400,389.600 359.860,389.600 359.200 C 389.600 358.540,389.769 358.000,389.975 358.000 C 390.181 358.000,390.351 357.685,390.351 357.300 C 390.351 356.915,390.633 355.616,390.976 354.413 C 391.319 353.210,391.600 351.635,391.600 350.913 C 391.600 350.191,391.780 349.600,392.000 349.600 C 392.220 349.600,392.400 348.801,392.400 347.824 C 392.400 346.847,392.580 345.936,392.800 345.800 C 393.020 345.664,393.200 344.663,393.200 343.576 C 393.200 342.489,393.380 341.600,393.600 341.600 C 393.820 341.600,394.000 340.621,394.000 339.424 C 394.000 338.227,394.180 337.136,394.400 337.000 C 394.620 336.864,394.800 335.413,394.800 333.776 C 394.800 332.059,394.969 330.800,395.200 330.800 C 395.437 330.800,395.600 329.333,395.600 327.200 C 395.600 325.067,395.763 323.600,396.000 323.600 C 396.245 323.600,396.400 321.675,396.400 318.624 C 396.400 315.737,396.568 313.543,396.800 313.400 C 397.039 313.252,397.200 310.604,397.200 306.800 C 397.200 302.996,397.361 300.348,397.600 300.200 C 397.846 300.048,398.000 296.737,398.000 291.600 C 398.000 286.463,398.154 283.152,398.400 283.000 C 398.652 282.844,398.800 278.337,398.800 270.800 C 398.800 263.652,398.953 258.752,399.181 258.612 C 400.060 258.069,400.068 143.027,399.190 142.727 C 398.976 142.654,398.806 138.005,398.786 131.726 C 398.768 125.563,398.595 120.797,398.388 120.726 C 398.185 120.656,398.005 116.824,397.983 112.100 C 397.960 107.164,397.787 103.600,397.571 103.600 C 397.357 103.600,397.200 100.642,397.200 96.600 C 397.200 92.200,397.051 89.600,396.800 89.600 C 396.552 89.600,396.400 87.392,396.400 83.776 C 396.400 79.996,396.260 78.040,396.000 78.200 C 395.743 78.359,395.600 76.945,395.600 74.247 C 395.600 71.879,395.426 69.939,395.200 69.800 C 394.980 69.664,394.800 68.123,394.800 66.376 C 394.800 64.525,394.633 63.200,394.400 63.200 C 394.175 63.200,394.000 62.075,394.000 60.624 C 394.000 59.207,393.820 57.936,393.600 57.800 C 393.380 57.664,393.200 56.674,393.200 55.600 C 393.200 54.526,393.020 53.536,392.800 53.400 C 392.580 53.264,392.400 52.353,392.400 51.376 C 392.400 50.399,392.220 49.600,392.000 49.600 C 391.780 49.600,391.600 48.700,391.600 47.600 C 391.600 46.500,391.426 45.600,391.213 45.600 C 390.999 45.600,390.929 45.330,391.056 44.999 C 391.182 44.669,391.006 43.699,390.664 42.844 C 390.323 41.990,390.163 41.170,390.310 41.024 C 390.457 40.877,390.369 40.628,390.114 40.471 C 389.860 40.314,389.578 39.738,389.487 39.193 C 389.396 38.647,389.135 37.750,388.908 37.200 C 388.680 36.650,388.573 36.065,388.671 35.900 C 388.768 35.735,388.657 35.600,388.424 35.600 C 388.191 35.600,388.000 35.060,388.000 34.400 C 388.000 33.740,387.820 33.200,387.600 33.200 C 387.380 33.200,387.200 32.840,387.200 32.400 C 387.200 31.960,387.020 31.600,386.800 31.600 C 386.580 31.600,386.400 31.347,386.400 31.038 C 386.400 30.372,384.732 27.059,384.300 26.867 C 384.135 26.793,384.000 26.478,384.000 26.167 C 384.000 25.855,383.820 25.600,383.600 25.600 C 383.380 25.600,383.200 25.280,383.200 24.888 C 383.200 24.497,382.840 23.917,382.400 23.600 C 381.960 23.283,381.600 22.780,381.600 22.483 C 381.600 21.888,380.648 20.800,380.126 20.800 C 379.944 20.800,379.031 20.080,378.097 19.200 C 377.163 18.320,376.195 17.600,375.946 17.600 C 375.697 17.600,375.203 17.271,374.847 16.870 C 374.491 16.468,373.615 15.884,372.900 15.572 C 372.185 15.260,371.600 14.869,371.600 14.702 C 371.600 14.536,371.240 14.400,370.800 14.400 C 370.360 14.400,370.000 14.220,370.000 14.000 C 370.000 13.780,369.651 13.600,369.224 13.600 C 368.797 13.600,368.336 13.420,368.200 13.200 C 368.064 12.980,367.513 12.800,366.976 12.800 C 366.439 12.800,366.000 12.620,366.000 12.400 C 366.000 12.180,365.651 12.000,365.224 12.000 C 364.797 12.000,364.336 11.820,364.200 11.600 C 364.064 11.380,363.549 11.200,363.056 11.200 C 362.563 11.200,361.986 11.026,361.773 10.813 C 361.561 10.601,360.805 10.383,360.093 10.328 C 359.382 10.274,358.800 10.109,358.800 9.960 C 358.800 9.679,356.987 9.228,355.098 9.039 C 354.491 8.978,353.876 8.810,353.731 8.664 C 353.586 8.519,352.777 8.400,351.933 8.400 C 351.090 8.400,350.400 8.220,350.400 8.000 C 350.400 7.778,349.333 7.600,348.000 7.600 C 346.667 7.600,345.600 7.422,345.600 7.200 C 345.600 6.980,344.711 6.800,343.624 6.800 C 342.537 6.800,341.536 6.620,341.400 6.400 C 341.264 6.180,339.903 6.000,338.376 6.000 C 336.792 6.000,335.600 5.828,335.600 5.600 C 335.600 5.363,334.141 5.200,332.024 5.200 C 330.057 5.200,328.336 5.020,328.200 4.800 C 328.062 4.577,326.204 4.400,324.000 4.400 C 321.796 4.400,319.938 4.223,319.800 4.000 C 319.661 3.775,317.737 3.600,315.400 3.600 C 313.063 3.600,311.139 3.425,311.000 3.200 C 310.856 2.967,308.596 2.800,305.576 2.800 C 302.392 2.800,300.400 2.646,300.400 2.400 C 300.400 2.151,298.133 2.000,294.400 2.000 C 290.667 2.000,288.400 1.849,288.400 1.600 C 288.400 1.348,285.627 1.200,280.880 1.200 C 275.479 1.200,273.222 1.062,272.870 0.710 C 272.361 0.201,143.264 -0.361,142.780 0.145 M209.600 79.981 C 210.810 80.183,213.150 80.561,214.800 80.820 C 220.204 81.667,231.986 84.676,235.000 85.978 C 235.440 86.168,237.330 86.915,239.200 87.637 C 241.070 88.359,243.190 89.276,243.912 89.675 C 244.634 90.074,245.489 90.400,245.812 90.400 C 246.135 90.400,246.400 90.580,246.400 90.800 C 246.400 91.020,246.760 91.200,247.200 91.200 C 247.640 91.200,248.000 91.380,248.000 91.600 C 248.000 91.820,248.345 92.000,248.767 92.000 C 249.188 92.000,249.593 92.135,249.667 92.300 C 249.740 92.465,250.700 93.048,251.800 93.595 C 252.900 94.142,253.890 94.682,254.000 94.795 C 254.110 94.908,254.605 95.225,255.100 95.500 C 256.943 96.524,257.771 97.008,258.180 97.302 C 258.411 97.468,259.860 98.438,261.400 99.458 C 263.941 101.140,268.304 104.292,268.800 104.804 C 268.910 104.918,269.984 105.819,271.187 106.805 C 274.611 109.615,281.399 116.283,284.416 119.800 C 287.895 123.855,291.600 128.685,291.600 129.165 C 291.600 129.368,291.747 129.593,291.928 129.667 C 292.287 129.813,295.074 133.853,296.319 136.031 C 296.749 136.784,297.861 138.731,298.790 140.357 C 299.719 141.984,300.982 144.414,301.596 145.757 C 303.516 149.957,304.640 152.549,305.170 154.000 C 305.854 155.875,306.419 157.254,306.847 158.095 C 307.041 158.477,307.200 159.064,307.200 159.400 C 307.200 159.736,307.362 160.323,307.561 160.705 C 307.760 161.087,308.138 162.210,308.403 163.200 C 308.667 164.190,309.045 165.413,309.242 165.919 C 309.439 166.424,309.600 167.269,309.600 167.795 C 309.600 168.322,309.761 168.852,309.958 168.974 C 310.155 169.095,310.415 169.871,310.537 170.697 C 310.659 171.524,310.948 173.190,311.178 174.400 C 314.155 190.045,314.162 205.532,311.198 220.400 C 310.957 221.610,310.659 223.276,310.537 224.103 C 310.415 224.929,310.155 225.705,309.958 225.826 C 309.761 225.948,309.600 226.478,309.600 227.005 C 309.600 227.531,309.439 228.376,309.242 228.881 C 309.045 229.387,308.664 230.610,308.396 231.600 C 308.128 232.590,307.767 233.760,307.595 234.200 C 307.422 234.640,307.064 235.630,306.800 236.400 C 306.218 238.093,305.629 239.560,305.153 240.495 C 304.959 240.877,304.800 241.367,304.800 241.585 C 304.800 242.516,298.604 255.219,297.154 257.262 C 296.739 257.846,296.400 258.438,296.400 258.577 C 296.400 258.861,291.610 266.087,291.214 266.400 C 291.075 266.510,290.529 267.230,290.000 268.000 C 289.471 268.770,288.929 269.490,288.796 269.600 C 288.663 269.710,288.285 270.194,287.956 270.676 C 285.068 274.909,272.509 287.468,268.276 290.356 C 267.794 290.685,267.310 291.054,267.200 291.177 C 264.383 294.320,249.815 302.726,240.000 306.871 C 239.450 307.103,238.687 307.452,238.305 307.647 C 237.923 307.841,237.336 308.000,237.000 308.000 C 236.664 308.000,236.032 308.180,235.595 308.400 C 235.158 308.620,234.442 308.980,234.005 309.200 C 232.344 310.036,227.989 309.687,226.569 308.603 C 223.941 306.599,224.000 307.131,224.000 285.544 C 224.000 266.508,223.932 265.213,222.687 260.600 C 221.785 257.257,219.538 253.159,217.248 250.681 C 215.981 249.310,216.340 248.989,219.561 248.621 C 223.445 248.176,232.237 246.373,234.200 245.618 C 234.640 245.449,235.720 245.094,236.600 244.829 C 238.639 244.215,239.399 243.911,241.538 242.857 C 242.494 242.386,243.514 242.000,243.804 242.000 C 244.095 242.000,244.393 241.865,244.467 241.700 C 244.540 241.535,245.411 240.989,246.403 240.487 C 269.184 228.951,277.672 188.724,262.247 165.400 C 261.374 164.080,260.554 162.910,260.424 162.800 C 258.245 160.957,257.753 159.073,258.805 156.600 C 260.128 153.491,260.091 136.430,258.759 135.020 C 258.562 134.811,258.400 134.147,258.400 133.544 C 258.400 132.941,258.220 132.336,258.000 132.200 C 257.780 132.064,257.600 131.597,257.600 131.162 C 257.600 129.559,256.419 128.400,254.785 128.400 C 248.796 128.400,239.370 131.963,229.277 138.041 C 224.981 140.627,223.149 141.289,222.626 140.442 C 222.505 140.245,221.729 139.985,220.903 139.863 C 220.076 139.741,218.410 139.444,217.200 139.205 C 203.986 136.586,190.344 136.306,177.400 138.387 C 176.080 138.600,174.280 138.881,173.400 139.012 C 172.520 139.142,171.440 139.406,171.000 139.598 C 170.560 139.789,169.615 140.048,168.900 140.173 C 168.185 140.298,167.074 140.508,166.431 140.641 C 165.539 140.825,164.854 140.602,163.531 139.698 C 155.072 133.917,146.656 130.264,138.293 128.743 C 133.233 127.822,132.558 128.811,130.607 140.000 C 129.562 145.992,130.025 151.586,132.178 159.000 C 132.347 159.580,131.766 160.602,130.066 162.713 C 128.777 164.314,127.470 166.114,127.162 166.713 C 126.853 167.311,126.507 167.890,126.393 168.000 C 126.278 168.110,125.584 169.460,124.850 171.000 C 124.116 172.540,123.355 174.113,123.158 174.495 C 122.961 174.877,122.800 175.541,122.800 175.971 C 122.800 176.401,122.640 176.852,122.444 176.973 C 122.249 177.094,121.989 177.779,121.868 178.496 C 121.747 179.213,121.412 180.880,121.124 182.200 C 120.042 187.156,120.542 202.426,122.001 209.000 C 122.245 210.100,122.544 211.587,122.666 212.304 C 122.788 213.021,123.049 213.706,123.244 213.827 C 123.440 213.948,123.600 214.476,123.600 215.000 C 123.600 215.524,123.780 216.064,124.000 216.200 C 124.220 216.336,124.400 216.780,124.400 217.186 C 124.400 217.998,125.653 220.734,127.669 224.324 C 130.461 229.293,135.384 234.861,139.400 237.589 C 140.500 238.336,141.490 239.049,141.600 239.174 C 142.237 239.895,149.077 243.321,151.200 243.983 C 152.190 244.292,153.180 244.666,153.400 244.814 C 153.620 244.963,154.250 245.213,154.800 245.369 C 155.350 245.526,156.430 245.834,157.200 246.054 C 160.375 246.960,163.991 247.688,169.730 248.578 C 174.156 249.265,174.053 249.090,171.791 252.081 C 169.458 255.165,168.199 257.915,167.195 262.121 C 166.287 265.922,166.459 265.717,163.283 266.778 C 149.398 271.421,139.869 268.120,131.592 255.800 C 127.842 250.218,123.704 246.792,117.881 244.450 C 117.266 244.203,115.286 244.006,113.481 244.013 C 107.401 244.036,107.246 245.953,113.000 249.958 C 117.532 253.112,122.211 258.517,124.030 262.700 C 124.341 263.415,124.731 264.000,124.898 264.000 C 125.064 264.000,125.200 264.324,125.200 264.720 C 125.200 265.116,125.351 265.611,125.536 265.820 C 125.721 266.029,126.114 266.830,126.409 267.600 C 131.135 279.906,143.550 284.380,165.000 281.507 C 166.194 281.347,167.107 300.366,166.137 305.213 C 165.478 308.512,158.969 311.283,156.580 309.282 C 156.371 309.107,155.480 308.731,154.600 308.448 C 153.720 308.165,152.237 307.588,151.304 307.166 C 150.372 306.745,149.444 306.400,149.242 306.400 C 149.041 306.400,148.184 306.053,147.338 305.629 C 146.492 305.205,144.090 304.012,142.000 302.979 C 136.645 300.331,127.279 294.707,126.400 293.611 C 126.290 293.474,125.570 292.929,124.800 292.400 C 124.030 291.871,123.310 291.329,123.200 291.196 C 123.090 291.063,122.621 290.694,122.157 290.377 C 118.889 288.140,108.658 278.280,104.585 273.442 C 102.113 270.506,96.400 262.808,96.093 262.000 C 95.968 261.670,95.356 260.648,94.733 259.728 C 94.110 258.808,93.600 257.878,93.600 257.661 C 93.600 257.444,93.465 257.207,93.300 257.133 C 92.784 256.904,87.556 246.752,85.970 242.900 C 84.379 239.035,83.596 236.873,82.527 233.400 C 81.038 228.562,79.665 222.972,78.597 217.400 C 77.718 212.815,77.460 208.375,77.449 197.600 C 77.434 183.383,77.790 179.990,80.464 168.800 C 81.199 165.727,84.306 155.784,85.152 153.800 C 85.339 153.360,85.683 152.550,85.914 152.000 C 86.700 150.136,91.356 140.601,91.579 140.400 C 91.701 140.290,92.065 139.660,92.388 139.000 C 92.711 138.340,93.476 137.048,94.088 136.128 C 94.699 135.208,95.200 134.351,95.200 134.224 C 95.200 133.998,96.642 131.864,99.539 127.800 C 103.767 121.871,112.881 112.108,118.800 107.170 C 120.230 105.976,121.490 104.901,121.600 104.781 C 121.710 104.660,122.430 104.129,123.200 103.600 C 123.970 103.071,124.690 102.534,124.800 102.406 C 125.712 101.343,132.181 97.219,138.500 93.670 C 142.495 91.427,148.374 88.660,152.200 87.223 C 153.520 86.728,154.960 86.169,155.400 85.981 C 159.605 84.189,170.619 81.510,178.600 80.337 C 185.940 79.258,204.045 79.050,209.600 79.981 M121.001 246.800 C 122.407 247.335,122.309 249.328,120.867 249.532 C 119.073 249.786,117.681 247.659,119.100 246.832 C 119.968 246.326,119.763 246.330,121.001 246.800 M126.545 251.455 C 128.734 253.643,126.647 255.872,124.300 253.853 C 123.047 252.776,122.869 251.432,123.900 250.832 C 124.970 250.209,125.401 250.310,126.545 251.455 M131.623 258.032 C 133.266 260.340,130.839 262.445,128.731 260.538 C 128.021 259.895,127.716 257.618,128.267 257.067 C 128.995 256.338,130.783 256.852,131.623 258.032 M137.169 264.236 C 139.100 265.860,138.660 268.000,136.395 268.000 C 134.281 268.000,132.586 265.342,133.826 263.971 C 134.770 262.928,135.703 263.001,137.169 264.236 M145.874 269.270 C 148.364 271.608,144.914 274.101,142.300 271.853 C 141.032 270.763,140.935 270.156,141.862 269.131 C 142.764 268.135,144.739 268.203,145.874 269.270 M164.791 269.591 C 166.188 270.988,164.847 272.765,162.380 272.787 C 160.747 272.802,160.000 272.223,160.000 270.943 C 160.000 269.019,163.290 268.090,164.791 269.591 M155.773 270.770 C 157.464 272.639,154.607 275.062,152.301 273.715 C 149.927 272.328,150.741 270.000,153.600 270.000 C 154.549 270.000,155.325 270.275,155.773 270.770 " stroke="none" fill="#242c2c" fill-rule="evenodd"></path><path id="path2" d="M192.300 79.497 C 193.895 79.573,196.505 79.573,198.100 79.497 C 199.695 79.421,198.390 79.359,195.200 79.359 C 192.010 79.359,190.705 79.421,192.300 79.497 M181.200 80.000 C 179.796 80.450,181.263 80.465,183.400 80.023 L 185.000 79.692 183.600 79.686 C 182.830 79.683,181.750 79.824,181.200 80.000 M207.000 80.023 C 207.880 80.205,209.050 80.343,209.600 80.330 C 211.188 80.291,208.565 79.695,206.800 79.693 L 205.400 79.692 207.000 80.023 M175.600 80.800 C 174.808 81.054,174.767 81.120,175.400 81.120 C 175.840 81.120,176.650 80.976,177.200 80.800 C 177.992 80.546,178.033 80.480,177.400 80.480 C 176.960 80.480,176.150 80.624,175.600 80.800 M213.200 80.800 C 213.750 80.976,214.560 81.120,215.000 81.120 C 215.633 81.120,215.592 81.054,214.800 80.800 C 214.250 80.624,213.440 80.480,213.000 80.480 C 212.367 80.480,212.408 80.546,213.200 80.800 M171.200 81.600 C 170.396 81.857,170.357 81.923,171.000 81.932 C 171.440 81.938,172.160 81.789,172.600 81.600 C 173.619 81.162,172.568 81.162,171.200 81.600 M217.800 81.600 C 218.240 81.789,218.960 81.938,219.400 81.932 C 220.043 81.923,220.004 81.857,219.200 81.600 C 217.832 81.162,216.781 81.162,217.800 81.600 M221.600 82.382 C 221.930 82.605,222.545 82.791,222.967 82.794 C 223.990 82.802,223.671 82.573,222.200 82.244 C 221.324 82.048,221.162 82.085,221.600 82.382 M164.400 83.200 C 163.576 83.464,163.541 83.526,164.200 83.554 C 164.640 83.573,165.270 83.413,165.600 83.200 C 166.301 82.747,165.814 82.747,164.400 83.200 M157.729 85.130 C 156.591 85.503,155.531 85.936,155.375 86.092 C 155.219 86.248,155.701 86.187,156.446 85.957 C 157.191 85.727,158.385 85.364,159.100 85.151 C 159.815 84.937,160.400 84.681,160.400 84.581 C 160.400 84.307,159.987 84.392,157.729 85.130 M230.000 84.554 C 230.000 84.669,230.585 84.937,231.300 85.151 C 232.015 85.364,233.218 85.730,233.973 85.963 C 234.728 86.196,235.178 86.246,234.973 86.075 C 234.632 85.790,233.236 85.287,230.900 84.608 C 230.405 84.464,230.000 84.440,230.000 84.554 M152.200 87.229 C 151.320 87.652,151.038 87.886,151.574 87.749 C 153.039 87.373,155.086 86.429,154.400 86.445 C 154.070 86.453,153.080 86.806,152.200 87.229 M236.626 86.965 C 238.644 87.844,239.926 88.059,238.200 87.229 C 237.320 86.806,236.330 86.453,236.000 86.445 C 235.670 86.438,235.952 86.672,236.626 86.965 M240.054 88.187 C 240.390 88.523,243.200 89.616,243.200 89.411 C 243.200 89.301,242.548 88.938,241.751 88.605 C 240.275 87.989,239.718 87.851,240.054 88.187 M131.900 97.429 C 131.295 97.757,130.800 98.110,130.800 98.213 C 130.800 98.599,131.432 98.357,132.400 97.600 C 133.589 96.670,133.411 96.609,131.900 97.429 M258.600 97.874 C 258.820 98.079,260.440 99.215,262.200 100.398 C 263.960 101.582,266.165 103.168,267.100 103.923 C 268.035 104.679,268.793 105.140,268.785 104.948 C 268.770 104.606,268.120 104.113,262.648 100.293 C 259.972 98.426,257.792 97.123,258.600 97.874 M127.439 100.423 C 125.920 101.510,124.817 102.400,124.988 102.400 C 125.357 102.400,130.400 98.840,130.400 98.580 C 130.400 98.305,130.384 98.315,127.439 100.423 M117.468 108.246 C 116.625 109.029,116.007 109.740,116.094 109.827 C 116.181 109.914,116.952 109.269,117.807 108.393 C 119.734 106.419,119.529 106.330,117.468 108.246 M272.574 108.298 C 273.440 109.226,274.226 109.907,274.322 109.812 C 274.504 109.630,274.131 109.246,272.182 107.605 C 271.403 106.950,271.537 107.187,272.574 108.298 M111.392 114.100 L 107.400 118.200 111.500 114.208 C 115.308 110.499,115.782 110.000,115.492 110.000 C 115.433 110.000,113.588 111.845,111.392 114.100 M279.611 115.004 C 281.475 116.986,283.082 118.555,283.182 118.489 C 283.282 118.423,281.757 116.801,279.793 114.885 L 276.222 111.400 279.611 115.004 M104.000 122.083 C 100.776 126.003,99.866 127.200,100.107 127.200 C 100.192 127.200,101.237 125.986,102.430 124.503 C 103.624 123.019,105.298 121.039,106.151 120.103 C 107.004 119.166,107.544 118.408,107.351 118.417 C 107.158 118.426,105.650 120.076,104.000 122.083 M285.136 121.117 C 286.091 122.261,287.081 123.325,287.336 123.480 C 287.591 123.636,287.019 122.827,286.064 121.683 C 285.109 120.539,284.119 119.475,283.864 119.320 C 283.609 119.164,284.181 119.973,285.136 121.117 M288.340 125.116 C 288.833 125.809,289.444 126.504,289.697 126.660 C 289.950 126.817,289.754 126.377,289.260 125.684 C 288.767 124.991,288.156 124.296,287.903 124.140 C 287.650 123.983,287.846 124.423,288.340 125.116 M290.606 128.112 C 290.992 128.724,291.409 129.124,291.532 129.001 C 291.655 128.878,291.339 128.378,290.830 127.889 L 289.904 127.000 290.606 128.112 M98.886 128.700 C 95.699 133.261,95.161 134.094,95.308 134.241 C 95.400 134.333,96.494 132.876,97.740 131.004 C 99.808 127.896,100.699 126.105,98.886 128.700 M133.293 128.900 C 132.785 129.526,131.516 133.249,131.736 133.469 C 131.825 133.558,132.203 132.679,132.576 131.516 C 132.950 130.352,133.547 129.175,133.904 128.900 C 134.261 128.625,134.361 128.400,134.125 128.400 C 133.890 128.400,133.516 128.625,133.293 128.900 M138.400 128.780 C 139.399 129.120,141.882 129.332,141.567 129.051 C 141.475 128.969,140.500 128.799,139.400 128.672 C 138.051 128.516,137.726 128.551,138.400 128.780 M249.600 128.800 C 248.243 129.086,248.237 129.095,249.400 129.107 C 250.060 129.115,251.050 128.976,251.600 128.800 C 252.912 128.380,251.596 128.380,249.600 128.800 M142.400 129.582 C 142.730 129.805,143.345 129.991,143.767 129.994 C 144.790 130.002,144.471 129.773,143.000 129.444 C 142.124 129.248,141.962 129.285,142.400 129.582 M246.400 129.600 C 245.576 129.864,245.541 129.926,246.200 129.954 C 246.640 129.973,247.270 129.813,247.600 129.600 C 248.301 129.147,247.814 129.147,246.400 129.600 M292.000 129.714 C 292.000 129.883,292.990 131.500,294.200 133.307 C 295.410 135.114,296.400 136.455,296.400 136.286 C 296.400 136.117,295.410 134.500,294.200 132.693 C 292.990 130.886,292.000 129.545,292.000 129.714 M241.930 131.124 C 240.462 131.720,239.112 132.355,238.930 132.537 C 238.612 132.855,241.097 131.943,244.000 130.676 C 246.409 129.625,244.735 129.987,241.930 131.124 M150.054 132.187 C 150.390 132.523,153.200 133.616,153.200 133.411 C 153.200 133.301,152.548 132.938,151.751 132.605 C 150.275 131.989,149.718 131.851,150.054 132.187 M258.428 133.876 C 258.413 134.358,258.580 134.864,258.800 135.000 C 259.273 135.292,259.273 134.901,258.800 133.800 C 258.469 133.029,258.455 133.031,258.428 133.876 M131.249 134.600 C 131.216 135.040,131.096 135.850,130.983 136.400 L 130.777 137.400 131.206 136.419 C 131.442 135.879,131.561 135.069,131.472 134.619 C 131.313 133.821,131.307 133.821,131.249 134.600 M232.300 135.829 C 230.805 136.640,230.896 136.978,232.400 136.200 C 233.060 135.859,233.600 135.494,233.600 135.390 C 233.600 135.132,233.557 135.147,232.300 135.829 M158.000 136.179 C 158.000 136.289,158.540 136.659,159.200 137.000 C 159.860 137.341,160.400 137.531,160.400 137.421 C 160.400 137.311,159.860 136.941,159.200 136.600 C 158.540 136.259,158.000 136.069,158.000 136.179 M259.246 137.200 C 259.227 137.750,259.387 138.470,259.600 138.800 C 260.094 139.564,260.094 138.742,259.600 137.200 L 259.280 136.200 259.246 137.200 M184.600 137.200 L 183.000 137.486 184.400 137.514 C 185.170 137.529,186.610 137.397,187.600 137.220 L 189.400 136.900 187.800 136.907 C 186.920 136.911,185.480 137.042,184.600 137.200 M202.600 137.218 C 205.464 137.665,208.131 137.630,205.600 137.180 C 204.610 137.003,203.080 136.870,202.200 136.883 C 200.641 136.906,200.652 136.915,202.600 137.218 M297.441 138.600 C 298.041 139.700,298.702 140.780,298.910 141.000 C 299.503 141.627,297.741 138.295,297.006 137.400 C 296.645 136.960,296.841 137.500,297.441 138.600 M130.493 138.800 C 130.493 139.570,130.575 139.885,130.676 139.500 C 130.776 139.115,130.776 138.485,130.676 138.100 C 130.575 137.715,130.493 138.030,130.493 138.800 M178.200 138.000 C 177.111 138.277,177.093 138.307,178.000 138.325 C 178.550 138.335,179.360 138.189,179.800 138.000 C 180.786 137.576,179.866 137.576,178.200 138.000 M210.400 138.000 C 210.950 138.176,211.850 138.317,212.400 138.313 C 213.298 138.306,213.278 138.274,212.200 138.000 C 210.508 137.569,209.056 137.569,210.400 138.000 M228.000 138.433 L 227.000 139.248 228.300 138.614 C 229.015 138.265,229.600 137.894,229.600 137.790 C 229.600 137.392,228.963 137.648,228.000 138.433 M173.600 138.800 C 172.776 139.064,172.741 139.126,173.400 139.154 C 173.840 139.173,174.470 139.013,174.800 138.800 C 175.501 138.347,175.014 138.347,173.600 138.800 M215.200 138.800 C 215.530 139.013,216.250 139.173,216.800 139.154 L 217.800 139.120 216.800 138.800 C 215.258 138.306,214.436 138.306,215.200 138.800 M164.000 139.944 C 165.064 140.836,166.613 141.035,167.600 140.405 C 168.015 140.141,167.753 140.094,166.753 140.255 C 165.754 140.416,164.948 140.273,164.153 139.796 L 163.000 139.105 164.000 139.944 M169.800 139.600 C 169.029 139.931,169.031 139.945,169.876 139.972 C 170.358 139.987,170.864 139.820,171.000 139.600 C 171.292 139.127,170.901 139.127,169.800 139.600 M219.200 139.582 C 219.530 139.805,220.145 139.991,220.567 139.994 C 221.590 140.002,221.271 139.773,219.800 139.444 C 218.924 139.248,218.762 139.285,219.200 139.582 M222.600 140.400 C 222.736 140.620,223.242 140.787,223.724 140.772 C 224.569 140.745,224.571 140.731,223.800 140.400 C 222.699 139.927,222.308 139.927,222.600 140.400 M260.151 146.000 C 260.151 148.530,260.216 149.565,260.296 148.300 C 260.375 147.035,260.375 144.965,260.296 143.700 C 260.216 142.435,260.151 143.470,260.151 146.000 M300.282 143.789 C 300.873 144.993,301.423 145.911,301.505 145.829 C 301.684 145.649,299.667 141.600,299.398 141.600 C 299.294 141.600,299.692 142.585,300.282 143.789 M129.731 146.200 C 129.733 147.740,129.805 148.321,129.892 147.491 C 129.979 146.661,129.977 145.401,129.889 144.691 C 129.800 143.981,129.729 144.660,129.731 146.200 M87.000 149.461 C 86.664 150.265,86.482 151.015,86.595 151.128 C 86.708 151.241,86.800 151.235,86.800 151.116 C 86.800 150.996,87.072 150.246,87.405 149.449 C 87.738 148.652,87.921 148.000,87.811 148.000 C 87.701 148.000,87.336 148.658,87.000 149.461 M130.493 153.200 C 130.493 153.970,130.575 154.285,130.676 153.900 C 130.776 153.515,130.776 152.885,130.676 152.500 C 130.575 152.115,130.493 152.430,130.493 153.200 M259.449 153.415 C 259.312 153.773,259.215 154.366,259.234 154.733 C 259.253 155.100,259.427 154.869,259.621 154.220 C 259.998 152.958,259.865 152.333,259.449 153.415 M130.868 155.200 C 130.888 156.239,131.518 157.946,131.532 157.000 C 131.538 156.560,131.389 155.840,131.200 155.400 C 130.989 154.910,130.861 154.832,130.868 155.200 M132.000 159.309 C 132.000 159.589,131.444 160.534,130.766 161.409 L 129.531 163.000 130.966 161.433 C 132.219 160.065,132.812 158.800,132.200 158.800 C 132.090 158.800,132.000 159.029,132.000 159.309 M258.173 159.740 C 258.476 160.705,260.093 162.749,260.575 162.778 C 260.781 162.790,260.490 162.305,259.928 161.700 C 259.367 161.095,258.689 160.240,258.423 159.800 C 258.012 159.119,257.974 159.110,258.173 159.740 M81.400 164.800 C 81.250 165.273,81.217 165.750,81.327 165.860 C 81.437 165.970,81.650 165.673,81.800 165.200 C 81.950 164.727,81.983 164.250,81.873 164.140 C 81.763 164.030,81.550 164.327,81.400 164.800 M309.840 169.866 C 310.208 171.399,310.400 171.544,310.400 170.290 C 310.400 169.717,310.213 169.132,309.984 168.990 C 309.711 168.821,309.662 169.123,309.840 169.866 M79.829 171.029 C 79.681 171.615,79.638 172.172,79.732 172.266 C 79.827 172.360,80.024 171.958,80.171 171.371 C 80.319 170.785,80.362 170.228,80.268 170.134 C 80.173 170.040,79.976 170.442,79.829 171.029 M310.658 173.200 C 310.975 174.925,311.202 175.251,311.194 173.967 C 311.191 173.435,311.011 172.730,310.794 172.400 C 310.518 171.978,310.477 172.215,310.658 173.200 M79.073 174.553 C 78.923 174.945,78.811 175.566,78.825 175.933 C 78.842 176.375,78.981 176.274,79.237 175.634 C 79.449 175.103,79.561 174.482,79.485 174.254 C 79.409 174.027,79.224 174.161,79.073 174.553 M267.448 175.800 C 267.591 176.460,267.866 177.270,268.059 177.600 C 268.284 177.984,268.318 177.768,268.152 177.000 C 268.009 176.340,267.734 175.530,267.541 175.200 C 267.316 174.816,267.282 175.032,267.448 175.800 M311.473 177.600 C 311.604 178.590,311.776 179.475,311.856 179.567 C 312.157 179.914,311.928 177.364,311.590 176.600 C 311.353 176.066,311.314 176.398,311.473 177.600 M78.276 178.810 C 78.130 179.355,78.027 180.250,78.046 180.800 C 78.071 181.518,78.184 181.357,78.449 180.227 C 78.855 178.495,78.700 177.225,78.276 178.810 M121.400 179.200 C 121.250 179.673,121.217 180.150,121.327 180.260 C 121.437 180.370,121.650 180.073,121.800 179.600 C 121.950 179.127,121.983 178.650,121.873 178.540 C 121.763 178.430,121.550 178.727,121.400 179.200 M312.299 183.400 C 312.416 184.940,312.577 186.275,312.656 186.367 C 312.934 186.688,312.717 182.589,312.403 181.600 C 312.219 181.019,312.175 181.773,312.299 183.400 M120.622 183.022 C 120.472 183.825,120.428 184.562,120.526 184.660 C 120.624 184.757,120.827 184.181,120.978 183.378 C 121.128 182.575,121.172 181.838,121.074 181.740 C 120.976 181.643,120.773 182.219,120.622 183.022 M269.301 183.000 C 269.305 183.880,269.387 184.193,269.483 183.695 C 269.579 183.198,269.575 182.478,269.475 182.095 C 269.375 181.713,269.296 182.120,269.301 183.000 M77.469 185.156 C 77.321 185.895,77.222 187.153,77.249 187.950 C 77.286 189.049,77.382 188.818,77.648 187.000 C 78.031 184.371,77.899 183.005,77.469 185.156 M120.151 192.000 C 120.151 194.530,120.216 195.565,120.296 194.300 C 120.375 193.035,120.375 190.965,120.296 189.700 C 120.216 188.435,120.151 189.470,120.151 192.000 M270.150 191.800 C 270.151 194.220,270.216 195.158,270.296 193.885 C 270.376 192.612,270.375 190.632,270.294 189.485 C 270.214 188.338,270.149 189.380,270.150 191.800 M312.909 189.200 C 312.909 190.190,312.987 190.595,313.082 190.100 C 313.178 189.605,313.178 188.795,313.082 188.300 C 312.987 187.805,312.909 188.210,312.909 189.200 M313.363 197.600 C 313.363 201.230,313.423 202.715,313.498 200.900 C 313.572 199.085,313.572 196.115,313.498 194.300 C 313.423 192.485,313.363 193.970,313.363 197.600 M269.701 199.000 C 269.705 199.880,269.787 200.193,269.883 199.695 C 269.979 199.198,269.975 198.478,269.875 198.095 C 269.775 197.713,269.696 198.120,269.701 199.000 M120.487 201.600 C 120.491 202.150,120.632 203.140,120.800 203.800 L 121.105 205.000 121.113 203.800 C 121.117 203.140,120.976 202.150,120.800 201.600 L 120.480 200.600 120.487 201.600 M269.314 202.600 C 269.317 203.700,269.395 204.103,269.487 203.495 C 269.579 202.886,269.577 201.986,269.482 201.495 C 269.387 201.003,269.311 201.500,269.314 202.600 M312.901 205.800 C 312.905 206.680,312.987 206.993,313.083 206.495 C 313.179 205.998,313.175 205.278,313.075 204.895 C 312.975 204.513,312.896 204.920,312.901 205.800 M77.228 207.433 C 77.244 208.515,77.412 209.760,77.602 210.200 C 77.816 210.695,77.860 210.010,77.718 208.400 C 77.439 205.243,77.190 204.751,77.228 207.433 M121.444 207.800 C 121.773 209.271,122.002 209.590,121.994 208.567 C 121.991 208.145,121.805 207.530,121.582 207.200 C 121.285 206.762,121.248 206.924,121.444 207.800 M268.454 207.600 C 268.419 208.150,268.296 209.050,268.183 209.600 L 267.977 210.600 268.407 209.615 C 268.643 209.074,268.765 208.174,268.678 207.615 L 268.520 206.600 268.454 207.600 M312.520 210.400 C 312.520 211.610,312.595 212.105,312.687 211.500 C 312.778 210.895,312.778 209.905,312.687 209.300 C 312.595 208.695,312.520 209.190,312.520 210.400 M267.111 213.261 C 266.741 214.641,266.503 215.836,266.582 215.915 C 266.798 216.131,268.063 211.590,267.913 211.139 C 267.842 210.925,267.481 211.880,267.111 213.261 M78.028 214.233 C 78.044 214.875,78.216 215.760,78.410 216.200 C 78.647 216.734,78.686 216.402,78.527 215.200 C 78.246 213.080,77.988 212.580,78.028 214.233 M311.659 216.000 C 311.620 216.550,311.489 217.450,311.367 218.000 C 311.176 218.862,311.208 218.902,311.597 218.291 C 311.846 217.902,311.977 217.002,311.889 216.291 C 311.764 215.287,311.713 215.222,311.659 216.000 M78.868 219.000 C 78.862 219.440,79.011 220.160,79.200 220.600 C 79.638 221.619,79.638 220.568,79.200 219.200 C 78.943 218.396,78.877 218.357,78.868 219.000 M310.854 220.667 C 310.825 221.144,310.696 221.864,310.570 222.267 C 310.352 222.961,310.364 222.962,310.796 222.288 C 311.047 221.897,311.175 221.177,311.081 220.688 C 310.909 219.801,310.909 219.801,310.854 220.667 M126.586 223.100 C 126.935 223.815,127.306 224.400,127.410 224.400 C 127.808 224.400,127.552 223.763,126.767 222.800 L 125.952 221.800 126.586 223.100 M79.656 222.800 C 79.656 223.130,79.811 223.760,80.000 224.200 C 80.217 224.704,80.344 224.778,80.344 224.400 C 80.344 224.070,80.189 223.440,80.000 223.000 C 79.783 222.496,79.656 222.422,79.656 222.800 M309.952 224.713 C 309.821 225.507,309.879 225.881,310.101 225.659 C 310.303 225.457,310.401 224.867,310.319 224.346 C 310.193 223.545,310.137 223.602,309.952 224.713 M127.846 225.300 C 130.949 230.590,139.386 239.200,141.467 239.200 C 141.644 239.200,140.802 238.536,139.595 237.726 C 136.590 235.707,131.763 230.737,129.653 227.489 C 128.692 226.010,127.827 224.800,127.729 224.800 C 127.632 224.800,127.685 225.025,127.846 225.300 M260.253 227.992 C 259.668 228.876,259.260 229.600,259.347 229.600 C 259.654 229.600,261.678 226.745,261.499 226.566 C 261.399 226.466,260.838 227.107,260.253 227.992 M257.775 231.300 L 256.600 232.600 257.900 231.425 C 258.615 230.779,259.200 230.194,259.200 230.125 C 259.200 229.816,258.870 230.088,257.775 231.300 M253.000 235.877 C 251.568 237.214,251.245 237.625,252.200 236.898 C 253.709 235.749,255.939 233.578,255.570 233.618 C 255.476 233.628,254.320 234.645,253.000 235.877 M83.216 235.454 C 83.207 235.704,83.463 236.514,83.784 237.254 C 84.106 237.994,84.376 238.396,84.384 238.146 C 84.393 237.896,84.137 237.086,83.816 236.346 C 83.494 235.606,83.224 235.204,83.216 235.454 M86.400 243.684 C 86.400 244.116,87.615 246.800,87.811 246.800 C 87.921 246.800,87.733 246.134,87.393 245.321 C 86.793 243.886,86.400 243.238,86.400 243.684 M111.911 243.893 C 112.851 243.978,114.291 243.977,115.111 243.891 C 115.930 243.805,115.160 243.736,113.400 243.737 C 111.640 243.739,110.970 243.809,111.911 243.893 M121.200 245.779 C 121.200 245.889,121.740 246.259,122.400 246.600 C 123.060 246.941,123.600 247.131,123.600 247.021 C 123.600 246.911,123.060 246.541,122.400 246.200 C 121.740 245.859,121.200 245.669,121.200 245.779 M118.539 247.415 C 118.195 248.310,119.551 249.609,120.762 249.546 L 121.800 249.491 120.800 249.307 C 119.408 249.051,118.710 248.386,118.935 247.528 C 119.166 246.643,118.868 246.558,118.539 247.415 M160.600 247.200 C 161.040 247.389,161.670 247.544,162.000 247.544 C 162.378 247.544,162.304 247.417,161.800 247.200 C 161.360 247.011,160.730 246.856,160.400 246.856 C 160.022 246.856,160.096 246.983,160.600 247.200 M227.800 247.200 C 227.296 247.417,227.222 247.544,227.600 247.544 C 227.930 247.544,228.560 247.389,229.000 247.200 C 229.504 246.983,229.578 246.856,229.200 246.856 C 228.870 246.856,228.240 247.011,227.800 247.200 M125.487 248.662 C 126.415 249.508,127.920 251.010,128.831 252.000 L 130.487 253.800 129.232 252.127 C 128.541 251.207,127.036 249.705,125.888 248.789 C 123.835 247.152,123.828 247.150,125.487 248.662 M164.200 248.000 C 164.640 248.189,165.450 248.338,166.000 248.332 L 167.000 248.320 166.000 248.000 C 165.450 247.824,164.640 247.674,164.200 247.668 L 163.400 247.656 164.200 248.000 M223.600 248.000 L 222.600 248.320 223.600 248.332 C 224.150 248.338,224.960 248.189,225.400 248.000 L 226.200 247.656 225.400 247.668 C 224.960 247.674,224.150 247.824,223.600 248.000 M111.650 249.286 C 113.399 250.810,117.029 253.358,116.440 252.648 C 116.137 252.283,114.699 251.171,113.244 250.178 C 111.790 249.184,111.072 248.783,111.650 249.286 M169.000 248.800 C 169.660 248.968,170.740 249.106,171.400 249.107 C 172.409 249.108,172.345 249.055,171.000 248.777 C 168.974 248.358,167.337 248.377,169.000 248.800 M218.296 248.784 C 216.234 249.184,216.100 249.438,217.279 250.704 C 217.841 251.307,218.796 252.565,219.403 253.500 C 220.010 254.435,220.583 255.200,220.676 255.200 C 220.997 255.200,219.397 252.724,218.069 251.163 C 217.337 250.304,216.797 249.580,216.869 249.556 C 216.941 249.532,218.080 249.286,219.400 249.008 C 220.720 248.730,221.350 248.500,220.800 248.497 C 220.250 248.494,219.123 248.623,218.296 248.784 M125.077 250.804 C 127.235 251.673,127.645 254.819,125.527 254.265 C 125.127 254.160,124.900 254.238,125.023 254.437 C 125.547 255.285,127.600 254.079,127.600 252.923 C 127.600 252.257,125.550 250.398,124.845 250.425 C 124.404 250.443,124.478 250.563,125.077 250.804 M123.467 251.067 C 123.101 251.432,123.129 253.200,123.500 253.200 C 123.665 253.200,123.800 252.660,123.800 252.000 C 123.800 251.340,123.785 250.800,123.767 250.800 C 123.748 250.800,123.613 250.920,123.467 251.067 M298.151 254.900 C 297.783 255.615,297.219 256.650,296.898 257.200 C 296.339 258.159,296.343 258.167,296.989 257.400 C 297.778 256.463,299.307 253.600,299.018 253.600 C 298.910 253.600,298.519 254.185,298.151 254.900 M118.000 254.525 C 118.000 254.594,118.585 255.179,119.300 255.825 L 120.600 257.000 119.425 255.700 C 118.330 254.488,118.000 254.216,118.000 254.525 M293.798 262.086 C 292.479 264.080,291.338 265.911,291.261 266.155 C 291.185 266.400,292.324 264.829,293.792 262.664 C 295.260 260.499,296.401 258.667,296.328 258.594 C 296.255 258.521,295.116 260.093,293.798 262.086 M167.449 259.415 C 167.312 259.773,167.215 260.366,167.234 260.733 C 167.253 261.100,167.427 260.869,167.621 260.220 C 167.998 258.958,167.865 258.333,167.449 259.415 M128.000 259.475 C 128.000 259.920,129.535 261.424,129.724 261.164 C 129.790 261.074,129.429 260.566,128.922 260.037 C 128.415 259.507,128.000 259.254,128.000 259.475 M135.200 260.978 C 135.200 261.307,140.559 265.474,141.600 265.955 C 142.447 266.346,142.484 266.339,141.841 265.908 C 141.424 265.629,139.759 264.363,138.141 263.095 C 136.524 261.828,135.200 260.875,135.200 260.978 M96.000 261.828 C 96.000 262.131,99.622 267.200,99.838 267.200 C 99.931 267.200,99.169 265.940,98.145 264.400 C 96.385 261.754,96.000 261.292,96.000 261.828 M166.656 262.484 C 166.521 262.988,166.427 263.760,166.446 264.200 C 166.465 264.640,166.645 264.298,166.846 263.440 C 167.236 261.778,167.070 260.940,166.656 262.484 M223.268 263.000 C 223.262 263.440,223.411 264.160,223.600 264.600 C 224.038 265.619,224.038 264.568,223.600 263.200 C 223.343 262.396,223.277 262.357,223.268 263.000 M134.223 263.563 C 134.100 263.762,134.359 263.831,134.799 263.716 C 136.679 263.224,138.707 266.023,137.545 267.505 C 137.052 268.134,137.067 268.148,137.700 267.651 C 138.771 266.811,138.552 265.399,137.169 264.236 C 135.927 263.190,134.636 262.895,134.223 263.563 M164.091 266.083 C 162.930 266.540,162.053 266.986,162.141 267.074 C 162.337 267.270,165.655 266.010,166.180 265.540 C 166.695 265.080,166.526 265.123,164.091 266.083 M159.400 267.600 C 158.896 267.817,158.822 267.944,159.200 267.944 C 159.530 267.944,160.160 267.789,160.600 267.600 C 161.104 267.383,161.178 267.256,160.800 267.256 C 160.470 267.256,159.840 267.411,159.400 267.600 M224.090 286.276 C 224.040 296.878,224.135 305.636,224.300 305.738 C 224.573 305.907,224.567 291.189,224.289 273.800 C 224.229 270.060,224.139 275.674,224.090 286.276 M101.247 269.300 C 103.092 271.686,104.800 273.666,104.800 273.420 C 104.800 273.135,100.344 267.600,100.115 267.600 C 100.015 267.600,100.524 268.365,101.247 269.300 M148.876 268.460 C 150.048 268.790,155.027 268.785,156.577 268.453 C 157.225 268.314,155.549 268.200,152.854 268.200 C 150.158 268.200,148.368 268.317,148.876 268.460 M143.600 268.695 C 144.370 268.787,145.315 269.146,145.700 269.493 C 147.218 270.861,146.087 272.677,143.979 272.256 C 143.223 272.105,142.853 272.162,143.004 272.406 C 143.742 273.600,146.800 272.256,146.800 270.738 C 146.800 269.633,145.044 268.396,143.574 268.464 L 142.200 268.528 143.600 268.695 M160.925 269.500 C 160.506 269.885,160.360 270.072,160.603 269.916 C 160.845 269.760,161.483 269.456,162.022 269.241 C 162.640 268.994,162.759 268.841,162.344 268.825 C 161.984 268.811,161.345 269.115,160.925 269.500 M127.467 270.406 C 127.859 271.070,128.598 272.105,129.110 272.706 C 129.621 273.308,129.375 272.765,128.563 271.500 C 127.024 269.103,126.228 268.307,127.467 270.406 M141.467 269.467 C 141.102 269.831,141.128 271.200,141.500 271.200 C 141.665 271.200,141.800 270.750,141.800 270.200 C 141.800 269.650,141.785 269.200,141.767 269.200 C 141.748 269.200,141.613 269.320,141.467 269.467 M151.462 270.731 C 150.619 271.663,150.620 272.553,151.464 273.251 C 152.072 273.754,152.081 273.724,151.567 272.899 C 150.278 270.828,154.346 269.246,155.762 271.268 C 156.113 271.768,156.400 271.986,156.400 271.751 C 156.400 270.148,152.684 269.381,151.462 270.731 M286.261 272.240 C 285.228 273.657,285.600 273.742,286.730 272.347 C 287.242 271.716,287.512 271.206,287.330 271.213 C 287.149 271.219,286.667 271.682,286.261 272.240 M152.900 274.032 C 153.375 274.309,153.825 274.309,154.300 274.032 C 154.871 273.699,154.742 273.624,153.600 273.624 C 152.458 273.624,152.329 273.699,152.900 274.032 M283.804 275.196 C 283.174 275.854,282.735 276.456,282.829 276.534 C 282.923 276.612,283.513 276.074,284.139 275.338 C 285.554 273.677,285.345 273.588,283.804 275.196 M111.600 281.000 C 114.343 283.750,116.673 286.000,116.776 286.000 C 117.121 286.000,107.407 276.114,107.006 276.057 C 106.789 276.025,108.857 278.250,111.600 281.000 M278.360 281.005 C 276.248 283.092,274.631 284.800,274.768 284.800 C 274.904 284.800,276.719 283.090,278.800 281.000 C 280.881 278.910,282.498 277.202,282.392 277.205 C 282.286 277.208,280.472 278.918,278.360 281.005 M142.600 281.600 C 143.040 281.789,143.670 281.944,144.000 281.944 C 144.378 281.944,144.304 281.817,143.800 281.600 C 143.360 281.411,142.730 281.256,142.400 281.256 C 142.022 281.256,142.096 281.383,142.600 281.600 M164.000 281.637 C 163.108 281.951,163.137 281.970,164.272 281.810 C 164.971 281.712,165.633 281.809,165.742 282.026 C 165.851 282.243,165.897 282.202,165.845 281.935 C 165.719 281.292,165.211 281.210,164.000 281.637 M146.000 282.393 C 146.988 282.716,150.289 282.935,149.967 282.656 C 149.875 282.576,148.720 282.411,147.400 282.288 C 145.909 282.149,145.379 282.189,146.000 282.393 M158.200 282.400 L 156.200 282.674 158.000 282.690 C 158.990 282.698,160.340 282.568,161.000 282.400 C 162.577 281.999,161.125 281.999,158.200 282.400 M166.000 295.432 L 165.800 305.864 164.671 307.432 L 163.542 309.000 164.757 307.632 C 166.346 305.843,166.462 304.829,166.319 294.000 L 166.200 285.000 166.000 295.432 M272.575 286.500 L 271.400 287.800 272.798 286.600 C 273.567 285.940,274.272 285.355,274.365 285.300 C 274.457 285.245,274.357 285.200,274.142 285.200 C 273.926 285.200,273.221 285.785,272.575 286.500 M269.643 288.823 C 269.117 289.261,268.757 289.690,268.843 289.776 C 268.930 289.862,269.505 289.497,270.122 288.966 C 270.740 288.435,271.100 288.006,270.922 288.013 C 270.745 288.021,270.170 288.385,269.643 288.823 M261.600 294.857 C 257.420 297.778,256.424 298.522,257.200 298.147 C 258.359 297.587,264.744 293.214,264.994 292.810 C 265.349 292.236,265.377 292.219,261.600 294.857 M128.804 295.333 C 132.329 297.687,133.879 298.629,133.400 298.128 C 132.793 297.492,126.881 293.600,126.522 293.600 C 126.350 293.600,127.377 294.380,128.804 295.333 M254.800 299.236 C 254.136 299.779,254.069 299.915,254.600 299.640 C 255.905 298.966,256.628 298.412,256.200 298.415 C 255.980 298.417,255.350 298.786,254.800 299.236 M136.800 300.179 C 136.800 300.289,137.340 300.659,138.000 301.000 C 138.660 301.341,139.200 301.531,139.200 301.421 C 139.200 301.311,138.660 300.941,138.000 300.600 C 137.340 300.259,136.800 300.069,136.800 300.179 M252.300 300.629 C 250.805 301.440,250.896 301.778,252.400 301.000 C 253.060 300.659,253.600 300.294,253.600 300.190 C 253.600 299.932,253.557 299.947,252.300 300.629 " stroke="none" fill="#707376" fill-rule="evenodd"></path><path id="path3" d="M190.500 79.899 C 193.085 79.968,197.315 79.968,199.900 79.899 C 202.485 79.829,200.370 79.772,195.200 79.772 C 190.030 79.772,187.915 79.829,190.500 79.899 M183.300 80.276 C 183.685 80.376,184.315 80.376,184.700 80.276 C 185.085 80.175,184.770 80.093,184.000 80.093 C 183.230 80.093,182.915 80.175,183.300 80.276 M205.700 80.276 C 206.085 80.376,206.715 80.376,207.100 80.276 C 207.485 80.175,207.170 80.093,206.400 80.093 C 205.630 80.093,205.315 80.175,205.700 80.276 M177.600 80.807 C 176.979 81.011,177.509 81.051,179.000 80.912 C 180.320 80.789,181.475 80.624,181.567 80.544 C 181.889 80.265,178.588 80.484,177.600 80.807 M208.833 80.544 C 208.925 80.624,210.080 80.789,211.400 80.912 C 212.891 81.051,213.421 81.011,212.800 80.807 C 211.812 80.484,208.511 80.265,208.833 80.544 M173.000 81.610 C 172.466 81.847,172.798 81.886,174.000 81.727 C 174.990 81.596,175.875 81.424,175.967 81.344 C 176.314 81.043,173.764 81.272,173.000 81.610 M214.433 81.344 C 214.525 81.424,215.410 81.596,216.400 81.727 C 217.602 81.886,217.934 81.847,217.400 81.610 C 216.636 81.272,214.086 81.043,214.433 81.344 M169.000 82.400 C 167.981 82.838,169.032 82.838,170.400 82.400 C 171.204 82.143,171.243 82.077,170.600 82.068 C 170.160 82.062,169.440 82.211,169.000 82.400 M220.000 82.400 C 221.368 82.838,222.419 82.838,221.400 82.400 C 220.960 82.211,220.240 82.062,219.800 82.068 C 219.157 82.077,219.196 82.143,220.000 82.400 M165.800 83.200 C 165.296 83.417,165.222 83.544,165.600 83.544 C 165.930 83.544,166.560 83.389,167.000 83.200 C 167.504 82.983,167.578 82.856,167.200 82.856 C 166.870 82.856,166.240 83.011,165.800 83.200 M223.400 83.200 C 223.840 83.389,224.470 83.544,224.800 83.544 C 225.178 83.544,225.104 83.417,224.600 83.200 C 224.160 83.011,223.530 82.856,223.200 82.856 C 222.822 82.856,222.896 82.983,223.400 83.200 M135.900 95.429 C 134.405 96.240,134.496 96.578,136.000 95.800 C 136.660 95.459,137.200 95.094,137.200 94.990 C 137.200 94.732,137.157 94.747,135.900 95.429 M132.900 97.246 C 131.537 98.119,131.095 98.706,132.300 98.043 C 133.218 97.539,134.656 96.427,134.400 96.419 C 134.290 96.416,133.615 96.788,132.900 97.246 M256.600 97.007 C 257.040 97.366,257.760 97.835,258.200 98.051 L 259.000 98.444 258.200 97.793 C 257.760 97.434,257.040 96.965,256.600 96.749 L 255.800 96.356 256.600 97.007 M125.985 102.029 L 124.600 103.258 126.100 102.181 C 127.426 101.230,127.857 100.800,127.485 100.800 C 127.422 100.800,126.747 101.353,125.985 102.029 M118.378 108.044 L 115.800 110.464 118.400 108.338 C 119.830 107.169,121.075 106.165,121.167 106.106 C 121.258 106.048,121.249 105.915,121.145 105.812 C 121.042 105.708,119.797 106.713,118.378 108.044 M269.233 105.860 C 269.251 106.047,270.449 107.173,271.895 108.363 C 273.341 109.552,274.407 110.336,274.264 110.104 C 273.831 109.403,269.198 105.495,269.233 105.860 M112.012 113.788 C 110.379 115.432,109.124 116.827,109.222 116.888 C 109.320 116.950,110.764 115.605,112.432 113.900 C 114.099 112.195,115.355 110.800,115.222 110.800 C 115.089 110.800,113.644 112.145,112.012 113.788 M274.845 110.900 C 274.943 110.955,276.458 112.350,278.211 114.000 L 281.400 117.000 278.410 113.900 C 276.766 112.195,275.251 110.800,275.043 110.800 C 274.836 110.800,274.747 110.845,274.845 110.900 M284.282 120.734 C 285.557 122.238,286.664 123.418,286.743 123.357 C 286.954 123.195,282.656 118.058,282.282 118.027 C 282.107 118.012,283.007 119.230,284.282 120.734 M104.200 122.400 C 103.568 123.060,103.219 123.590,103.425 123.578 C 103.778 123.557,105.839 121.200,105.505 121.200 C 105.420 121.200,104.832 121.740,104.200 122.400 M102.344 124.700 C 101.193 126.089,100.706 126.800,100.904 126.800 C 101.014 126.800,101.586 126.170,102.173 125.400 C 103.263 123.971,103.395 123.432,102.344 124.700 M287.991 125.188 C 288.457 125.841,289.042 126.502,289.291 126.656 C 289.541 126.811,289.241 126.276,288.625 125.468 C 287.288 123.715,286.784 123.492,287.991 125.188 M99.919 127.900 C 99.307 128.608,95.619 134.094,95.012 135.200 C 94.229 136.626,95.644 134.754,98.111 131.100 C 100.689 127.280,101.133 126.496,99.919 127.900 M290.496 128.595 C 290.993 129.362,291.544 129.992,291.720 129.995 C 291.897 129.998,291.560 129.370,290.973 128.600 C 289.600 126.800,289.332 126.797,290.496 128.595 M133.045 128.328 C 132.933 128.508,133.373 128.577,134.021 128.482 C 134.670 128.387,135.200 128.240,135.200 128.155 C 135.200 127.850,133.243 128.007,133.045 128.328 M136.433 128.144 C 136.525 128.223,137.590 128.389,138.800 128.512 C 140.169 128.651,140.698 128.608,140.200 128.396 C 139.433 128.070,136.089 127.847,136.433 128.144 M249.800 128.410 C 249.266 128.647,249.598 128.686,250.800 128.527 C 251.790 128.396,252.675 128.224,252.767 128.144 C 253.114 127.843,250.564 128.072,249.800 128.410 M256.711 128.623 C 257.200 128.965,257.600 129.535,257.600 129.889 C 257.600 130.244,257.720 130.413,257.867 130.266 C 258.290 129.843,257.132 128.000,256.443 128.000 C 255.996 128.000,256.071 128.174,256.711 128.623 M259.044 134.600 C 259.373 136.071,259.602 136.390,259.594 135.367 C 259.591 134.945,259.405 134.330,259.182 134.000 C 258.885 133.562,258.848 133.724,259.044 134.600 M294.409 134.300 C 294.414 134.465,294.785 135.050,295.233 135.600 L 296.048 136.600 295.414 135.300 C 294.811 134.065,294.389 133.645,294.409 134.300 M156.000 134.579 C 156.000 134.689,156.540 135.059,157.200 135.400 C 157.860 135.741,158.400 135.931,158.400 135.821 C 158.400 135.711,157.860 135.341,157.200 135.000 C 156.540 134.659,156.000 134.469,156.000 134.579 M159.600 136.764 C 160.150 137.214,160.780 137.583,161.000 137.585 C 161.428 137.588,160.705 137.034,159.400 136.360 C 158.869 136.085,158.936 136.221,159.600 136.764 M190.900 136.698 C 193.265 136.769,197.135 136.769,199.500 136.698 C 201.865 136.628,199.930 136.570,195.200 136.570 C 190.470 136.570,188.535 136.628,190.900 136.698 M183.300 137.076 C 183.685 137.176,184.315 137.176,184.700 137.076 C 185.085 136.975,184.770 136.893,184.000 136.893 C 183.230 136.893,182.915 136.975,183.300 137.076 M205.700 137.076 C 206.085 137.176,206.715 137.176,207.100 137.076 C 207.485 136.975,207.170 136.893,206.400 136.893 C 205.630 136.893,205.315 136.975,205.700 137.076 M227.595 138.254 C 225.212 139.831,223.849 141.010,225.800 139.806 C 229.075 137.783,230.415 136.800,229.895 136.800 C 229.837 136.800,228.802 137.454,227.595 138.254 M259.882 138.600 C 260.009 139.700,260.177 140.675,260.256 140.767 C 260.555 141.114,260.328 138.164,259.997 137.400 C 259.774 136.885,259.733 137.313,259.882 138.600 M93.053 138.500 L 92.333 139.800 93.158 138.800 C 93.889 137.913,94.214 137.200,93.886 137.200 C 93.824 137.200,93.449 137.785,93.053 138.500 M179.900 137.482 C 180.395 137.578,181.205 137.578,181.700 137.482 C 182.195 137.387,181.790 137.309,180.800 137.309 C 179.810 137.309,179.405 137.387,179.900 137.482 M208.700 137.482 C 209.195 137.578,210.005 137.578,210.500 137.482 C 210.995 137.387,210.590 137.309,209.600 137.309 C 208.610 137.309,208.205 137.387,208.700 137.482 M174.900 138.276 C 175.285 138.376,175.915 138.376,176.300 138.276 C 176.685 138.175,176.370 138.093,175.600 138.093 C 174.830 138.093,174.515 138.175,174.900 138.276 M214.100 138.276 C 214.485 138.376,215.115 138.376,215.500 138.276 C 215.885 138.175,215.570 138.093,214.800 138.093 C 214.030 138.093,213.715 138.175,214.100 138.276 M129.876 139.210 C 129.730 139.755,129.628 140.740,129.649 141.400 C 129.680 142.357,129.759 142.236,130.042 140.800 C 130.429 138.833,130.302 137.617,129.876 139.210 M162.800 138.521 C 162.800 138.947,165.514 140.399,166.247 140.366 C 166.785 140.341,166.705 140.242,165.965 140.018 C 165.396 139.845,164.451 139.390,163.865 139.006 C 163.279 138.622,162.800 138.404,162.800 138.521 M218.033 138.947 C 218.125 139.028,218.920 139.204,219.800 139.338 C 220.915 139.507,221.158 139.471,220.600 139.219 C 219.832 138.871,217.690 138.644,218.033 138.947 M222.400 140.000 C 223.768 140.438,224.819 140.438,223.800 140.000 C 223.360 139.811,222.640 139.662,222.200 139.668 C 221.557 139.677,221.596 139.743,222.400 140.000 M260.550 145.800 C 260.551 148.220,260.616 149.158,260.696 147.885 C 260.776 146.612,260.775 144.632,260.694 143.485 C 260.614 142.338,260.549 143.380,260.550 145.800 M302.207 148.679 C 302.807 150.114,303.200 150.762,303.200 150.316 C 303.200 149.884,301.985 147.200,301.789 147.200 C 301.679 147.200,301.867 147.866,302.207 148.679 M129.628 150.833 C 129.644 151.585,129.812 152.560,130.003 153.000 C 130.226 153.515,130.267 153.087,130.118 151.800 C 129.844 149.422,129.589 148.919,129.628 150.833 M260.059 152.200 C 260.020 152.860,259.896 153.850,259.783 154.400 L 259.577 155.400 260.008 154.414 C 260.244 153.872,260.368 152.882,260.283 152.214 L 260.128 151.000 260.059 152.200 M303.614 151.654 C 303.606 151.794,303.863 152.514,304.184 153.254 C 304.506 153.994,304.769 154.330,304.770 154.000 C 304.772 153.424,303.643 151.134,303.614 151.654 M259.246 156.067 C 259.221 156.434,259.096 157.064,258.970 157.467 C 258.752 158.162,258.763 158.163,259.197 157.487 C 259.448 157.096,259.573 156.466,259.473 156.087 C 259.311 155.468,259.288 155.466,259.246 156.067 M131.356 159.078 C 131.382 159.852,131.545 160.213,131.767 159.991 C 131.990 159.770,131.972 159.267,131.723 158.713 C 131.340 157.863,131.314 157.888,131.356 159.078 M258.446 159.033 C 258.421 159.492,259.043 160.572,259.829 161.433 L 261.258 163.000 260.064 161.400 C 259.407 160.520,258.785 159.440,258.681 159.000 C 258.499 158.228,258.491 158.229,258.446 159.033 M262.000 164.400 C 262.470 165.060,262.944 165.600,263.054 165.600 C 263.164 165.600,262.870 165.060,262.400 164.400 C 261.930 163.740,261.456 163.200,261.346 163.200 C 261.236 163.200,261.530 163.740,262.000 164.400 M263.800 167.200 C 264.141 167.860,264.511 168.400,264.621 168.400 C 264.731 168.400,264.541 167.860,264.200 167.200 C 263.859 166.540,263.489 166.000,263.379 166.000 C 263.269 166.000,263.459 166.540,263.800 167.200 M80.600 169.200 C 80.448 169.891,80.407 170.541,80.509 170.642 C 80.611 170.744,80.809 170.253,80.950 169.550 C 81.283 167.883,80.960 167.560,80.600 169.200 M309.268 168.600 C 309.262 169.040,309.411 169.760,309.600 170.200 C 310.038 171.219,310.038 170.168,309.600 168.800 C 309.343 167.996,309.277 167.957,309.268 168.600 M310.068 172.200 C 310.062 172.640,310.211 173.360,310.400 173.800 C 310.838 174.819,310.838 173.768,310.400 172.400 C 310.143 171.596,310.077 171.557,310.068 172.200 M310.828 176.433 C 310.844 176.965,311.019 177.760,311.219 178.200 C 311.471 178.758,311.507 178.515,311.338 177.400 C 311.055 175.543,310.787 175.036,310.828 176.433 M121.264 178.344 C 121.009 179.196,120.812 180.232,120.826 180.646 C 120.841 181.061,121.114 180.428,121.433 179.240 C 122.101 176.758,121.961 176.018,121.264 178.344 M78.893 178.400 C 78.893 179.170,78.975 179.485,79.076 179.100 C 79.176 178.715,79.176 178.085,79.076 177.700 C 78.975 177.315,78.893 177.630,78.893 178.400 M268.856 179.200 C 268.856 179.530,269.011 180.160,269.200 180.600 C 269.417 181.104,269.544 181.178,269.544 180.800 C 269.544 180.470,269.389 179.840,269.200 179.400 C 268.983 178.896,268.856 178.822,268.856 179.200 M311.693 181.400 C 311.694 182.060,311.832 183.140,312.000 183.800 C 312.423 185.463,312.442 183.826,312.023 181.800 C 311.745 180.455,311.692 180.391,311.693 181.400 M78.114 184.200 C 78.117 185.300,78.195 185.703,78.287 185.095 C 78.379 184.486,78.377 183.586,78.282 183.095 C 78.187 182.603,78.111 183.100,78.114 184.200 M269.872 184.200 C 269.999 185.300,270.169 186.275,270.251 186.367 C 270.532 186.682,270.320 184.199,269.980 183.200 C 269.751 182.526,269.716 182.851,269.872 184.200 M120.109 184.800 C 120.109 185.790,120.187 186.195,120.282 185.700 C 120.378 185.205,120.378 184.395,120.282 183.900 C 120.187 183.405,120.109 183.810,120.109 184.800 M77.693 188.000 C 77.693 188.770,77.775 189.085,77.876 188.700 C 77.976 188.315,77.976 187.685,77.876 187.300 C 77.775 186.915,77.693 187.230,77.693 188.000 M119.755 191.800 C 119.756 194.660,119.820 195.778,119.897 194.283 C 119.974 192.789,119.974 190.449,119.896 189.083 C 119.818 187.718,119.755 188.940,119.755 191.800 M312.600 197.400 C 312.600 202.900,312.714 206.230,312.853 204.800 C 313.176 201.486,313.175 193.827,312.850 190.200 C 312.713 188.660,312.600 191.900,312.600 197.400 M77.363 197.600 C 77.363 201.230,77.423 202.715,77.498 200.900 C 77.572 199.085,77.572 196.115,77.498 194.300 C 77.423 192.485,77.363 193.970,77.363 197.600 M120.128 200.000 C 120.128 201.430,120.201 202.015,120.289 201.300 C 120.378 200.585,120.378 199.415,120.289 198.700 C 120.201 197.985,120.128 198.570,120.128 200.000 M270.063 198.800 C 270.023 199.570,269.906 200.920,269.802 201.800 L 269.612 203.400 270.023 201.800 C 270.248 200.920,270.366 199.570,270.284 198.800 L 270.134 197.400 270.063 198.800 M120.893 206.400 C 120.893 207.170,120.975 207.485,121.076 207.100 C 121.176 206.715,121.176 206.085,121.076 205.700 C 120.975 205.315,120.893 205.630,120.893 206.400 M269.050 206.450 C 268.909 207.153,268.869 207.802,268.959 207.892 C 269.050 207.983,269.248 207.491,269.400 206.800 C 269.552 206.109,269.593 205.459,269.491 205.358 C 269.389 205.256,269.191 205.747,269.050 206.450 M77.701 207.000 C 77.705 207.880,77.787 208.193,77.883 207.695 C 77.979 207.198,77.975 206.478,77.875 206.095 C 77.775 205.713,77.696 206.120,77.701 207.000 M78.120 210.800 C 78.120 212.010,78.195 212.505,78.287 211.900 C 78.378 211.295,78.378 210.305,78.287 209.700 C 78.195 209.095,78.120 209.590,78.120 210.800 M311.869 211.556 C 311.721 212.295,311.620 213.282,311.644 213.750 C 311.668 214.218,311.847 213.790,312.042 212.800 C 312.237 211.810,312.338 210.823,312.267 210.606 C 312.196 210.390,312.017 210.817,311.869 211.556 M122.406 213.433 C 122.409 213.855,122.595 214.470,122.818 214.800 C 123.115 215.238,123.152 215.076,122.956 214.200 C 122.627 212.729,122.398 212.410,122.406 213.433 M78.893 216.800 C 78.893 217.570,78.975 217.885,79.076 217.500 C 79.176 217.115,79.176 216.485,79.076 216.100 C 78.975 215.715,78.893 216.030,78.893 216.800 M311.056 216.884 C 310.921 217.388,310.827 218.160,310.846 218.600 C 310.865 219.040,311.045 218.698,311.246 217.840 C 311.636 216.178,311.470 215.340,311.056 216.884 M310.249 221.415 C 310.112 221.773,310.015 222.366,310.034 222.733 C 310.053 223.100,310.227 222.869,310.421 222.220 C 310.798 220.958,310.665 220.333,310.249 221.415 M80.468 224.600 C 80.462 225.040,80.611 225.760,80.800 226.200 C 81.238 227.219,81.238 226.168,80.800 224.800 C 80.543 223.996,80.477 223.957,80.468 224.600 M309.449 225.015 C 309.312 225.373,309.215 225.966,309.234 226.333 C 309.253 226.700,309.427 226.469,309.621 225.820 C 309.998 224.558,309.865 223.933,309.449 225.015 M128.016 226.309 C 128.534 227.250,129.299 228.328,129.717 228.705 C 130.134 229.083,129.811 228.404,129.000 227.196 C 127.134 224.417,126.817 224.132,128.016 226.309 M260.823 227.900 C 260.091 228.945,259.831 229.497,260.246 229.127 C 260.971 228.480,262.599 226.000,262.300 226.000 C 262.220 226.000,261.555 226.855,260.823 227.900 M308.649 227.815 C 308.512 228.173,308.415 228.766,308.434 229.133 C 308.453 229.500,308.627 229.269,308.821 228.620 C 309.198 227.358,309.065 226.733,308.649 227.815 M130.799 230.200 C 131.744 231.566,136.138 236.018,137.400 236.886 C 138.060 237.340,137.664 236.870,136.520 235.842 C 135.376 234.814,133.496 232.944,132.343 231.686 C 131.190 230.429,130.495 229.760,130.799 230.200 M258.200 231.200 C 257.568 231.860,257.219 232.390,257.425 232.378 C 257.778 232.357,259.839 230.000,259.505 230.000 C 259.420 230.000,258.832 230.540,258.200 231.200 M255.854 233.833 C 255.223 234.387,254.787 234.920,254.883 235.016 C 254.979 235.113,255.574 234.654,256.204 233.996 C 257.596 232.543,257.416 232.459,255.854 233.833 M252.400 236.868 C 251.352 237.820,251.101 238.165,251.800 237.695 C 252.904 236.951,254.738 235.177,254.362 235.217 C 254.273 235.226,253.390 235.970,252.400 236.868 M138.807 237.917 C 138.815 238.240,142.814 240.925,142.994 240.728 C 143.058 240.658,142.141 239.933,140.955 239.117 C 139.770 238.302,138.803 237.762,138.807 237.917 M304.713 240.181 C 304.342 241.181,304.117 242.000,304.214 242.000 C 304.493 242.000,305.631 239.094,305.503 238.709 C 305.439 238.518,305.084 239.180,304.713 240.181 M246.600 240.800 C 245.940 241.237,245.580 241.592,245.800 241.588 C 246.201 241.582,248.376 240.023,248.000 240.012 C 247.890 240.008,247.260 240.363,246.600 240.800 M241.800 243.178 C 240.920 243.595,240.313 243.950,240.451 243.968 C 240.840 244.018,243.600 242.814,243.600 242.595 C 243.600 242.327,243.599 242.327,241.800 243.178 M112.000 243.171 C 111.312 243.371,111.750 243.462,113.400 243.462 C 115.050 243.462,115.488 243.371,114.800 243.171 C 114.250 243.011,113.620 242.880,113.400 242.880 C 113.180 242.880,112.550 243.011,112.000 243.171 M151.400 244.771 C 152.280 245.194,153.270 245.547,153.600 245.555 C 154.286 245.571,152.239 244.627,150.774 244.251 C 150.238 244.114,150.520 244.348,151.400 244.771 M237.000 245.014 C 235.385 245.754,236.351 245.755,238.054 245.016 C 238.794 244.694,239.130 244.439,238.800 244.448 C 238.470 244.457,237.660 244.712,237.000 245.014 M302.465 245.417 C 301.795 246.888,301.923 247.202,302.647 245.865 C 302.986 245.240,303.188 244.654,303.096 244.563 C 303.005 244.471,302.721 244.856,302.465 245.417 M154.800 245.941 C 155.130 246.134,155.940 246.409,156.600 246.552 C 157.368 246.718,157.584 246.684,157.200 246.459 C 156.870 246.266,156.060 245.991,155.400 245.848 C 154.632 245.682,154.416 245.716,154.800 245.941 M118.943 247.405 C 118.685 248.078,119.448 249.207,120.149 249.188 C 120.397 249.181,120.285 248.992,119.900 248.768 C 118.798 248.126,119.004 247.069,120.188 247.296 C 120.731 247.399,121.081 247.330,120.964 247.142 C 120.613 246.573,119.191 246.758,118.943 247.405 M125.955 248.631 C 126.936 249.528,128.539 251.148,129.517 252.231 C 130.916 253.780,131.037 253.859,130.082 252.600 C 128.871 251.004,126.528 248.699,124.986 247.587 C 124.539 247.264,124.975 247.734,125.955 248.631 M229.400 247.200 C 228.381 247.638,229.432 247.638,230.800 247.200 C 231.604 246.943,231.643 246.877,231.000 246.868 C 230.560 246.862,229.840 247.011,229.400 247.200 M162.400 248.000 C 163.768 248.438,164.819 248.438,163.800 248.000 C 163.360 247.811,162.640 247.662,162.200 247.668 C 161.557 247.677,161.596 247.743,162.400 248.000 M225.800 248.019 C 225.242 248.271,225.485 248.307,226.600 248.138 C 227.480 248.004,228.275 247.828,228.367 247.747 C 228.710 247.444,226.568 247.671,225.800 248.019 M166.600 248.800 C 168.292 249.231,169.744 249.231,168.400 248.800 C 167.850 248.624,166.950 248.483,166.400 248.487 C 165.502 248.494,165.522 248.526,166.600 248.800 M221.000 248.800 C 219.930 249.072,219.908 249.105,220.800 249.105 C 221.350 249.105,222.340 248.968,223.000 248.800 C 224.070 248.528,224.092 248.495,223.200 248.495 C 222.650 248.495,221.660 248.632,221.000 248.800 M111.364 249.542 C 111.531 249.812,112.417 250.506,113.334 251.084 C 114.250 251.662,116.080 253.134,117.400 254.356 L 119.800 256.576 117.810 254.483 C 115.912 252.487,110.728 248.513,111.364 249.542 M171.500 249.482 C 171.995 249.578,172.400 249.834,172.400 250.051 C 172.400 250.269,172.583 250.334,172.807 250.196 C 173.497 249.769,172.810 249.197,171.676 249.254 C 170.734 249.302,170.712 249.330,171.500 249.482 M217.213 249.700 C 217.227 250.263,219.002 252.400,219.456 252.400 C 219.617 252.400,219.224 251.851,218.582 251.181 C 217.607 250.163,217.512 249.900,218.007 249.587 C 218.508 249.271,218.491 249.211,217.900 249.206 C 217.515 249.203,217.206 249.425,217.213 249.700 M90.600 252.000 C 90.941 252.660,91.311 253.200,91.421 253.200 C 91.531 253.200,91.341 252.660,91.000 252.000 C 90.659 251.340,90.289 250.800,90.179 250.800 C 90.069 250.800,90.259 251.340,90.600 252.000 M124.016 251.381 C 123.047 252.549,124.787 254.798,126.231 254.243 C 127.036 253.935,126.937 252.248,126.069 251.462 C 125.168 250.647,124.642 250.627,124.016 251.381 M125.920 251.680 C 126.592 252.352,126.527 254.000,125.829 254.000 C 125.122 254.000,124.000 252.919,124.000 252.238 C 124.000 251.170,125.092 250.852,125.920 251.680 M220.186 253.900 C 220.535 254.615,220.906 255.200,221.010 255.200 C 221.408 255.200,221.152 254.563,220.367 253.600 L 219.552 252.600 220.186 253.900 M92.760 255.800 C 93.434 257.105,93.988 257.828,93.985 257.400 C 93.983 257.180,93.614 256.550,93.164 256.000 C 92.621 255.336,92.485 255.269,92.760 255.800 M94.213 258.400 C 95.032 259.884,100.016 267.163,100.359 267.375 C 100.758 267.621,94.982 258.901,94.282 258.200 C 94.016 257.934,93.993 258.001,94.213 258.400 M131.356 259.722 C 131.314 260.912,131.340 260.937,131.723 260.087 C 131.972 259.533,131.990 259.030,131.767 258.809 C 131.545 258.587,131.382 258.948,131.356 259.722 M295.108 259.300 C 294.233 260.649,293.448 262.256,293.887 261.800 C 294.448 261.217,296.098 258.400,295.879 258.400 C 295.776 258.400,295.429 258.805,295.108 259.300 M135.262 260.300 C 135.770 260.905,136.909 262.020,137.793 262.778 C 138.772 263.617,138.467 263.187,137.013 261.678 C 134.502 259.072,133.705 258.445,135.262 260.300 M166.629 261.029 C 166.481 261.615,166.438 262.172,166.532 262.266 C 166.627 262.360,166.824 261.958,166.971 261.371 C 167.119 260.785,167.162 260.228,167.068 260.134 C 166.973 260.040,166.776 260.442,166.629 261.029 M223.882 264.421 C 224.008 265.399,224.175 266.275,224.255 266.367 C 224.581 266.742,224.360 263.755,224.021 263.221 C 223.784 262.846,223.735 263.270,223.882 264.421 M133.990 264.212 C 133.321 265.018,133.979 266.506,135.422 267.451 C 137.523 268.828,138.883 266.446,137.045 264.609 C 135.901 263.464,134.736 263.313,133.990 264.212 M136.800 264.800 C 137.730 265.730,137.852 267.128,137.031 267.443 C 135.773 267.926,133.674 265.827,134.157 264.569 C 134.472 263.748,135.870 263.870,136.800 264.800 M290.492 266.229 C 289.997 266.983,289.672 267.600,289.769 267.600 C 290.047 267.600,291.704 265.171,291.539 265.006 C 291.457 264.924,290.986 265.474,290.492 266.229 M125.600 267.353 C 125.600 267.782,126.790 270.000,127.021 270.000 C 127.131 270.000,126.923 269.415,126.559 268.700 C 125.817 267.240,125.600 266.936,125.600 267.353 M146.800 267.582 C 147.130 267.805,147.745 267.991,148.167 267.994 C 149.190 268.002,148.871 267.773,147.400 267.444 C 146.524 267.248,146.362 267.285,146.800 267.582 M157.600 267.600 C 156.796 267.857,156.757 267.923,157.400 267.932 C 157.840 267.938,158.560 267.789,159.000 267.600 C 160.019 267.162,158.968 267.162,157.600 267.600 M101.540 269.116 C 102.033 269.809,102.644 270.504,102.897 270.660 C 103.150 270.817,102.954 270.377,102.460 269.684 C 101.967 268.991,101.356 268.296,101.103 268.140 C 100.850 267.983,101.046 268.423,101.540 269.116 M151.507 268.290 C 152.226 268.379,153.306 268.377,153.907 268.286 C 154.508 268.195,153.920 268.122,152.600 268.124 C 151.280 268.126,150.788 268.201,151.507 268.290 M287.775 269.868 C 287.159 270.676,286.859 271.211,287.109 271.056 C 287.621 270.740,289.353 268.400,289.075 268.400 C 288.976 268.400,288.391 269.061,287.775 269.868 M142.080 269.280 C 141.498 269.862,141.458 270.665,141.995 270.997 C 142.223 271.138,142.289 270.976,142.151 270.616 C 142.019 270.271,142.133 269.722,142.404 269.395 C 142.995 268.683,142.760 268.600,142.080 269.280 M145.160 269.556 C 145.835 270.075,146.054 270.549,145.898 271.148 C 145.775 271.617,145.838 271.900,146.037 271.777 C 146.956 271.209,145.754 268.780,144.569 268.809 C 144.366 268.814,144.632 269.150,145.160 269.556 M224.580 282.800 C 224.580 290.610,224.634 293.805,224.699 289.900 C 224.765 285.995,224.765 279.605,224.699 275.700 C 224.634 271.795,224.580 274.990,224.580 282.800 M162.100 269.476 C 162.485 269.576,163.115 269.576,163.500 269.476 C 163.885 269.375,163.570 269.293,162.800 269.293 C 162.030 269.293,161.715 269.375,162.100 269.476 M127.200 270.648 C 127.200 270.858,127.753 271.653,128.429 272.415 L 129.658 273.800 128.545 272.200 C 127.933 271.320,127.380 270.525,127.316 270.433 C 127.252 270.342,127.200 270.438,127.200 270.648 M151.680 270.880 C 150.431 272.129,151.486 273.600,153.631 273.600 C 154.556 273.600,155.306 273.340,155.651 272.900 C 156.144 272.272,156.131 272.254,155.528 272.726 C 154.504 273.527,151.841 273.183,151.660 272.226 C 151.579 271.801,151.837 271.216,152.233 270.926 C 152.629 270.637,152.775 270.400,152.556 270.400 C 152.338 270.400,151.944 270.616,151.680 270.880 M143.200 271.982 C 143.530 272.205,144.145 272.391,144.567 272.394 C 145.590 272.402,145.271 272.173,143.800 271.844 C 142.924 271.648,142.762 271.685,143.200 271.982 M284.549 273.884 C 283.477 275.140,282.809 276.039,283.064 275.883 C 283.623 275.539,286.954 271.600,286.686 271.600 C 286.582 271.600,285.620 272.628,284.549 273.884 M105.600 274.125 C 105.600 274.194,106.185 274.779,106.900 275.425 L 108.200 276.600 107.025 275.300 C 105.930 274.088,105.600 273.816,105.600 274.125 M110.400 279.345 C 111.830 280.839,114.260 283.160,115.800 284.503 C 119.123 287.400,117.779 286.012,112.000 280.578 C 109.182 277.927,108.655 277.522,110.400 279.345 M278.097 280.723 C 276.721 282.156,275.651 283.384,275.719 283.453 C 275.788 283.521,277.089 282.322,278.611 280.789 C 280.133 279.255,281.203 278.027,280.989 278.059 C 280.775 278.092,279.474 279.290,278.097 280.723 M144.200 282.400 C 144.640 282.589,145.360 282.738,145.800 282.732 C 146.443 282.723,146.404 282.657,145.600 282.400 C 144.232 281.962,143.181 281.962,144.200 282.400 M161.600 282.400 C 160.256 282.831,161.708 282.831,163.400 282.400 C 164.478 282.126,164.498 282.094,163.600 282.087 C 163.050 282.083,162.150 282.224,161.600 282.400 M150.000 283.207 C 151.210 283.344,153.730 283.341,155.600 283.198 C 158.570 282.972,158.292 282.940,153.400 282.948 C 149.778 282.953,148.577 283.044,150.000 283.207 M273.362 285.243 C 272.943 285.707,271.025 287.343,269.100 288.879 C 267.175 290.414,265.600 291.757,265.600 291.862 C 265.600 292.159,270.306 288.413,272.568 286.315 C 273.686 285.279,274.493 284.424,274.362 284.415 C 274.231 284.407,273.781 284.779,273.362 285.243 M120.860 288.991 C 122.037 289.977,123.142 290.787,123.316 290.791 C 123.489 290.796,122.637 289.990,121.421 289.000 C 120.206 288.010,119.101 287.200,118.966 287.200 C 118.831 287.200,119.683 288.006,120.860 288.991 M125.200 292.143 C 125.200 292.243,126.119 292.985,127.242 293.792 C 128.365 294.599,129.165 295.068,129.021 294.834 C 128.720 294.348,125.200 291.868,125.200 292.143 M165.762 298.200 C 165.762 301.720,165.824 303.106,165.898 301.281 C 165.972 299.456,165.972 296.576,165.897 294.881 C 165.822 293.186,165.761 294.680,165.762 298.200 M263.611 293.020 C 262.847 293.559,262.397 293.999,262.611 293.998 C 262.825 293.997,263.540 293.553,264.200 293.012 C 265.741 291.749,265.405 291.753,263.611 293.020 M260.900 294.888 C 260.405 295.127,260.000 295.479,260.000 295.670 C 260.000 295.862,260.450 295.724,261.000 295.363 C 262.467 294.402,262.416 294.157,260.900 294.888 M130.366 295.885 C 131.790 296.940,134.400 298.474,134.400 298.257 C 134.400 298.041,130.405 295.460,129.800 295.285 C 129.580 295.221,129.835 295.491,130.366 295.885 M134.800 298.579 C 134.800 298.689,135.340 299.059,136.000 299.400 C 136.660 299.741,137.200 299.931,137.200 299.821 C 137.200 299.711,136.660 299.341,136.000 299.000 C 135.340 298.659,134.800 298.469,134.800 298.579 M254.300 299.029 C 252.805 299.840,252.896 300.178,254.400 299.400 C 255.060 299.059,255.600 298.694,255.600 298.590 C 255.600 298.332,255.557 298.347,254.300 299.029 M137.600 300.179 C 137.600 300.289,138.140 300.659,138.800 301.000 C 139.460 301.341,140.000 301.531,140.000 301.421 C 140.000 301.311,139.460 300.941,138.800 300.600 C 138.140 300.259,137.600 300.069,137.600 300.179 M250.300 301.226 C 249.035 301.879,248.000 302.503,248.000 302.612 C 248.000 302.722,249.080 302.266,250.400 301.600 C 251.720 300.934,252.800 300.301,252.800 300.194 C 252.800 299.928,252.874 299.897,250.300 301.226 M245.200 303.800 C 244.210 304.330,243.580 304.764,243.800 304.764 C 244.020 304.764,245.010 304.330,246.000 303.800 C 246.990 303.270,247.620 302.836,247.400 302.836 C 247.180 302.836,246.190 303.270,245.200 303.800 M145.200 304.200 C 145.750 304.514,146.380 304.772,146.600 304.772 C 146.820 304.772,146.550 304.514,146.000 304.200 C 145.450 303.886,144.820 303.628,144.600 303.628 C 144.380 303.628,144.650 303.886,145.200 304.200 M224.468 304.200 C 224.462 304.640,224.611 305.360,224.800 305.800 C 225.238 306.819,225.238 305.768,224.800 304.400 C 224.543 303.596,224.477 303.557,224.468 304.200 M241.333 305.522 C 240.416 305.895,239.516 306.351,239.333 306.536 C 238.912 306.960,242.466 305.599,242.980 305.140 C 243.493 304.681,243.280 304.731,241.333 305.522 M164.492 307.029 C 163.997 307.783,163.672 308.400,163.769 308.400 C 164.047 308.400,165.704 305.971,165.539 305.806 C 165.457 305.724,164.986 306.274,164.492 307.029 M226.487 308.100 C 227.106 308.705,227.835 309.195,228.106 309.188 C 228.378 309.181,228.240 308.977,227.800 308.733 C 227.360 308.490,226.631 308.000,226.181 307.645 C 225.730 307.290,225.868 307.495,226.487 308.100 " stroke="none" fill="#949497" fill-rule="evenodd"></path><path id="path4" d="M253.500 128.282 C 253.995 128.378,254.805 128.378,255.300 128.282 C 255.795 128.187,255.390 128.109,254.400 128.109 C 253.410 128.109,253.005 128.187,253.500 128.282 M165.754 287.200 C 165.754 289.950,165.818 291.075,165.896 289.700 C 165.974 288.325,165.974 286.075,165.896 284.700 C 165.818 283.325,165.754 284.450,165.754 287.200 " stroke="none" fill="#8c8c94" fill-rule="evenodd"></path></g></svg>