<svg id="svg" version="1.1" xmlns="http://www.w3.org/2000/svg" xmlns:xlink="http://www.w3.org/1999/xlink" width="400" height="400" viewBox="0, 0, 400,400"><g id="svgg"><path id="path0" d="M95.600 45.000 L 95.600 70.000 104.600 70.000 L 113.600 70.000 113.600 61.800 L 113.600 53.600 120.200 53.600 L 126.800 53.600 126.800 61.800 L 126.800 70.000 135.400 70.000 L 144.000 70.000 144.000 45.000 L 144.000 20.000 135.400 20.000 L 126.800 20.000 126.800 28.200 L 126.800 36.400 120.200 36.400 L 113.600 36.400 113.600 28.200 L 113.600 20.000 104.600 20.000 L 95.600 20.000 95.600 45.000 M149.600 28.520 C 149.600 38.963,148.799 38.000,157.480 38.000 L 164.400 38.000 164.400 54.000 L 164.400 70.000 173.000 70.000 L 181.600 70.000 181.600 54.000 L 181.600 38.000 188.520 38.000 C 197.201 38.000,196.400 38.963,196.400 28.520 L 196.400 20.000 173.000 20.000 L 149.600 20.000 149.600 28.520 M202.000 45.000 L 202.000 70.000 210.600 70.000 L 219.200 70.000 219.200 59.400 C 219.200 52.600,219.343 48.800,219.600 48.800 C 219.820 48.800,220.000 49.120,220.000 49.512 C 220.000 49.903,220.360 50.483,220.800 50.800 C 221.240 51.117,221.600 51.657,221.600 52.000 C 221.600 52.343,221.960 52.883,222.400 53.200 C 222.840 53.517,223.200 54.031,223.200 54.341 C 223.200 54.652,223.515 55.197,223.900 55.553 C 224.285 55.909,224.960 56.920,225.399 57.800 C 225.839 58.680,226.424 59.638,226.699 59.929 C 226.975 60.219,227.200 60.597,227.200 60.767 C 227.200 61.469,228.755 62.800,229.575 62.800 C 230.563 62.800,231.600 61.938,231.600 61.117 C 231.600 60.820,231.960 60.317,232.400 60.000 C 232.840 59.683,233.200 59.143,233.200 58.800 C 233.200 58.457,233.560 57.917,234.000 57.600 C 234.440 57.283,234.800 56.793,234.800 56.512 C 234.800 56.230,234.980 56.000,235.200 56.000 C 235.420 56.000,235.600 55.680,235.600 55.288 C 235.600 54.897,235.960 54.317,236.400 54.000 C 236.840 53.683,237.200 53.103,237.200 52.712 C 237.200 52.320,237.350 52.000,237.532 52.000 C 237.715 52.000,238.120 51.505,238.432 50.900 C 240.349 47.185,240.400 47.398,240.400 59.125 L 240.400 70.000 249.000 70.000 L 257.600 70.000 257.600 45.000 L 257.600 20.000 248.782 20.000 L 239.964 20.000 238.982 20.982 C 238.442 21.522,238.000 22.242,238.000 22.582 C 238.000 22.922,237.820 23.200,237.600 23.200 C 237.380 23.200,237.200 23.520,237.200 23.912 C 237.200 24.303,236.840 24.883,236.400 25.200 C 235.960 25.517,235.600 26.007,235.600 26.288 C 235.600 26.570,235.420 26.800,235.200 26.800 C 234.980 26.800,234.800 27.078,234.800 27.417 C 234.800 27.756,234.440 28.420,234.000 28.892 C 233.560 29.364,233.200 29.987,233.200 30.275 C 233.200 30.564,233.020 30.800,232.800 30.800 C 232.580 30.800,232.400 31.036,232.400 31.325 C 232.400 31.613,232.040 32.236,231.600 32.708 C 231.160 33.180,230.800 33.767,230.800 34.012 C 230.800 35.816,228.459 35.510,228.413 33.700 C 228.406 33.425,228.220 33.200,228.000 33.200 C 227.780 33.200,227.600 32.880,227.600 32.488 C 227.600 32.097,227.240 31.517,226.800 31.200 C 226.360 30.883,226.000 30.303,226.000 29.912 C 226.000 29.520,225.820 29.200,225.600 29.200 C 225.380 29.200,225.200 29.033,225.200 28.829 C 225.200 28.336,222.299 23.438,221.906 23.267 C 221.738 23.193,221.600 22.880,221.600 22.570 C 221.600 22.260,221.208 21.555,220.728 21.003 L 219.856 20.000 210.928 20.000 L 202.000 20.000 202.000 45.000 M264.400 44.996 L 264.400 70.007 284.700 69.904 L 305.000 69.800 305.108 61.300 L 305.216 52.800 293.812 52.800 L 282.409 52.800 282.304 36.500 L 282.200 20.200 273.300 20.092 L 264.400 19.985 264.400 44.996 M75.314 131.400 C 75.317 132.500,75.395 132.903,75.487 132.295 C 75.579 131.686,75.577 130.786,75.482 130.295 C 75.387 129.803,75.311 130.300,75.314 131.400 M324.514 131.400 C 324.517 132.500,324.595 132.903,324.687 132.295 C 324.779 131.686,324.777 130.786,324.682 130.295 C 324.587 129.803,324.511 130.300,324.514 131.400 M91.487 311.666 C 91.729 314.597,91.932 314.995,91.962 312.600 C 91.976 311.500,91.835 310.360,91.649 310.066 C 91.451 309.754,91.384 310.418,91.487 311.666 M308.124 311.800 C 308.126 313.120,308.201 313.612,308.290 312.893 C 308.379 312.174,308.377 311.094,308.286 310.493 C 308.195 309.892,308.122 310.480,308.124 311.800 " stroke="none" fill="#040404" fill-rule="evenodd"></path><path id="path1" d="M72.400 94.967 C 72.400 97.478,72.570 99.593,72.777 99.667 C 72.984 99.740,73.185 101.600,73.224 103.800 C 73.263 106.000,73.444 107.987,73.626 108.216 C 73.809 108.444,73.989 110.514,74.027 112.816 C 74.065 115.117,74.237 117.090,74.409 117.200 C 74.581 117.310,74.822 119.380,74.945 121.800 C 75.142 125.688,75.628 132.537,76.179 139.200 C 76.279 140.410,76.463 141.940,76.587 142.600 C 76.711 143.260,76.826 145.329,76.843 147.197 C 76.859 149.065,76.986 150.775,77.125 150.997 C 77.525 151.635,77.594 152.367,77.620 156.190 C 77.633 158.165,77.809 159.882,78.010 160.006 C 78.212 160.131,78.412 162.079,78.456 164.335 C 78.501 166.591,78.659 168.513,78.810 168.606 C 78.960 168.699,79.125 170.085,79.176 171.687 C 79.227 173.289,79.290 175.230,79.315 176.000 C 79.341 176.770,79.502 177.499,79.674 177.620 C 79.846 177.740,80.006 179.855,80.030 182.318 C 80.053 184.782,80.236 186.899,80.436 187.022 C 80.636 187.146,80.800 189.091,80.800 191.344 C 80.800 193.597,80.969 195.611,81.176 195.820 C 81.383 196.029,81.597 198.056,81.653 200.324 C 81.708 202.592,81.899 204.538,82.077 204.648 C 82.255 204.757,82.400 206.421,82.400 208.344 C 82.400 210.587,82.579 212.033,82.900 212.379 C 83.300 212.810,83.300 212.861,82.900 212.635 C 82.311 212.302,82.229 212.869,82.786 213.426 C 82.999 213.639,83.199 215.657,83.230 217.910 C 83.262 220.163,83.448 222.106,83.644 222.227 C 83.840 222.348,84.000 224.237,84.000 226.424 C 84.000 228.808,84.160 230.400,84.400 230.400 C 84.643 230.400,84.800 232.173,84.800 234.920 C 84.800 237.406,84.968 239.611,85.174 239.820 C 85.524 240.175,85.666 241.931,86.229 252.900 C 86.351 255.265,86.619 257.200,86.825 257.200 C 87.036 257.200,87.200 259.129,87.200 261.600 C 87.200 264.267,87.358 266.000,87.600 266.000 C 87.840 266.000,88.000 267.609,88.000 270.026 C 88.000 272.241,88.172 274.375,88.383 274.768 C 88.594 275.162,88.795 277.310,88.830 279.542 C 88.865 281.774,89.052 283.600,89.247 283.600 C 89.441 283.600,89.600 285.274,89.600 287.320 C 89.600 289.742,89.774 291.228,90.100 291.579 C 90.500 292.010,90.500 292.061,90.100 291.835 C 89.825 291.680,89.600 291.728,89.600 291.943 C 89.600 292.158,89.771 292.393,89.981 292.467 C 90.190 292.540,90.392 294.448,90.430 296.707 C 90.468 298.966,90.657 300.911,90.849 301.031 C 91.042 301.150,91.200 302.911,91.200 304.944 C 91.200 307.347,91.375 308.828,91.700 309.179 C 92.107 309.617,92.088 309.655,91.600 309.382 C 91.119 309.113,91.091 309.161,91.456 309.623 C 91.710 309.943,92.016 312.424,92.145 315.200 C 92.272 317.950,92.480 321.460,92.606 323.000 C 92.731 324.540,92.846 326.205,92.860 326.700 C 92.873 327.195,93.001 327.600,93.142 327.600 C 93.284 327.600,93.423 329.175,93.450 331.100 C 93.478 333.025,93.615 335.140,93.755 335.800 C 93.895 336.460,94.079 338.440,94.163 340.200 C 94.248 341.960,94.417 343.810,94.538 344.312 C 94.659 344.813,94.794 346.566,94.838 348.207 C 94.925 351.515,96.040 352.800,98.823 352.800 C 99.470 352.800,100.000 352.980,100.000 353.200 C 100.000 353.420,100.619 353.600,101.376 353.600 C 102.133 353.600,102.864 353.780,103.000 354.000 C 103.136 354.220,103.766 354.400,104.400 354.400 C 105.034 354.400,105.666 354.583,105.804 354.807 C 105.942 355.030,106.221 355.111,106.423 354.986 C 106.626 354.861,107.378 355.031,108.096 355.363 C 108.813 355.696,109.850 356.038,110.400 356.123 C 110.950 356.208,111.670 356.389,112.000 356.527 C 112.808 356.864,114.795 357.281,115.900 357.347 C 116.395 357.376,116.800 357.535,116.800 357.700 C 116.800 357.865,117.340 358.000,118.000 358.000 C 118.660 358.000,119.200 358.180,119.200 358.400 C 119.200 358.620,119.920 358.800,120.800 358.800 C 121.680 358.800,122.400 358.980,122.400 359.200 C 122.400 359.420,122.910 359.600,123.533 359.600 C 124.157 359.600,124.793 359.727,124.948 359.882 C 125.103 360.037,125.718 360.228,126.315 360.306 C 126.912 360.385,127.571 360.618,127.780 360.825 C 127.989 361.031,128.754 361.200,129.480 361.200 C 130.206 361.200,130.800 361.380,130.800 361.600 C 130.800 361.820,131.329 362.000,131.976 362.000 C 132.623 362.000,133.264 362.180,133.400 362.400 C 133.536 362.620,134.267 362.800,135.024 362.800 C 135.781 362.800,136.400 362.980,136.400 363.200 C 136.400 363.420,136.929 363.600,137.576 363.600 C 138.223 363.600,138.840 363.741,138.946 363.913 C 139.052 364.085,139.735 364.271,140.463 364.326 C 141.191 364.382,141.961 364.601,142.173 364.813 C 142.386 365.026,143.053 365.200,143.656 365.200 C 144.259 365.200,144.843 365.346,144.953 365.524 C 145.063 365.702,146.344 366.096,147.800 366.400 C 149.256 366.704,150.537 367.098,150.647 367.276 C 150.757 367.454,151.347 367.600,151.957 367.600 C 152.567 367.600,153.193 367.727,153.348 367.882 C 153.503 368.037,154.115 368.229,154.708 368.308 C 155.300 368.387,155.878 368.583,155.993 368.743 C 156.107 368.903,156.732 369.072,157.382 369.119 C 158.033 369.166,158.744 369.384,158.962 369.602 C 159.181 369.821,159.853 370.000,160.456 370.000 C 161.059 370.000,161.664 370.180,161.800 370.400 C 161.936 370.620,162.547 370.800,163.157 370.800 C 163.767 370.800,164.402 370.935,164.567 371.100 C 164.732 371.265,165.257 371.406,165.733 371.413 C 166.210 371.421,166.838 371.574,167.128 371.754 C 167.769 372.152,172.973 373.515,176.000 374.079 C 177.210 374.304,178.371 374.649,178.580 374.844 C 178.789 375.040,179.464 375.200,180.080 375.200 C 180.696 375.200,181.200 375.380,181.200 375.600 C 181.200 375.820,181.819 376.000,182.576 376.000 C 183.333 376.000,184.064 376.180,184.200 376.400 C 184.336 376.620,185.067 376.800,185.824 376.800 C 186.581 376.800,187.200 376.980,187.200 377.200 C 187.200 377.420,187.729 377.600,188.376 377.600 C 189.023 377.600,189.664 377.780,189.800 378.000 C 189.936 378.220,190.667 378.400,191.424 378.400 C 192.181 378.400,192.800 378.580,192.800 378.800 C 192.800 379.020,193.531 379.200,194.424 379.200 C 195.404 379.200,195.949 379.358,195.800 379.600 C 195.653 379.838,196.129 380.000,196.976 380.000 C 197.759 380.000,198.400 380.180,198.400 380.400 C 198.400 380.921,201.078 380.921,201.400 380.400 C 201.536 380.180,202.267 380.000,203.024 380.000 C 203.781 380.000,204.400 379.820,204.400 379.600 C 204.400 379.380,204.940 379.200,205.600 379.200 C 206.260 379.200,206.800 379.020,206.800 378.800 C 206.800 378.580,207.430 378.400,208.200 378.400 C 208.970 378.400,209.600 378.220,209.600 378.000 C 209.600 377.780,210.320 377.600,211.200 377.600 C 212.080 377.600,212.800 377.420,212.800 377.200 C 212.800 376.980,213.340 376.800,214.000 376.800 C 214.660 376.800,215.200 376.620,215.200 376.400 C 215.200 376.180,215.335 376.021,215.500 376.047 C 216.642 376.228,218.407 375.935,218.200 375.600 C 217.993 375.265,219.758 374.972,220.900 375.153 C 221.065 375.179,221.200 375.039,221.200 374.842 C 221.200 374.645,221.875 374.392,222.700 374.279 C 225.386 373.913,230.731 372.632,232.200 372.003 C 232.640 371.814,233.450 371.569,234.000 371.458 C 234.550 371.347,235.720 371.046,236.600 370.791 C 237.480 370.535,238.785 370.233,239.500 370.119 C 240.215 370.005,240.800 369.752,240.800 369.556 C 240.800 369.360,241.304 369.200,241.920 369.200 C 242.536 369.200,243.214 369.026,243.427 368.813 C 243.639 368.601,244.395 368.383,245.107 368.328 C 245.818 368.274,246.400 368.108,246.400 367.959 C 246.400 367.810,246.985 367.595,247.700 367.481 C 248.415 367.367,249.720 367.061,250.600 366.800 C 251.480 366.539,252.787 366.232,253.504 366.119 C 254.221 366.005,254.906 365.751,255.027 365.556 C 255.148 365.360,255.867 365.200,256.624 365.200 C 257.381 365.200,258.000 365.020,258.000 364.800 C 258.000 364.580,258.540 364.400,259.200 364.400 C 259.860 364.400,260.400 364.220,260.400 364.000 C 260.400 363.780,261.105 363.600,261.967 363.600 C 262.828 363.600,263.593 363.426,263.667 363.213 C 263.740 363.000,264.399 362.780,265.130 362.725 C 265.862 362.670,266.548 362.485,266.654 362.313 C 266.760 362.141,267.377 362.000,268.024 362.000 C 268.671 362.000,269.200 361.820,269.200 361.600 C 269.200 361.380,269.830 361.200,270.600 361.200 C 271.370 361.200,272.000 361.020,272.000 360.800 C 272.000 360.580,272.619 360.400,273.376 360.400 C 274.133 360.400,274.864 360.220,275.000 360.000 C 275.136 359.780,275.777 359.600,276.424 359.600 C 277.071 359.600,277.600 359.420,277.600 359.200 C 277.600 358.980,278.230 358.800,279.000 358.800 C 279.770 358.800,280.400 358.620,280.400 358.400 C 280.400 358.180,281.019 358.000,281.776 358.000 C 282.533 358.000,283.266 357.817,283.404 357.593 C 283.542 357.370,283.781 357.264,283.934 357.359 C 284.087 357.454,285.200 357.257,286.406 356.921 C 287.613 356.586,289.140 356.216,289.800 356.100 C 290.460 355.984,291.099 355.737,291.220 355.550 C 291.341 355.363,291.971 355.138,292.620 355.049 C 294.761 354.755,296.413 354.302,296.632 353.948 C 296.750 353.757,297.469 353.600,298.229 353.600 C 299.566 353.600,299.922 353.488,301.942 352.433 C 302.605 352.087,302.800 352.077,302.600 352.400 C 302.394 352.733,302.519 352.749,303.058 352.459 C 303.466 352.239,304.098 351.967,304.462 351.856 C 305.004 351.691,305.131 351.060,305.159 348.394 C 305.178 346.601,305.317 344.934,305.468 344.691 C 305.618 344.447,305.799 342.617,305.870 340.624 C 305.941 338.631,306.179 336.100,306.397 335.000 C 306.616 333.900,306.744 331.603,306.681 329.897 C 306.618 328.190,306.739 326.621,306.950 326.410 C 307.160 326.200,307.347 324.312,307.366 322.215 C 307.385 320.118,307.535 318.401,307.700 318.401 C 307.865 318.400,308.000 316.420,308.000 314.000 C 308.000 311.333,308.158 309.600,308.400 309.600 C 308.641 309.600,308.800 307.941,308.800 305.424 C 308.800 302.802,308.965 301.145,309.243 300.974 C 309.551 300.783,309.521 300.596,309.143 300.356 C 308.743 300.103,308.732 300.011,309.100 300.006 C 309.464 300.002,309.600 298.975,309.600 296.224 C 309.600 294.137,309.779 292.337,310.000 292.200 C 310.227 292.060,310.400 290.070,310.400 287.600 C 310.400 285.130,310.573 283.140,310.800 283.000 C 311.025 282.861,311.200 280.929,311.200 278.576 C 311.200 276.059,311.359 274.400,311.600 274.400 C 311.841 274.400,312.000 272.741,312.000 270.224 C 312.000 267.871,312.175 265.939,312.400 265.800 C 312.625 265.661,312.800 263.737,312.800 261.400 C 312.800 259.116,312.959 257.149,313.153 257.029 C 313.347 256.909,313.535 254.972,313.570 252.725 C 313.606 250.479,313.779 248.451,313.956 248.220 C 314.132 247.989,314.320 245.914,314.372 243.610 C 314.425 241.305,314.633 239.112,314.834 238.736 C 315.035 238.360,315.200 236.431,315.200 234.450 C 315.200 232.468,315.380 230.736,315.600 230.600 C 315.825 230.461,316.000 228.529,316.000 226.176 C 316.000 223.659,316.159 222.000,316.400 222.000 C 316.642 222.000,316.800 220.275,316.800 217.624 C 316.800 215.217,316.960 213.148,317.155 213.028 C 317.350 212.907,317.536 211.074,317.568 208.954 C 317.599 206.835,317.800 204.775,318.013 204.376 C 318.226 203.978,318.400 201.851,318.400 199.650 C 318.400 197.448,318.561 195.547,318.759 195.426 C 318.956 195.304,319.139 193.475,319.166 191.361 C 319.194 189.247,319.380 187.212,319.580 186.837 C 319.780 186.463,319.952 184.498,319.962 182.471 C 319.971 180.444,320.155 178.458,320.369 178.057 C 320.584 177.656,320.790 175.410,320.828 173.064 C 320.865 170.719,321.024 168.800,321.180 168.800 C 321.337 168.800,321.485 167.089,321.510 164.998 C 321.535 162.907,321.675 161.003,321.821 160.766 C 321.967 160.529,322.166 158.595,322.263 156.468 C 322.359 154.341,322.597 151.970,322.791 151.200 C 322.984 150.430,323.138 148.630,323.131 147.200 C 323.125 145.770,323.307 143.520,323.535 142.200 C 323.763 140.880,323.961 139.080,323.975 138.200 C 323.988 137.320,324.196 134.260,324.438 131.400 C 324.679 128.540,324.961 124.224,325.065 121.809 C 325.172 119.309,325.457 117.166,325.727 116.832 C 326.111 116.357,326.087 116.310,325.600 116.582 C 325.112 116.855,325.093 116.817,325.500 116.379 C 325.825 116.028,326.000 114.547,326.000 112.144 C 326.000 110.111,326.180 108.336,326.400 108.200 C 326.625 108.061,326.800 106.129,326.800 103.776 C 326.800 101.259,326.959 99.600,327.200 99.600 C 327.443 99.600,327.600 97.800,327.600 95.000 L 327.600 90.400 200.000 90.400 L 72.400 90.400 72.400 94.967 M303.869 113.035 C 304.003 113.384,303.901 115.859,303.642 118.535 C 303.383 121.211,303.005 125.290,302.803 127.600 C 302.331 132.980,301.671 140.308,301.200 145.400 C 300.996 147.600,300.646 151.470,300.421 154.000 C 300.196 156.530,299.833 160.580,299.614 163.000 C 299.396 165.420,299.029 169.560,298.800 172.200 C 298.571 174.840,298.211 178.890,298.000 181.200 C 297.789 183.510,297.429 187.560,297.200 190.200 C 296.971 192.840,296.611 196.890,296.400 199.200 C 295.189 212.471,293.093 236.064,291.195 257.800 C 290.964 260.440,290.604 264.400,290.394 266.600 C 290.184 268.800,289.826 272.760,289.598 275.400 C 289.370 278.040,289.011 282.090,288.800 284.400 C 288.589 286.710,288.230 290.760,288.002 293.400 C 287.774 296.040,287.419 300.000,287.212 302.200 C 286.398 310.851,286.007 315.211,285.595 320.200 C 285.359 323.060,284.993 326.840,284.782 328.600 C 284.571 330.360,284.399 332.379,284.399 333.086 C 284.400 334.618,284.155 334.766,279.600 335.977 C 277.730 336.474,275.750 337.022,275.200 337.194 C 273.647 337.681,271.952 338.153,257.400 342.154 C 249.920 344.210,243.350 346.019,242.800 346.174 C 242.250 346.328,241.260 346.606,240.600 346.792 C 239.940 346.978,238.365 347.416,237.100 347.765 C 235.835 348.114,233.765 348.686,232.500 349.035 C 228.292 350.196,227.410 350.442,226.100 350.823 C 223.192 351.667,222.059 351.982,219.000 352.800 C 217.240 353.270,215.215 353.823,214.500 354.028 C 212.473 354.608,210.845 355.062,207.600 355.948 C 205.950 356.399,203.714 357.037,202.632 357.366 C 199.853 358.209,200.000 359.104,200.000 341.376 L 200.000 325.200 198.824 325.200 C 198.177 325.200,197.536 325.020,197.400 324.800 C 197.264 324.580,196.634 324.400,196.000 324.400 C 195.366 324.400,194.748 324.240,194.627 324.044 C 194.506 323.849,193.821 323.592,193.104 323.473 C 191.341 323.182,189.215 322.671,185.400 321.621 C 183.640 321.136,181.210 320.468,180.000 320.135 C 177.136 319.348,175.541 318.899,173.700 318.363 C 172.875 318.122,171.613 317.832,170.896 317.719 C 170.179 317.605,169.494 317.351,169.373 317.156 C 169.252 316.960,168.634 316.800,168.000 316.800 C 167.366 316.800,166.736 316.620,166.600 316.400 C 166.464 316.180,165.834 316.000,165.200 316.000 C 164.566 316.000,163.936 315.820,163.800 315.600 C 163.664 315.380,163.034 315.200,162.400 315.200 C 161.766 315.200,161.136 315.020,161.000 314.800 C 160.864 314.580,160.234 314.400,159.600 314.400 C 158.966 314.400,158.336 314.220,158.200 314.000 C 158.064 313.780,157.434 313.600,156.800 313.600 C 156.166 313.600,155.536 313.420,155.400 313.200 C 155.264 312.980,154.634 312.800,154.000 312.800 C 153.366 312.800,152.736 312.620,152.600 312.400 C 152.464 312.180,151.744 312.000,151.000 312.000 C 150.256 312.000,149.536 311.820,149.400 311.600 C 149.264 311.380,148.623 311.200,147.976 311.200 C 147.329 311.200,146.800 311.020,146.800 310.800 C 146.800 310.580,146.181 310.400,145.424 310.400 C 144.667 310.400,143.936 310.220,143.800 310.000 C 143.664 309.780,143.023 309.600,142.376 309.600 C 141.729 309.600,141.200 309.420,141.200 309.200 C 141.200 308.980,140.581 308.800,139.824 308.800 C 139.067 308.800,138.336 308.620,138.200 308.400 C 138.064 308.180,137.549 308.000,137.056 308.000 C 134.163 308.000,133.903 307.407,133.203 299.200 C 133.006 296.890,132.658 293.020,132.430 290.600 C 132.202 288.180,131.824 284.040,131.591 281.400 C 131.357 278.760,131.013 274.890,130.826 272.800 C 130.639 270.710,130.287 266.496,130.045 263.435 C 129.802 260.374,129.519 257.786,129.416 257.682 C 129.313 257.579,129.409 257.156,129.631 256.743 C 130.016 256.023,130.732 255.996,146.316 256.096 L 162.600 256.200 162.911 259.200 C 163.296 262.910,163.887 269.423,164.353 275.100 C 164.881 281.525,165.342 282.400,168.195 282.400 C 168.722 282.400,169.264 282.580,169.400 282.800 C 169.536 283.020,170.166 283.200,170.800 283.200 C 171.434 283.200,172.064 283.380,172.200 283.600 C 172.336 283.820,172.966 284.000,173.600 284.000 C 174.234 284.000,174.864 284.180,175.000 284.400 C 175.136 284.620,175.856 284.800,176.600 284.800 C 177.344 284.800,178.064 284.980,178.200 285.200 C 178.336 285.420,178.966 285.600,179.600 285.600 C 180.234 285.600,180.864 285.780,181.000 286.000 C 181.136 286.220,181.766 286.400,182.400 286.400 C 183.034 286.400,183.664 286.580,183.800 286.800 C 183.936 287.020,184.667 287.200,185.424 287.200 C 186.181 287.200,186.800 287.380,186.800 287.600 C 186.800 287.820,187.419 288.000,188.176 288.000 C 188.933 288.000,189.664 288.180,189.800 288.400 C 189.936 288.620,190.566 288.800,191.200 288.800 C 191.834 288.800,192.464 288.980,192.600 289.200 C 192.736 289.420,193.467 289.600,194.224 289.600 C 194.981 289.600,195.600 289.780,195.600 290.000 C 195.600 290.220,196.219 290.400,196.976 290.400 C 197.733 290.400,198.464 290.580,198.600 290.800 C 199.925 292.944,200.000 291.638,200.000 266.402 L 200.000 241.604 164.105 241.502 L 128.211 241.400 127.930 239.400 C 127.775 238.300,127.431 234.700,127.165 231.400 C 126.900 228.100,126.523 223.420,126.329 221.000 C 126.134 218.580,125.880 214.710,125.763 212.400 C 125.645 210.090,125.381 208.029,125.175 207.820 C 124.969 207.611,124.800 205.597,124.800 203.344 C 124.800 201.044,124.625 199.139,124.400 199.000 C 124.175 198.861,124.000 196.937,124.000 194.600 C 124.000 192.263,123.825 190.339,123.600 190.200 C 123.375 190.061,123.200 188.137,123.200 185.800 C 123.200 183.463,123.025 181.539,122.800 181.400 C 122.575 181.261,122.400 179.337,122.400 177.000 C 122.400 174.663,122.225 172.739,122.000 172.600 C 121.775 172.461,121.600 170.537,121.600 168.200 C 121.600 165.863,121.425 163.939,121.200 163.800 C 120.975 163.661,120.800 161.737,120.800 159.400 C 120.800 157.063,120.625 155.139,120.400 155.000 C 120.177 154.862,120.000 153.002,120.000 150.795 C 120.000 148.619,119.791 146.378,119.535 145.817 C 119.279 145.256,119.204 144.662,119.368 144.498 C 119.532 144.334,137.697 144.110,159.733 144.000 L 199.800 143.800 199.901 128.600 C 199.956 120.240,200.085 113.175,200.188 112.900 C 200.507 112.046,303.541 112.180,303.869 113.035 M155.793 179.300 C 155.956 180.675,156.260 184.050,156.470 186.800 C 156.679 189.550,157.024 193.780,157.236 196.200 C 157.449 198.620,157.720 202.355,157.838 204.500 L 158.053 208.400 179.027 208.400 L 200.000 208.400 200.000 192.600 L 200.000 176.800 177.748 176.800 L 155.497 176.800 155.793 179.300 " stroke="none" fill="#e44c24" fill-rule="evenodd"></path><path id="path2" d="M120.569 147.500 C 120.726 148.985,121.022 152.135,121.227 154.500 C 121.432 156.865,121.784 160.825,122.009 163.300 C 122.234 165.775,122.590 169.780,122.800 172.200 C 123.160 176.341,123.452 179.593,124.392 189.900 C 124.607 192.265,124.967 196.270,125.192 198.800 C 125.416 201.330,125.772 205.290,125.982 207.600 C 126.192 209.910,126.547 213.870,126.771 216.400 C 126.995 218.930,127.371 223.160,127.606 225.800 C 128.308 233.685,128.787 239.368,128.793 239.900 C 128.799 240.295,134.217 240.400,154.534 240.400 C 168.688 240.400,193.551 240.520,209.786 240.666 L 239.305 240.932 239.032 243.766 C 238.704 247.180,238.146 253.356,237.601 259.600 C 237.381 262.130,237.013 266.270,236.783 268.800 C 236.554 271.330,236.214 275.260,236.029 277.534 C 235.597 282.818,236.671 282.034,226.000 284.861 C 223.027 285.648,221.506 286.068,218.800 286.849 C 218.030 287.071,216.770 287.407,216.000 287.595 C 214.420 287.981,208.821 289.477,207.000 290.000 C 199.973 292.019,199.734 292.035,195.300 290.773 C 194.475 290.539,193.170 290.191,192.400 290.000 C 191.630 289.809,190.370 289.471,189.600 289.249 C 186.870 288.461,184.982 287.942,183.600 287.600 C 182.830 287.409,181.570 287.074,180.800 286.854 C 180.030 286.635,178.050 286.098,176.400 285.661 C 174.750 285.223,172.050 284.486,170.400 284.021 C 168.750 283.557,166.818 283.069,166.106 282.937 C 164.023 282.551,164.199 283.212,163.207 272.000 C 163.002 269.690,162.662 265.602,162.450 262.915 C 162.238 260.228,161.950 257.843,161.809 257.615 C 161.538 257.177,130.400 256.993,130.400 257.429 C 130.400 257.694,131.794 273.394,132.369 279.600 C 132.583 281.910,132.955 286.140,133.196 289.000 C 133.437 291.860,133.807 295.640,134.018 297.400 C 134.229 299.160,134.403 301.590,134.406 302.800 C 134.414 306.366,134.571 306.620,137.132 307.208 C 138.379 307.495,139.571 307.880,139.780 308.064 C 139.989 308.249,140.566 308.400,141.061 308.400 C 141.557 308.400,142.376 308.561,142.881 308.758 C 143.387 308.955,144.610 309.336,145.600 309.605 C 146.590 309.873,147.850 310.231,148.400 310.400 C 148.950 310.569,150.210 310.920,151.200 311.181 C 155.669 312.356,158.358 313.096,160.000 313.600 C 160.550 313.769,161.810 314.129,162.800 314.400 C 163.790 314.671,165.050 315.034,165.600 315.206 C 166.150 315.378,168.670 316.076,171.200 316.758 C 176.333 318.140,190.924 322.146,193.400 322.852 C 197.217 323.940,197.855 324.131,198.827 324.474 C 199.621 324.754,201.618 324.343,207.627 322.662 C 211.902 321.466,218.190 319.732,221.600 318.808 C 225.010 317.884,228.250 316.985,228.800 316.811 C 229.860 316.474,230.456 316.307,237.400 314.406 C 239.820 313.744,242.340 313.046,243.000 312.855 C 244.705 312.362,246.944 311.741,250.400 310.800 C 260.596 308.025,264.492 306.868,264.854 306.506 C 265.049 306.311,265.394 303.913,265.622 301.176 C 266.093 295.503,266.589 289.847,267.199 283.200 C 267.431 280.670,267.792 276.620,268.000 274.200 C 268.208 271.780,268.564 267.775,268.789 265.300 C 269.015 262.825,269.371 258.865,269.580 256.500 C 269.789 254.135,270.153 250.040,270.390 247.400 C 271.263 237.637,272.793 220.461,273.187 216.000 C 273.410 213.470,273.595 210.906,273.597 210.301 L 273.600 209.203 215.700 209.101 L 157.800 209.000 157.316 205.200 C 157.050 203.110,156.637 199.060,156.398 196.200 C 156.158 193.340,155.788 189.200,155.574 187.000 C 155.361 184.800,155.144 181.470,155.093 179.600 L 155.000 176.200 215.633 176.364 C 275.012 176.524,276.272 176.512,276.574 175.764 C 276.744 175.344,277.037 173.200,277.224 171.000 C 277.412 168.800,277.754 164.930,277.983 162.400 C 278.213 159.870,278.570 155.730,278.778 153.200 C 278.985 150.670,279.280 147.745,279.432 146.700 L 279.709 144.800 199.997 144.800 L 120.284 144.800 120.569 147.500 " stroke="none" fill="#f3f2f2" fill-rule="evenodd"></path><path id="path3" d="M200.188 112.900 C 200.085 113.175,199.956 120.240,199.901 128.600 L 199.800 143.800 159.733 144.000 C 118.399 144.206,118.784 144.190,119.510 145.696 C 119.939 146.586,119.946 146.583,119.973 145.500 L 120.000 144.400 200.051 144.400 L 280.103 144.400 279.864 147.500 C 279.733 149.205,279.435 152.670,279.202 155.200 C 278.317 164.807,277.984 168.713,277.749 172.200 C 277.616 174.180,277.326 176.025,277.105 176.300 C 276.788 176.694,268.550 176.800,238.351 176.800 L 200.000 176.800 200.000 192.598 L 200.000 208.396 237.100 208.498 L 274.200 208.600 274.131 210.400 C 274.093 211.390,273.868 214.315,273.631 216.900 C 273.394 219.485,273.013 223.715,272.784 226.300 C 272.555 228.885,272.195 232.935,271.984 235.300 C 271.773 237.665,271.429 241.535,271.221 243.900 C 271.012 246.265,270.656 250.270,270.429 252.800 C 269.841 259.369,269.301 265.499,268.844 270.800 C 268.464 275.199,267.621 284.780,266.784 294.200 C 266.569 296.620,266.295 299.950,266.175 301.600 C 265.817 306.530,265.653 307.200,264.805 307.200 C 264.388 307.200,263.936 307.380,263.800 307.600 C 263.664 307.820,263.034 308.000,262.400 308.000 C 261.766 308.000,261.136 308.180,261.000 308.400 C 260.864 308.620,260.234 308.800,259.600 308.800 C 258.966 308.800,258.336 308.980,258.200 309.200 C 258.064 309.420,257.522 309.600,256.995 309.600 C 256.469 309.600,255.624 309.761,255.119 309.958 C 254.613 310.155,253.390 310.536,252.400 310.805 C 251.410 311.073,250.150 311.431,249.600 311.600 C 249.050 311.769,247.790 312.132,246.800 312.408 C 245.810 312.683,244.460 313.063,243.800 313.252 C 243.140 313.441,241.250 313.960,239.600 314.406 C 237.950 314.852,235.970 315.393,235.200 315.609 C 234.430 315.825,230.830 316.811,227.200 317.800 C 217.653 320.402,217.489 320.449,216.481 320.842 C 215.976 321.039,215.131 321.200,214.605 321.200 C 214.078 321.200,213.548 321.360,213.427 321.556 C 213.306 321.751,212.621 322.005,211.904 322.119 C 211.187 322.232,209.880 322.539,209.000 322.800 C 208.120 323.061,206.813 323.368,206.096 323.481 C 205.379 323.595,204.694 323.849,204.573 324.044 C 204.452 324.240,203.834 324.400,203.200 324.400 C 202.566 324.400,201.936 324.580,201.800 324.800 C 201.664 325.020,201.203 325.200,200.776 325.200 C 199.948 325.200,199.510 357.250,200.332 357.758 C 200.514 357.871,201.549 357.694,202.632 357.366 C 203.714 357.037,205.950 356.399,207.600 355.948 C 210.845 355.062,212.473 354.608,214.500 354.028 C 215.215 353.823,217.240 353.270,219.000 352.800 C 222.059 351.982,223.192 351.667,226.100 350.823 C 227.410 350.442,228.292 350.196,232.500 349.035 C 233.765 348.686,235.835 348.114,237.100 347.765 C 238.365 347.416,239.940 346.978,240.600 346.792 C 241.260 346.606,242.250 346.328,242.800 346.174 C 243.350 346.019,249.920 344.210,257.400 342.154 C 271.952 338.153,273.647 337.681,275.200 337.194 C 275.750 337.022,277.730 336.474,279.600 335.977 C 284.155 334.766,284.400 334.618,284.399 333.086 C 284.399 332.379,284.571 330.360,284.782 328.600 C 284.993 326.840,285.359 323.060,285.595 320.200 C 286.007 315.211,286.398 310.851,287.212 302.200 C 287.419 300.000,287.774 296.040,288.002 293.400 C 288.230 290.760,288.589 286.710,288.800 284.400 C 289.011 282.090,289.370 278.040,289.598 275.400 C 289.826 272.760,290.184 268.800,290.394 266.600 C 290.604 264.400,290.964 260.440,291.195 257.800 C 293.093 236.064,295.189 212.471,296.400 199.200 C 296.611 196.890,296.971 192.840,297.200 190.200 C 297.429 187.560,297.789 183.510,298.000 181.200 C 298.211 178.890,298.571 174.840,298.800 172.200 C 299.029 169.560,299.396 165.420,299.614 163.000 C 299.833 160.580,300.196 156.530,300.421 154.000 C 300.646 151.470,300.996 147.600,301.200 145.400 C 301.671 140.308,302.331 132.980,302.803 127.600 C 303.005 125.290,303.383 121.211,303.642 118.535 C 303.901 115.859,304.003 113.384,303.869 113.035 C 303.541 112.180,200.507 112.046,200.188 112.900 M75.293 128.400 C 75.293 129.170,75.375 129.485,75.476 129.100 C 75.576 128.715,75.576 128.085,75.476 127.700 C 75.375 127.315,75.293 127.630,75.293 128.400 M324.493 128.400 C 324.493 129.170,324.575 129.485,324.676 129.100 C 324.776 128.715,324.776 128.085,324.676 127.700 C 324.575 127.315,324.493 127.630,324.493 128.400 M120.000 152.310 C 120.000 153.653,120.178 154.863,120.396 154.998 C 120.651 155.155,120.703 154.346,120.540 152.721 C 120.211 149.427,120.000 149.266,120.000 152.310 M120.800 161.310 C 120.800 162.543,120.983 163.666,121.207 163.804 C 121.476 163.970,121.525 163.267,121.351 161.728 C 121.008 158.681,120.800 158.524,120.800 161.310 M121.600 170.310 C 121.600 171.433,121.788 172.469,122.018 172.611 C 122.302 172.787,122.349 172.182,122.164 170.735 C 121.807 167.936,121.600 167.780,121.600 170.310 M122.400 179.310 C 122.400 180.323,122.594 181.273,122.831 181.419 C 123.130 181.604,123.176 181.092,122.980 179.743 C 122.609 177.190,122.400 177.034,122.400 179.310 M155.647 181.633 C 155.673 182.825,155.842 184.340,156.022 185.000 C 156.222 185.736,156.263 184.962,156.126 183.000 C 155.867 179.294,155.578 178.467,155.647 181.633 M123.200 188.110 C 123.200 189.123,123.394 190.073,123.631 190.219 C 123.930 190.404,123.976 189.892,123.780 188.543 C 123.409 185.990,123.200 185.834,123.200 188.110 M156.475 191.800 C 156.510 193.942,157.101 195.764,157.125 193.800 C 157.135 192.920,156.989 191.840,156.800 191.400 C 156.509 190.723,156.459 190.784,156.475 191.800 M124.000 196.910 C 124.000 197.923,124.194 198.873,124.431 199.019 C 124.730 199.204,124.776 198.692,124.580 197.343 C 124.209 194.790,124.000 194.634,124.000 196.910 M157.253 200.800 C 157.342 202.950,157.900 204.399,157.947 202.600 C 157.969 201.720,157.813 200.730,157.600 200.400 C 157.296 199.929,157.221 200.015,157.253 200.800 M124.847 205.876 C 124.821 206.798,124.980 207.664,125.200 207.800 C 125.652 208.079,125.652 207.175,125.200 205.400 C 124.912 204.267,124.892 204.293,124.847 205.876 M125.653 214.600 C 125.631 215.480,125.787 216.470,126.000 216.800 C 126.475 217.536,126.475 216.068,126.000 214.200 C 125.706 213.044,125.693 213.059,125.653 214.600 M126.469 223.200 C 126.456 223.970,126.595 225.320,126.777 226.200 L 127.108 227.800 127.131 226.400 C 127.144 225.630,127.005 224.280,126.823 223.400 L 126.492 221.800 126.469 223.200 M127.486 234.600 C 127.607 236.580,127.772 238.275,127.853 238.367 C 128.133 238.685,127.904 233.394,127.586 232.200 C 127.399 231.502,127.358 232.505,127.486 234.600 M128.062 240.628 C 128.208 241.383,129.010 241.402,164.105 241.502 L 200.000 241.604 200.000 266.402 L 200.000 291.200 200.976 291.200 C 201.513 291.200,202.064 291.020,202.200 290.800 C 202.336 290.580,202.966 290.400,203.600 290.400 C 204.234 290.400,204.864 290.220,205.000 290.000 C 205.136 289.780,205.766 289.600,206.400 289.600 C 207.034 289.600,207.664 289.420,207.800 289.200 C 207.936 288.980,208.429 288.800,208.895 288.800 C 209.362 288.800,210.296 288.632,210.972 288.427 C 211.647 288.222,213.010 287.841,214.000 287.581 C 214.990 287.320,216.250 286.966,216.800 286.794 C 217.350 286.622,219.330 286.084,221.200 285.600 C 223.070 285.116,225.050 284.574,225.600 284.396 C 226.150 284.218,228.439 283.586,230.687 282.991 C 235.431 281.736,235.063 282.290,235.625 275.571 C 236.090 270.026,236.597 264.230,237.209 257.500 C 237.434 255.025,237.781 251.020,237.981 248.600 C 238.181 246.180,238.470 243.525,238.625 242.700 L 238.905 241.200 184.081 241.200 C 133.281 241.200,129.208 241.151,128.585 240.528 C 127.956 239.899,127.923 239.906,128.062 240.628 M129.631 256.743 C 129.409 257.156,129.313 257.579,129.416 257.682 C 129.519 257.786,129.802 260.374,130.045 263.435 C 130.287 266.496,130.638 270.710,130.823 272.800 C 131.009 274.890,131.322 278.807,131.519 281.505 C 131.716 284.203,131.995 286.528,132.139 286.672 C 132.414 286.947,132.111 280.270,131.755 278.200 C 131.541 276.957,131.055 271.405,130.412 262.853 C 130.207 260.132,129.942 257.809,129.823 257.690 C 128.699 256.565,130.776 256.400,145.949 256.406 C 161.348 256.412,162.057 256.463,162.530 257.600 C 162.672 257.942,162.741 257.771,162.690 257.200 L 162.600 256.200 146.316 256.096 C 130.732 255.996,130.016 256.023,129.631 256.743 M163.049 264.200 C 163.192 265.740,163.375 267.075,163.455 267.167 C 163.807 267.570,163.546 262.538,163.188 262.000 C 162.913 261.588,162.870 262.279,163.049 264.200 M163.855 273.200 C 163.996 274.850,164.176 276.275,164.256 276.367 C 164.604 276.768,164.348 271.339,163.993 270.800 C 163.726 270.394,163.681 271.171,163.855 273.200 M164.406 280.071 C 164.398 281.422,165.226 282.261,166.896 282.597 C 167.613 282.742,168.538 282.956,168.950 283.073 C 169.434 283.210,169.603 283.129,169.426 282.843 C 169.276 282.599,168.722 282.400,168.195 282.400 C 166.796 282.400,165.201 281.569,165.194 280.836 C 165.191 280.486,165.013 279.930,164.800 279.600 C 164.496 279.130,164.411 279.233,164.406 280.071 M170.033 283.344 C 170.505 283.750,172.443 283.993,172.210 283.616 C 172.068 283.387,171.483 283.200,170.910 283.200 C 170.336 283.200,169.942 283.265,170.033 283.344 M172.833 284.144 C 173.305 284.550,175.243 284.793,175.010 284.416 C 174.868 284.187,174.283 284.000,173.710 284.000 C 173.136 284.000,172.742 284.065,172.833 284.144 M176.033 284.944 C 176.505 285.350,178.443 285.593,178.210 285.216 C 178.068 284.987,177.483 284.800,176.910 284.800 C 176.336 284.800,175.942 284.865,176.033 284.944 M179.800 286.000 C 180.901 286.473,181.292 286.473,181.000 286.000 C 180.864 285.780,180.358 285.613,179.876 285.628 C 179.031 285.655,179.029 285.669,179.800 286.000 M132.428 290.433 C 132.444 292.285,132.605 294.160,132.786 294.600 C 132.972 295.051,133.024 293.656,132.904 291.400 C 132.641 286.445,132.391 285.937,132.428 290.433 M188.600 288.400 C 189.701 288.873,190.092 288.873,189.800 288.400 C 189.664 288.180,189.158 288.013,188.676 288.028 C 187.831 288.055,187.829 288.069,188.600 288.400 M133.206 299.833 C 133.209 301.575,133.383 303.270,133.593 303.600 C 133.840 303.990,133.889 302.940,133.731 300.600 C 133.426 296.060,133.198 295.727,133.206 299.833 M149.400 311.600 C 149.536 311.820,150.042 311.987,150.524 311.972 C 151.369 311.945,151.371 311.931,150.600 311.600 C 149.499 311.127,149.108 311.127,149.400 311.600 M155.400 313.200 C 155.536 313.420,156.042 313.587,156.524 313.572 C 157.369 313.545,157.371 313.531,156.600 313.200 C 155.499 312.727,155.108 312.727,155.400 313.200 M158.200 314.000 C 158.336 314.220,158.842 314.387,159.324 314.372 C 160.169 314.345,160.171 314.331,159.400 314.000 C 158.299 313.527,157.908 313.527,158.200 314.000 M161.000 314.800 C 161.136 315.020,161.642 315.187,162.124 315.172 C 162.969 315.145,162.971 315.131,162.200 314.800 C 161.099 314.327,160.708 314.327,161.000 314.800 M163.790 315.584 C 163.932 315.813,164.517 316.000,165.090 316.000 C 166.344 316.000,166.199 315.808,164.666 315.440 C 163.923 315.262,163.621 315.311,163.790 315.584 M166.590 316.384 C 166.732 316.613,167.317 316.800,167.890 316.800 C 169.144 316.800,168.999 316.608,167.466 316.240 C 166.723 316.062,166.421 316.111,166.590 316.384 M169.374 317.157 C 169.524 317.401,170.078 317.600,170.605 317.600 C 171.131 317.600,171.976 317.761,172.481 317.958 C 172.987 318.155,174.210 318.540,175.200 318.812 C 176.190 319.085,177.540 319.463,178.200 319.652 C 183.863 321.274,188.121 322.283,186.600 321.641 C 185.591 321.216,183.763 320.693,177.900 319.154 C 176.965 318.908,175.750 318.569,175.200 318.400 C 174.650 318.231,173.480 317.898,172.600 317.660 C 171.720 317.423,170.572 317.112,170.050 316.971 C 169.407 316.797,169.188 316.857,169.374 317.157 M188.200 322.400 C 189.396 322.914,190.395 322.914,189.600 322.400 C 189.270 322.187,188.640 322.022,188.200 322.034 L 187.400 322.056 188.200 322.400 " stroke="none" fill="#f3632c" fill-rule="evenodd"></path><path id="path4" d="M120.145 148.300 C 120.291 150.445,120.592 154.180,120.815 156.600 C 121.237 161.193,121.777 167.208,122.420 174.500 C 122.629 176.865,122.980 180.780,123.200 183.200 C 124.216 194.381,124.444 196.900,124.828 201.200 C 125.053 203.730,125.401 207.600,125.600 209.800 C 125.799 212.000,126.151 215.915,126.381 218.500 C 126.612 221.085,126.990 225.315,127.222 227.900 C 127.454 230.485,127.769 234.362,127.922 236.515 C 128.122 239.329,128.369 240.537,128.800 240.809 C 129.170 241.042,150.397 241.190,184.152 241.194 L 238.905 241.200 238.625 242.700 C 238.470 243.525,238.181 246.180,237.981 248.600 C 237.781 251.020,237.434 255.025,237.209 257.500 C 236.597 264.230,236.090 270.026,235.625 275.571 C 235.063 282.290,235.431 281.736,230.687 282.991 C 228.439 283.586,226.150 284.218,225.600 284.396 C 225.050 284.574,223.070 285.116,221.200 285.600 C 219.330 286.084,217.350 286.622,216.800 286.794 C 216.250 286.966,214.990 287.320,214.000 287.581 C 213.010 287.841,211.647 288.222,210.972 288.427 C 210.296 288.632,209.362 288.800,208.895 288.800 C 208.429 288.800,207.936 288.980,207.800 289.200 C 207.664 289.420,207.034 289.600,206.400 289.600 C 205.766 289.600,205.136 289.780,205.000 290.000 C 204.864 290.220,204.259 290.400,203.656 290.400 C 203.053 290.400,202.361 290.599,202.119 290.841 C 201.538 291.422,198.572 291.115,194.800 290.083 C 193.150 289.632,190.765 288.979,189.500 288.631 C 184.251 287.190,182.351 286.679,177.400 285.373 C 163.089 281.599,164.615 282.493,164.260 277.670 C 164.120 275.761,163.814 272.130,163.580 269.600 C 163.346 267.070,163.013 263.228,162.838 261.061 C 162.624 258.400,162.340 257.007,161.961 256.767 C 160.079 255.576,128.610 256.476,129.820 257.687 C 129.938 257.804,130.218 260.308,130.443 263.250 C 130.669 266.193,131.017 270.400,131.218 272.600 C 131.878 279.831,132.833 290.762,133.578 299.600 C 134.230 307.321,134.100 306.943,136.302 307.548 C 137.346 307.835,138.650 308.213,139.200 308.388 C 139.750 308.564,141.010 308.932,142.000 309.208 C 142.990 309.483,144.340 309.863,145.000 310.052 C 145.660 310.241,147.550 310.760,149.200 311.206 C 150.850 311.652,152.830 312.194,153.600 312.410 C 154.370 312.627,158.600 313.794,163.000 315.003 C 172.809 317.698,173.938 318.012,175.200 318.400 C 176.210 318.710,178.464 319.321,181.400 320.079 C 182.280 320.307,183.450 320.631,184.000 320.800 C 184.550 320.969,185.810 321.329,186.800 321.600 C 187.790 321.871,189.050 322.231,189.600 322.400 C 190.567 322.697,192.138 323.119,195.700 324.039 C 196.635 324.280,197.713 324.640,198.095 324.839 C 199.028 325.324,201.492 325.298,201.800 324.800 C 201.936 324.580,202.566 324.400,203.200 324.400 C 203.834 324.400,204.452 324.240,204.573 324.044 C 204.694 323.849,205.379 323.595,206.096 323.481 C 206.813 323.368,208.120 323.061,209.000 322.800 C 209.880 322.539,211.187 322.232,211.904 322.119 C 212.621 322.005,213.306 321.751,213.427 321.556 C 213.548 321.360,214.078 321.200,214.605 321.200 C 215.131 321.200,215.976 321.039,216.481 320.842 C 217.489 320.449,217.653 320.402,227.200 317.800 C 230.830 316.811,234.430 315.825,235.200 315.609 C 235.970 315.393,237.950 314.852,239.600 314.406 C 241.250 313.960,243.140 313.441,243.800 313.252 C 244.460 313.063,245.810 312.683,246.800 312.408 C 247.790 312.132,249.050 311.769,249.600 311.600 C 250.150 311.431,251.410 311.073,252.400 310.805 C 253.390 310.536,254.613 310.155,255.119 309.958 C 255.624 309.761,256.469 309.600,256.995 309.600 C 257.522 309.600,258.064 309.420,258.200 309.200 C 258.336 308.980,258.966 308.800,259.600 308.800 C 260.234 308.800,260.864 308.620,261.000 308.400 C 261.136 308.180,261.766 308.000,262.400 308.000 C 263.034 308.000,263.664 307.820,263.800 307.600 C 263.936 307.380,264.388 307.200,264.805 307.200 C 265.695 307.200,265.754 306.902,266.380 299.200 C 266.622 296.230,267.081 290.830,267.400 287.200 C 267.719 283.570,268.176 278.170,268.416 275.200 C 268.655 272.230,269.019 268.488,269.225 266.884 C 269.605 263.926,269.740 258.927,269.431 259.235 C 269.338 259.328,269.056 261.833,268.804 264.802 C 267.954 274.802,267.625 278.580,267.200 283.200 C 266.598 289.743,266.098 295.439,265.622 301.176 C 265.394 303.913,265.049 306.311,264.854 306.506 C 264.492 306.868,260.596 308.025,250.400 310.800 C 246.944 311.741,244.705 312.362,243.000 312.855 C 242.340 313.046,239.820 313.744,237.400 314.406 C 230.456 316.307,229.860 316.474,228.800 316.811 C 228.250 316.985,225.010 317.884,221.600 318.808 C 218.190 319.732,211.902 321.466,207.627 322.662 C 201.552 324.362,199.630 324.755,198.827 324.465 C 198.262 324.260,196.990 323.868,196.000 323.592 C 195.010 323.317,193.660 322.932,193.000 322.738 C 191.525 322.302,177.466 318.446,171.200 316.758 C 168.670 316.076,166.150 315.378,165.600 315.206 C 165.050 315.034,163.790 314.671,162.800 314.400 C 161.810 314.129,160.550 313.769,160.000 313.600 C 158.358 313.096,155.669 312.356,151.200 311.181 C 150.210 310.920,148.950 310.569,148.400 310.400 C 147.850 310.231,146.590 309.873,145.600 309.605 C 144.610 309.336,143.387 308.955,142.881 308.758 C 142.376 308.561,141.557 308.400,141.061 308.400 C 140.566 308.400,139.989 308.249,139.780 308.064 C 139.571 307.880,138.379 307.495,137.132 307.208 C 134.571 306.620,134.414 306.366,134.406 302.800 C 134.403 301.590,134.229 299.160,134.018 297.400 C 133.807 295.640,133.437 291.860,133.196 289.000 C 132.955 286.140,132.583 281.910,132.369 279.600 C 131.794 273.394,130.400 257.694,130.400 257.429 C 130.400 256.993,161.538 257.177,161.809 257.615 C 161.950 257.843,162.238 260.228,162.450 262.915 C 162.662 265.602,163.002 269.690,163.207 272.000 C 164.199 283.212,164.023 282.551,166.106 282.937 C 166.818 283.069,168.750 283.557,170.400 284.021 C 172.050 284.486,174.750 285.223,176.400 285.661 C 178.050 286.098,180.030 286.635,180.800 286.854 C 181.570 287.074,182.830 287.409,183.600 287.600 C 184.370 287.791,185.630 288.129,186.400 288.351 C 189.130 289.139,191.018 289.658,192.400 290.000 C 193.170 290.191,194.475 290.539,195.300 290.773 C 199.734 292.035,199.973 292.019,207.000 290.000 C 208.821 289.477,214.420 287.981,216.000 287.595 C 217.295 287.279,218.217 287.025,221.700 286.028 C 222.415 285.823,224.350 285.298,226.000 284.861 C 236.701 282.026,235.587 282.881,236.060 277.137 C 236.266 274.642,236.606 270.710,236.816 268.400 C 237.026 266.090,237.379 262.130,237.600 259.600 C 238.160 253.191,238.711 247.107,239.032 243.766 L 239.305 240.932 209.786 240.666 C 193.551 240.520,168.688 240.400,154.534 240.400 C 134.217 240.400,128.799 240.295,128.793 239.900 C 128.787 239.368,128.308 233.685,127.606 225.800 C 127.371 223.160,126.995 218.930,126.771 216.400 C 126.547 213.870,126.192 209.910,125.982 207.600 C 125.772 205.290,125.416 201.330,125.192 198.800 C 124.967 196.270,124.607 192.265,124.392 189.900 C 123.452 179.593,123.160 176.341,122.800 172.200 C 122.590 169.780,122.234 165.775,122.009 163.300 C 121.784 160.825,121.432 156.865,121.227 154.500 C 121.022 152.135,120.726 148.985,120.569 147.500 L 120.284 144.800 199.997 144.800 L 279.709 144.800 279.432 146.700 C 279.280 147.745,278.985 150.670,278.778 153.200 C 278.570 155.730,278.213 159.870,277.983 162.400 C 277.754 164.930,277.412 168.800,277.224 171.000 C 277.037 173.200,276.744 175.344,276.574 175.764 C 276.272 176.512,275.012 176.524,215.633 176.364 L 155.000 176.200 155.093 179.600 C 155.144 181.470,155.361 184.800,155.574 187.000 C 155.788 189.200,156.158 193.340,156.398 196.200 C 156.637 199.060,157.050 203.110,157.316 205.200 L 157.800 209.000 215.751 209.101 L 273.703 209.203 273.424 212.901 C 273.270 214.936,272.709 221.370,272.177 227.200 C 271.161 238.334,271.032 240.702,271.462 240.272 C 271.605 240.128,271.884 237.803,272.080 235.105 C 272.428 230.313,272.732 226.751,273.623 217.000 C 273.865 214.360,274.093 211.390,274.131 210.400 L 274.200 208.600 216.154 208.499 L 158.107 208.397 157.832 205.499 C 156.992 196.648,156.030 185.553,155.681 180.700 L 155.400 176.799 216.051 176.800 C 264.091 176.800,276.786 176.696,277.105 176.300 C 277.326 176.025,277.616 174.180,277.749 172.200 C 277.984 168.713,278.317 164.807,279.202 155.200 C 279.435 152.670,279.733 149.205,279.864 147.500 L 280.103 144.400 199.991 144.400 L 119.879 144.400 120.145 148.300 M270.649 244.918 C 270.458 247.292,270.399 249.333,270.518 249.451 C 270.870 249.803,271.267 245.593,271.127 243.000 C 271.013 240.899,270.954 241.138,270.649 244.918 M269.852 253.632 C 269.667 255.739,269.593 257.809,269.689 258.232 C 269.954 259.400,270.481 254.078,270.326 251.800 C 270.214 250.161,270.128 250.492,269.852 253.632 " stroke="none" fill="#e99171" fill-rule="evenodd"></path></g></svg>