<svg id="svg" version="1.1" xmlns="http://www.w3.org/2000/svg" xmlns:xlink="http://www.w3.org/1999/xlink" width="400" height="400" viewBox="0, 0, 400,400"><g id="svgg"><path id="path0" d="M146.400 137.271 C 145.630 137.718,144.940 138.245,144.867 138.442 C 144.793 138.639,144.378 138.800,143.943 138.800 C 143.508 138.800,143.264 138.980,143.400 139.200 C 143.536 139.420,143.277 139.600,142.824 139.600 C 142.371 139.600,142.000 139.780,142.000 140.000 C 142.000 140.220,141.764 140.400,141.475 140.400 C 141.187 140.400,140.564 140.760,140.092 141.200 C 139.620 141.640,139.039 142.000,138.801 142.000 C 137.792 142.000,135.116 143.676,135.505 144.065 C 135.870 144.430,137.380 143.887,138.000 143.168 C 138.110 143.040,138.785 142.681,139.500 142.370 C 140.215 142.059,140.800 141.658,140.800 141.479 C 140.800 141.299,140.965 141.255,141.168 141.380 C 141.370 141.505,141.799 141.344,142.120 141.023 C 142.442 140.701,142.815 140.548,142.950 140.683 C 143.085 140.818,143.556 140.602,143.998 140.202 C 144.439 139.803,144.803 139.639,144.806 139.838 C 144.809 140.037,144.944 140.011,145.106 139.779 C 145.444 139.296,148.105 138.000,148.760 138.000 C 149.077 138.000,149.191 150.521,149.168 182.900 C 149.151 207.595,149.034 227.538,148.908 227.218 C 148.782 226.898,148.346 226.279,147.939 225.843 C 147.533 225.406,147.200 224.813,147.200 224.525 C 147.200 224.236,147.054 224.000,146.875 224.000 C 146.696 224.000,146.302 223.370,146.000 222.600 C 145.698 221.830,145.338 221.200,145.200 221.200 C 145.062 221.200,144.702 220.570,144.400 219.800 C 144.098 219.030,143.748 218.400,143.623 218.400 C 143.498 218.400,143.141 217.815,142.830 217.100 C 142.519 216.385,142.160 215.710,142.032 215.600 C 141.904 215.490,141.423 214.680,140.962 213.800 C 140.500 212.920,139.735 211.525,139.262 210.700 C 137.228 207.160,136.621 206.090,135.574 204.200 C 134.210 201.739,124.168 183.784,121.703 179.400 C 119.832 176.072,118.683 173.993,116.288 169.600 C 115.508 168.170,114.214 165.830,113.412 164.400 C 112.610 162.970,111.596 161.035,111.159 160.100 C 110.289 158.243,110.172 158.160,109.466 158.900 C 107.561 160.899,107.598 160.503,107.630 178.486 C 107.658 194.670,107.881 199.840,108.485 198.328 C 108.820 197.489,112.800 199.269,112.800 200.258 C 112.800 201.001,109.709 207.034,108.928 207.815 C 108.415 208.328,108.420 208.477,108.971 209.029 C 109.317 209.374,109.600 209.824,109.600 210.029 C 109.600 210.233,109.878 210.400,110.217 210.400 C 110.556 210.400,111.220 210.760,111.692 211.200 C 112.164 211.640,112.787 212.000,113.075 212.000 C 113.364 212.000,113.600 212.180,113.600 212.400 C 113.600 212.620,113.878 212.800,114.217 212.800 C 114.556 212.800,115.220 213.160,115.692 213.600 C 116.164 214.040,116.787 214.400,117.075 214.400 C 117.364 214.400,117.600 214.580,117.600 214.800 C 117.600 215.020,117.960 215.200,118.400 215.200 C 118.840 215.200,119.200 215.380,119.200 215.600 C 119.200 215.820,119.494 216.000,119.853 216.000 C 120.212 216.000,120.842 216.388,121.253 216.861 C 121.664 217.335,122.000 217.595,122.000 217.439 C 122.000 217.084,124.306 218.360,125.363 219.300 C 125.797 219.685,126.387 220.000,126.675 220.000 C 126.964 220.000,127.200 220.180,127.200 220.400 C 127.200 220.620,127.483 220.800,127.828 220.800 C 128.173 220.800,129.208 221.310,130.128 221.933 C 131.904 223.136,133.208 223.768,133.700 223.664 C 133.865 223.629,134.000 223.780,134.000 224.000 C 134.000 224.220,134.294 224.400,134.653 224.400 C 135.012 224.400,135.597 224.715,135.953 225.100 C 136.309 225.485,136.870 225.859,137.200 225.930 C 137.530 226.002,137.860 226.227,137.933 226.430 C 138.007 226.634,138.412 226.800,138.833 226.800 C 139.255 226.800,139.600 226.960,139.600 227.156 C 139.600 227.352,140.365 227.893,141.300 228.358 C 143.015 229.212,143.720 229.623,145.660 230.900 C 146.245 231.285,147.011 231.600,147.362 231.600 C 147.713 231.600,148.000 231.780,148.000 232.000 C 148.000 232.674,151.482 232.485,151.746 231.796 C 151.873 231.464,152.200 231.239,152.471 231.296 C 152.742 231.353,152.972 231.190,152.982 230.933 C 152.992 230.677,153.164 230.317,153.364 230.133 C 153.576 229.940,153.608 230.010,153.441 230.300 C 153.039 230.997,153.532 230.925,154.280 230.177 C 154.623 229.834,155.189 229.664,155.539 229.798 C 155.889 229.932,156.048 229.914,155.891 229.758 C 155.463 229.330,156.393 228.400,157.249 228.400 C 157.662 228.400,158.000 228.220,158.000 228.000 C 158.000 227.780,158.283 227.600,158.629 227.600 C 158.974 227.600,159.529 227.328,159.861 226.996 C 160.193 226.664,160.630 226.495,160.832 226.620 C 161.035 226.745,161.200 226.657,161.200 226.424 C 161.200 226.191,161.571 226.000,162.024 226.000 C 162.477 226.000,162.736 225.820,162.600 225.600 C 162.464 225.380,162.734 225.200,163.200 225.200 C 163.666 225.200,163.950 225.042,163.830 224.849 C 163.711 224.655,164.128 224.394,164.758 224.268 C 165.388 224.142,166.155 223.805,166.461 223.520 C 166.768 223.234,167.283 222.941,167.606 222.868 C 167.928 222.795,168.326 222.525,168.490 222.268 C 168.654 222.011,168.793 221.980,168.800 222.200 C 168.808 222.458,168.916 222.455,169.106 222.190 C 169.268 221.965,170.265 221.335,171.322 220.790 C 172.379 220.246,173.587 219.485,174.005 219.100 C 174.424 218.715,175.044 218.400,175.383 218.400 C 175.722 218.400,176.000 218.220,176.000 218.000 C 176.000 217.780,176.360 217.600,176.800 217.600 C 177.240 217.600,177.600 217.442,177.600 217.249 C 177.600 217.055,178.140 216.673,178.800 216.400 C 179.460 216.127,180.000 215.745,180.000 215.551 C 180.000 215.358,180.360 215.200,180.800 215.200 C 181.240 215.200,181.600 215.020,181.600 214.800 C 181.600 214.580,181.960 214.400,182.400 214.400 C 182.840 214.400,183.200 214.220,183.200 214.000 C 183.200 213.780,183.470 213.600,183.800 213.600 C 184.130 213.600,184.400 213.420,184.400 213.200 C 184.400 212.980,184.670 212.800,185.000 212.800 C 185.330 212.800,185.600 212.620,185.600 212.400 C 185.600 212.180,185.960 212.000,186.400 212.000 C 186.840 212.000,187.200 211.820,187.200 211.600 C 187.200 211.380,187.456 211.200,187.769 211.200 C 188.082 211.200,189.072 210.451,189.969 209.536 L 191.600 207.873 191.600 184.336 L 191.600 160.800 190.000 159.200 C 189.120 158.320,188.130 157.600,187.800 157.600 C 187.470 157.600,187.200 157.420,187.200 157.200 C 187.200 156.980,186.840 156.800,186.400 156.800 C 185.960 156.800,185.600 156.648,185.600 156.463 C 185.600 156.277,184.745 155.692,183.700 155.163 C 182.655 154.633,181.740 154.065,181.667 153.900 C 181.593 153.735,181.271 153.600,180.950 153.600 C 180.629 153.600,179.980 153.240,179.508 152.800 C 179.036 152.360,178.413 152.000,178.125 152.000 C 177.836 152.000,177.600 151.820,177.600 151.600 C 177.600 151.380,177.240 151.200,176.800 151.200 C 176.360 151.200,176.000 151.020,176.000 150.800 C 176.000 150.580,175.764 150.400,175.475 150.400 C 175.187 150.400,174.602 150.085,174.175 149.700 C 173.749 149.315,172.860 148.730,172.200 148.401 C 171.540 148.071,170.910 147.711,170.800 147.601 C 170.406 147.205,168.187 145.946,167.500 145.729 C 167.115 145.607,166.800 145.348,166.800 145.153 C 166.800 144.959,166.455 144.800,166.033 144.800 C 165.612 144.800,165.207 144.665,165.133 144.500 C 164.937 144.059,160.985 142.000,160.334 142.000 C 160.028 142.000,159.517 141.640,159.200 141.200 C 158.883 140.760,158.303 140.400,157.912 140.400 C 157.520 140.400,157.200 140.220,157.200 140.000 C 157.200 139.780,156.930 139.600,156.600 139.600 C 156.270 139.600,156.000 139.420,156.000 139.200 C 156.000 138.980,155.640 138.800,155.200 138.800 C 154.760 138.800,154.400 138.653,154.400 138.474 C 154.400 136.795,148.694 135.937,146.400 137.271 M134.154 144.575 C 134.033 144.891,133.708 145.063,133.431 144.957 C 133.154 144.850,132.699 145.040,132.419 145.377 C 132.139 145.715,131.774 145.907,131.608 145.805 C 131.442 145.703,130.968 145.999,130.553 146.464 L 129.800 147.309 131.200 146.571 C 131.970 146.166,132.690 145.817,132.800 145.797 C 133.887 145.599,134.800 145.040,134.800 144.573 C 134.800 143.835,134.438 143.836,134.154 144.575 M350.600 175.324 C 350.160 175.586,349.710 175.890,349.600 176.000 C 349.490 176.110,349.169 176.247,348.888 176.304 C 348.606 176.361,347.386 177.065,346.176 177.868 L 343.977 179.328 344.089 184.361 L 344.200 189.394 345.800 190.298 C 346.680 190.795,347.715 191.313,348.100 191.448 C 348.485 191.583,348.800 191.852,348.800 192.047 C 348.800 192.241,349.160 192.400,349.600 192.400 C 350.040 192.400,350.400 192.580,350.400 192.800 C 350.400 193.020,350.760 193.200,351.200 193.200 C 351.640 193.200,352.000 193.380,352.000 193.600 C 352.000 193.820,352.540 194.000,353.200 194.000 C 353.860 194.000,354.400 193.820,354.400 193.600 C 354.400 193.380,354.670 193.200,355.000 193.200 C 355.330 193.200,355.600 193.020,355.600 192.800 C 355.600 192.580,355.855 192.400,356.167 192.400 C 356.478 192.400,356.793 192.265,356.867 192.100 C 356.940 191.935,357.945 191.364,359.100 190.832 L 361.200 189.863 361.200 184.394 C 361.200 178.772,360.867 177.600,359.269 177.600 C 359.011 177.600,358.800 177.441,358.800 177.247 C 358.800 176.903,357.304 176.270,356.700 176.357 C 356.535 176.381,356.400 176.220,356.400 176.000 C 356.400 175.780,356.040 175.600,355.600 175.600 C 355.160 175.600,354.800 175.420,354.800 175.200 C 354.800 174.646,351.578 174.741,350.600 175.324 M197.200 224.400 C 197.200 224.620,196.570 224.800,195.800 224.800 C 195.030 224.800,194.400 224.980,194.400 225.200 C 194.400 225.420,194.040 225.600,193.600 225.600 C 193.160 225.600,192.800 225.780,192.800 226.000 C 192.800 226.220,192.665 226.381,192.500 226.357 C 191.896 226.270,190.400 226.903,190.400 227.247 C 190.400 227.441,190.201 227.600,189.958 227.600 C 189.715 227.600,188.716 228.140,187.738 228.800 C 186.760 229.460,185.699 230.000,185.380 230.000 C 185.061 230.000,184.800 230.180,184.800 230.400 C 184.800 230.620,184.592 230.800,184.338 230.800 C 184.084 230.800,183.296 231.242,182.587 231.783 C 181.879 232.323,181.187 232.653,181.049 232.516 C 180.912 232.379,180.800 232.477,180.800 232.733 C 180.800 232.990,180.440 233.200,180.000 233.200 C 179.560 233.200,179.200 233.380,179.200 233.600 C 179.200 233.820,178.930 234.000,178.600 234.000 C 178.270 234.000,178.000 234.180,178.000 234.400 C 178.000 234.620,177.764 234.800,177.475 234.800 C 177.187 234.800,176.564 235.160,176.092 235.600 C 175.620 236.040,174.956 236.400,174.617 236.400 C 174.278 236.400,174.000 236.580,174.000 236.800 C 174.000 237.020,173.722 237.200,173.383 237.200 C 173.044 237.200,172.380 237.560,171.908 238.000 C 171.436 238.440,170.813 238.800,170.525 238.800 C 170.236 238.800,170.000 238.980,170.000 239.200 C 170.000 239.420,169.640 239.600,169.200 239.600 C 168.760 239.600,168.400 239.780,168.400 240.000 C 168.400 240.220,168.164 240.400,167.875 240.400 C 167.587 240.400,166.964 240.760,166.492 241.200 C 166.020 241.640,165.452 242.000,165.231 242.000 C 165.010 242.000,163.967 242.479,162.914 243.064 C 161.861 243.649,160.645 244.324,160.211 244.564 C 159.777 244.804,158.945 245.489,158.363 246.086 C 157.781 246.683,157.192 247.058,157.053 246.919 C 156.914 246.780,156.800 246.967,156.800 247.333 C 156.800 247.700,156.620 248.000,156.400 248.000 C 156.180 248.000,156.000 248.360,156.000 248.800 C 156.000 249.240,155.820 249.600,155.600 249.600 C 155.338 249.600,155.200 257.533,155.200 272.600 C 155.200 287.667,155.338 295.600,155.600 295.600 C 155.820 295.600,156.000 295.872,156.000 296.205 C 156.000 297.376,157.581 299.600,158.414 299.600 C 158.673 299.600,159.567 300.140,160.400 300.800 C 161.233 301.460,162.114 302.000,162.358 302.000 C 162.601 302.000,162.800 302.180,162.800 302.400 C 162.800 302.620,163.083 302.800,163.429 302.800 C 163.774 302.800,164.329 303.072,164.661 303.404 C 164.993 303.736,165.430 303.905,165.632 303.780 C 165.835 303.655,166.000 303.722,166.000 303.929 C 166.000 304.376,169.454 306.108,172.000 306.938 C 177.491 308.728,186.400 305.996,186.400 302.522 C 186.400 302.235,186.599 302.000,186.843 302.000 C 187.086 302.000,187.191 301.752,187.074 301.450 C 186.958 301.147,187.113 300.417,187.419 299.828 C 188.317 298.098,188.273 254.990,187.373 254.645 C 187.022 254.510,185.219 254.400,183.367 254.400 L 180.000 254.400 180.000 275.600 C 180.000 289.467,179.862 296.800,179.600 296.800 C 179.380 296.800,179.200 297.058,179.200 297.373 C 179.200 298.802,174.920 300.366,174.200 299.200 C 174.064 298.980,173.596 298.800,173.160 298.800 C 172.723 298.800,171.979 298.439,171.505 297.997 C 171.031 297.555,169.778 296.803,168.721 296.326 C 167.665 295.848,166.800 295.330,166.800 295.175 C 166.800 294.887,165.240 294.279,164.700 294.357 C 164.535 294.381,164.400 294.209,164.400 293.976 C 164.400 293.743,164.220 293.664,164.000 293.800 C 163.780 293.936,163.600 293.846,163.600 293.600 C 163.600 293.354,163.420 293.264,163.200 293.400 C 162.935 293.564,162.800 286.658,162.800 272.986 C 162.800 252.662,162.813 252.322,163.600 252.116 C 164.040 252.001,164.400 251.748,164.400 251.553 C 164.400 251.359,164.760 251.200,165.200 251.200 C 165.640 251.200,166.000 251.020,166.000 250.800 C 166.000 250.580,166.236 250.400,166.525 250.400 C 166.813 250.400,167.436 250.040,167.908 249.600 C 168.380 249.160,169.044 248.800,169.383 248.800 C 169.722 248.800,170.000 248.620,170.000 248.400 C 170.000 248.180,170.281 248.000,170.624 248.000 C 170.993 248.000,171.131 247.812,170.962 247.538 C 170.802 247.280,170.851 247.184,171.071 247.321 C 171.289 247.455,172.117 247.123,172.912 246.582 C 173.707 246.042,174.547 245.600,174.779 245.600 C 175.010 245.600,175.200 245.420,175.200 245.200 C 175.200 244.980,175.478 244.800,175.817 244.800 C 176.156 244.800,176.820 244.440,177.292 244.000 C 177.764 243.560,178.387 243.200,178.675 243.200 C 178.964 243.200,179.200 243.020,179.200 242.800 C 179.200 242.580,179.560 242.400,180.000 242.400 C 180.440 242.400,180.800 242.220,180.800 242.000 C 180.800 241.780,181.138 241.600,181.551 241.600 C 181.964 241.600,182.526 241.330,182.800 241.000 C 183.074 240.670,183.461 240.400,183.661 240.400 C 183.861 240.400,185.639 239.416,187.612 238.214 C 189.585 237.012,191.205 236.157,191.212 236.314 C 191.219 236.471,191.408 236.285,191.632 235.900 C 191.856 235.515,192.288 235.200,192.591 235.200 C 192.895 235.200,193.388 234.975,193.687 234.700 C 194.464 233.986,195.910 233.200,196.448 233.200 C 196.700 233.200,197.242 232.812,197.653 232.339 C 198.064 231.865,198.400 231.685,198.400 231.939 C 198.400 232.192,198.670 232.400,199.000 232.400 C 199.330 232.400,199.600 232.580,199.600 232.800 C 199.600 233.020,199.836 233.200,200.125 233.200 C 200.413 233.200,201.036 233.560,201.508 234.000 C 201.980 234.440,202.644 234.800,202.983 234.800 C 203.322 234.800,203.600 234.980,203.600 235.200 C 203.600 235.420,203.960 235.600,204.400 235.600 C 204.840 235.600,205.200 235.758,205.200 235.951 C 205.200 236.145,205.740 236.527,206.400 236.800 C 207.060 237.073,207.600 237.455,207.600 237.649 C 207.600 237.842,207.960 238.000,208.400 238.000 C 208.840 238.000,209.200 238.180,209.200 238.400 C 209.200 238.620,209.384 238.800,209.608 238.800 C 209.832 238.800,210.729 239.250,211.600 239.800 C 212.471 240.350,213.458 240.800,213.792 240.800 C 214.126 240.800,214.400 240.980,214.400 241.200 C 214.400 241.420,214.670 241.600,215.000 241.600 C 215.330 241.600,215.600 241.780,215.600 242.000 C 215.600 242.220,215.870 242.400,216.200 242.400 C 216.530 242.400,216.800 242.580,216.800 242.800 C 216.800 243.020,217.261 243.200,217.824 243.200 C 218.404 243.200,218.740 243.373,218.600 243.600 C 218.464 243.820,218.641 244.000,218.993 244.000 C 219.345 244.000,220.020 244.360,220.492 244.800 C 220.964 245.240,221.587 245.600,221.875 245.600 C 222.164 245.600,222.400 245.780,222.400 246.000 C 222.400 246.220,222.760 246.400,223.200 246.400 C 223.640 246.400,224.000 246.580,224.000 246.800 C 224.000 247.020,224.294 247.200,224.653 247.200 C 225.012 247.200,225.597 247.529,225.953 247.930 C 226.309 248.332,227.185 248.916,227.900 249.228 C 228.615 249.540,229.200 249.931,229.200 250.098 C 229.200 250.264,229.478 250.400,229.817 250.400 C 230.156 250.400,230.820 250.760,231.292 251.200 C 231.764 251.640,232.387 252.000,232.675 252.000 C 232.964 252.000,233.200 252.270,233.200 252.600 C 233.200 252.930,233.335 253.200,233.500 253.200 C 234.064 253.200,233.459 292.496,232.880 293.511 C 232.594 294.012,232.201 294.324,232.006 294.204 C 231.615 293.962,229.557 295.041,226.833 296.915 C 225.859 297.585,224.823 298.133,224.531 298.133 C 224.239 298.133,224.000 298.261,224.000 298.418 C 224.000 298.575,223.460 298.927,222.800 299.200 C 222.140 299.473,221.600 299.855,221.600 300.049 C 221.600 300.242,221.255 300.400,220.833 300.400 C 220.412 300.400,220.007 300.535,219.933 300.700 C 219.766 301.076,217.636 302.375,216.700 302.671 C 216.315 302.793,216.000 303.052,216.000 303.247 C 216.000 303.441,215.640 303.600,215.200 303.600 C 214.760 303.600,214.400 303.780,214.400 304.000 C 214.400 304.220,214.130 304.400,213.800 304.400 C 213.470 304.400,213.200 304.580,213.200 304.800 C 213.200 305.020,212.930 305.200,212.600 305.200 C 212.270 305.200,212.000 305.380,212.000 305.600 C 212.000 305.820,211.640 306.000,211.200 306.000 C 210.760 306.000,210.400 306.180,210.400 306.400 C 210.400 306.620,210.145 306.800,209.833 306.800 C 209.522 306.800,209.207 306.939,209.133 307.109 C 209.060 307.280,207.650 308.112,206.000 308.959 C 204.350 309.806,202.802 310.743,202.560 311.043 C 202.319 311.343,201.994 311.461,201.839 311.305 C 201.683 311.150,201.431 311.198,201.278 311.412 C 200.079 313.085,197.162 313.369,195.649 311.959 C 195.200 311.542,194.556 311.200,194.217 311.200 C 193.878 311.200,193.600 311.020,193.600 310.800 C 193.600 310.580,193.330 310.400,193.000 310.400 C 192.670 310.400,192.400 310.209,192.400 309.976 C 192.400 309.743,192.220 309.664,192.000 309.800 C 191.780 309.936,191.600 309.871,191.600 309.655 C 191.600 307.866,183.390 308.715,181.573 310.692 C 180.931 311.391,180.746 312.800,181.298 312.800 C 181.601 312.800,182.236 313.160,182.708 313.600 C 183.180 314.040,183.844 314.400,184.183 314.400 C 184.522 314.400,184.800 314.580,184.800 314.800 C 184.800 315.020,185.120 315.200,185.512 315.200 C 185.903 315.200,186.483 315.560,186.800 316.000 C 187.117 316.440,187.697 316.800,188.088 316.800 C 188.480 316.800,188.800 316.980,188.800 317.200 C 188.800 317.420,189.120 317.600,189.512 317.600 C 189.903 317.600,190.483 317.960,190.800 318.400 C 191.117 318.840,191.609 319.200,191.894 319.200 C 192.517 319.200,194.086 320.045,194.494 320.600 C 194.656 320.820,194.791 320.844,194.794 320.654 C 194.797 320.464,195.244 320.599,195.786 320.954 C 196.874 321.667,199.810 321.830,200.200 321.200 C 200.336 320.980,200.842 320.796,201.324 320.791 C 201.806 320.786,202.650 320.430,203.200 320.000 C 203.750 319.570,204.425 319.214,204.700 319.209 C 204.975 319.204,205.200 319.064,205.200 318.898 C 205.200 318.731,205.785 318.340,206.500 318.028 C 207.215 317.716,208.091 317.132,208.447 316.730 C 208.803 316.329,209.388 316.000,209.747 316.000 C 210.106 316.000,210.400 315.820,210.400 315.600 C 210.400 315.380,210.760 315.200,211.200 315.200 C 211.640 315.200,212.000 315.020,212.000 314.800 C 212.000 314.580,212.236 314.400,212.525 314.400 C 212.813 314.400,213.436 314.040,213.908 313.600 C 214.380 313.160,215.044 312.800,215.383 312.800 C 215.722 312.800,216.000 312.620,216.000 312.400 C 216.000 312.180,216.360 312.000,216.800 312.000 C 217.240 312.000,217.600 311.820,217.600 311.600 C 217.600 311.380,217.870 311.200,218.200 311.200 C 218.530 311.200,218.800 311.020,218.800 310.800 C 218.800 310.580,219.070 310.400,219.400 310.400 C 219.730 310.400,220.000 310.220,220.000 310.000 C 220.000 309.780,220.345 309.600,220.767 309.600 C 221.188 309.600,221.593 309.465,221.667 309.300 C 221.797 309.008,222.790 308.431,227.100 306.146 C 228.255 305.534,229.200 304.890,229.200 304.716 C 229.200 304.542,229.560 304.400,230.000 304.400 C 230.440 304.400,230.800 304.254,230.800 304.075 C 230.800 303.896,231.434 303.501,232.209 303.197 C 232.983 302.893,233.911 302.319,234.271 301.922 C 234.630 301.525,235.256 301.200,235.662 301.200 C 236.068 301.200,236.400 301.020,236.400 300.800 C 236.400 300.580,236.661 300.400,236.980 300.400 C 237.299 300.400,237.744 300.085,237.968 299.700 C 238.192 299.315,238.381 299.163,238.388 299.361 C 238.409 299.975,240.040 297.874,240.622 296.482 C 241.527 294.320,241.443 250.855,240.530 248.852 C 239.722 247.080,238.406 245.549,237.939 245.838 C 237.749 245.955,237.487 245.770,237.355 245.428 C 237.224 245.085,236.955 244.904,236.758 245.026 C 236.561 245.148,236.400 245.096,236.400 244.911 C 236.400 244.726,235.185 243.950,233.700 243.187 C 232.215 242.424,230.940 241.665,230.867 241.500 C 230.793 241.335,230.388 241.200,229.967 241.200 C 229.545 241.200,229.200 241.020,229.200 240.800 C 229.200 240.580,228.880 240.400,228.488 240.400 C 228.097 240.400,227.517 240.040,227.200 239.600 C 226.883 239.160,226.318 238.800,225.945 238.800 C 225.572 238.800,225.207 238.665,225.133 238.500 C 225.060 238.335,224.145 237.770,223.100 237.244 C 222.055 236.719,221.200 236.134,221.200 235.944 C 221.200 235.755,220.930 235.600,220.600 235.600 C 220.270 235.600,220.000 235.420,220.000 235.200 C 220.000 234.980,219.742 234.800,219.427 234.800 C 218.805 234.800,214.685 232.391,214.467 231.900 C 214.393 231.735,213.988 231.600,213.567 231.600 C 213.145 231.600,212.800 231.442,212.800 231.249 C 212.800 231.055,212.260 230.673,211.600 230.400 C 210.940 230.127,210.400 229.745,210.400 229.551 C 210.400 229.358,210.040 229.200,209.600 229.200 C 209.160 229.200,208.800 229.064,208.800 228.898 C 208.800 228.731,208.215 228.342,207.500 228.032 C 206.785 227.722,205.774 227.140,205.253 226.740 C 204.732 226.339,204.147 226.109,203.953 226.229 C 203.759 226.349,203.599 226.302,203.597 226.124 C 203.593 225.673,201.616 224.800,200.600 224.800 C 200.138 224.800,199.552 224.592,199.297 224.337 C 198.946 223.986,198.666 224.010,198.140 224.437 C 197.690 224.802,197.552 224.824,197.747 224.500 C 197.912 224.225,197.857 224.000,197.624 224.000 C 197.391 224.000,197.200 224.180,197.200 224.400 M250.826 242.931 C 242.439 244.889,244.085 257.593,252.726 257.599 C 256.119 257.601,259.600 255.384,259.600 253.223 C 259.600 252.796,259.781 252.335,260.002 252.199 C 260.478 251.905,260.420 248.459,259.935 248.160 C 259.751 248.046,259.600 247.603,259.600 247.176 C 259.600 246.749,259.420 246.400,259.200 246.400 C 258.980 246.400,258.800 246.135,258.800 245.812 C 258.800 245.237,256.595 243.341,256.066 243.461 C 255.920 243.494,255.530 243.384,255.200 243.216 C 254.023 242.617,252.574 242.523,250.826 242.931 M249.600 250.400 C 249.600 252.267,249.433 253.600,249.200 253.600 C 248.980 253.600,248.800 253.229,248.800 252.776 C 248.800 252.323,248.620 252.064,248.400 252.200 C 247.822 252.557,247.898 249.579,248.500 248.283 C 249.326 246.505,249.600 247.032,249.600 250.400 M257.049 247.792 C 257.661 248.404,257.772 252.954,257.166 252.579 C 257.002 252.478,256.783 252.621,256.680 252.898 C 256.257 254.025,255.734 251.381,256.078 249.851 C 256.274 248.979,256.342 248.026,256.230 247.733 C 255.960 247.031,256.314 247.056,257.049 247.792 M253.685 253.995 C 253.841 255.064,253.747 255.200,252.851 255.200 C 252.065 255.200,251.947 255.093,252.320 254.720 C 252.584 254.456,252.800 253.815,252.800 253.296 C 252.800 251.993,253.468 252.520,253.685 253.995 M200.400 254.000 C 200.400 254.220,199.860 254.400,199.200 254.400 C 198.540 254.400,198.000 254.546,198.000 254.725 C 198.000 254.904,197.370 255.298,196.600 255.600 C 195.830 255.902,195.200 256.296,195.200 256.475 C 195.200 256.654,194.919 256.800,194.576 256.800 C 194.233 256.800,194.064 256.980,194.200 257.200 C 194.336 257.420,194.170 257.600,193.831 257.600 C 193.491 257.600,193.095 258.093,192.946 258.700 C 192.798 259.305,192.570 259.890,192.438 260.000 C 191.279 260.973,190.529 269.200,191.600 269.200 C 191.820 269.200,192.000 269.487,192.000 269.838 C 192.000 270.606,193.502 272.800,194.027 272.800 C 194.232 272.800,194.760 273.160,195.200 273.600 C 195.640 274.040,196.349 274.400,196.776 274.400 C 197.203 274.400,197.664 274.580,197.800 274.800 C 197.936 275.020,198.656 275.200,199.400 275.200 C 200.144 275.200,200.864 275.380,201.000 275.600 C 201.136 275.820,202.317 276.000,203.624 276.000 C 204.941 276.000,206.000 276.178,206.000 276.400 C 206.000 276.631,207.267 276.800,209.000 276.800 C 210.733 276.800,212.000 276.969,212.000 277.200 C 212.000 277.420,212.585 277.603,213.300 277.606 C 214.762 277.613,217.401 278.441,218.060 279.100 C 219.500 280.540,217.675 284.800,215.618 284.800 C 215.168 284.800,214.800 284.980,214.800 285.200 C 214.800 285.448,212.608 285.600,209.024 285.600 C 205.604 285.600,203.146 285.437,203.000 285.200 C 202.864 284.980,202.403 284.800,201.976 284.800 C 201.549 284.800,201.200 284.620,201.200 284.400 C 201.200 284.180,200.917 284.000,200.571 284.000 C 199.763 284.000,198.800 283.037,198.800 282.229 C 198.800 281.883,198.620 281.600,198.400 281.600 C 198.180 281.600,198.000 280.992,198.000 280.249 C 198.000 278.365,197.264 277.928,194.076 277.916 C 190.568 277.903,189.600 278.393,189.600 280.181 C 189.600 280.925,189.764 281.593,189.964 281.667 C 190.165 281.740,190.382 282.520,190.447 283.400 C 190.714 286.989,194.990 291.600,198.050 291.600 C 198.463 291.600,198.800 291.780,198.800 292.000 C 198.800 292.220,199.509 292.400,200.376 292.400 C 201.243 292.400,202.064 292.580,202.200 292.800 C 202.348 293.039,204.996 293.200,208.800 293.200 C 212.604 293.200,215.252 293.039,215.400 292.800 C 215.536 292.580,216.267 292.400,217.024 292.400 C 217.781 292.400,218.400 292.220,218.400 292.000 C 218.400 291.780,218.854 291.600,219.408 291.600 C 224.451 291.600,229.153 280.899,226.300 275.916 C 225.467 274.460,222.529 271.600,221.868 271.600 C 221.526 271.600,221.136 271.420,221.000 271.200 C 220.864 270.980,220.234 270.800,219.600 270.800 C 218.966 270.800,218.336 270.620,218.200 270.400 C 218.064 270.180,217.344 270.000,216.600 270.000 C 215.856 270.000,215.136 269.820,215.000 269.600 C 214.864 269.380,213.493 269.200,211.953 269.200 C 210.188 269.200,209.244 269.052,209.400 268.800 C 209.554 268.550,208.737 268.400,207.224 268.400 C 205.875 268.400,204.800 268.223,204.800 268.000 C 204.800 267.780,204.258 267.600,203.595 267.600 C 202.932 267.600,202.077 267.433,201.695 267.229 C 201.313 267.025,200.685 266.761,200.300 266.642 C 198.728 266.155,199.687 262.000,201.371 262.000 C 201.717 262.000,202.000 261.820,202.000 261.600 C 202.000 261.380,202.709 261.200,203.576 261.200 C 204.443 261.200,205.264 261.020,205.400 260.800 C 205.536 260.580,206.616 260.400,207.800 260.400 C 208.984 260.400,210.064 260.580,210.200 260.800 C 210.336 261.020,211.211 261.200,212.145 261.200 C 213.986 261.200,216.800 263.228,216.800 264.554 C 216.800 264.909,216.980 265.200,217.200 265.200 C 217.420 265.200,217.600 265.553,217.600 265.984 C 217.600 267.535,219.131 268.400,221.875 268.400 C 223.264 268.400,224.400 268.232,224.400 268.027 C 224.400 267.822,224.738 267.547,225.150 267.416 C 225.925 267.170,226.218 265.382,225.550 264.969 C 225.357 264.850,225.200 264.167,225.200 263.451 C 225.200 260.992,221.987 256.000,220.403 256.000 C 220.182 256.000,220.000 255.820,220.000 255.600 C 220.000 255.380,219.651 255.200,219.224 255.200 C 218.797 255.200,218.336 255.020,218.200 254.800 C 218.064 254.580,217.524 254.400,217.000 254.400 C 216.476 254.400,215.936 254.220,215.800 254.000 C 215.649 253.756,212.596 253.600,207.976 253.600 C 203.192 253.600,200.400 253.747,200.400 254.000 M223.100 267.887 C 222.495 267.978,221.505 267.978,220.900 267.887 C 220.295 267.795,220.790 267.720,222.000 267.720 C 223.210 267.720,223.705 267.795,223.100 267.887 " stroke="none" fill="#59994d" fill-rule="evenodd"></path><path id="path1" d="M146.800 138.692 C 146.030 139.063,145.268 139.554,145.106 139.783 C 144.944 140.012,144.809 140.037,144.806 139.838 C 144.803 139.639,144.439 139.803,143.998 140.202 C 143.556 140.602,143.085 140.818,142.950 140.683 C 142.815 140.548,142.442 140.701,142.120 141.023 C 141.799 141.344,141.370 141.505,141.168 141.380 C 140.965 141.255,140.800 141.364,140.800 141.623 C 140.800 141.896,140.465 142.006,139.999 141.884 C 139.559 141.769,139.301 141.839,139.425 142.040 C 139.549 142.241,139.324 142.526,138.925 142.674 C 138.526 142.821,138.110 143.045,138.000 143.171 C 137.280 143.996,135.902 144.416,135.369 143.974 C 134.906 143.590,134.800 143.668,134.800 144.394 C 134.800 145.035,134.626 145.219,134.179 145.047 C 133.823 144.911,133.663 144.978,133.803 145.205 C 134.043 145.592,133.689 145.712,132.309 145.708 C 131.929 145.707,131.715 145.862,131.833 146.053 C 131.951 146.244,131.812 146.427,131.524 146.461 C 131.236 146.494,130.820 146.544,130.600 146.571 C 129.848 146.665,129.187 147.255,129.417 147.628 C 129.544 147.832,129.277 148.000,128.824 148.000 C 128.371 148.000,128.000 148.180,128.000 148.400 C 128.000 148.620,127.629 148.800,127.176 148.800 C 126.723 148.800,126.463 148.978,126.597 149.195 C 126.737 149.422,126.577 149.489,126.221 149.353 C 125.818 149.198,125.600 149.341,125.600 149.757 C 125.600 150.187,125.246 150.400,124.533 150.400 C 123.947 150.400,123.584 150.517,123.727 150.661 C 124.065 150.998,122.138 151.998,120.964 152.095 C 120.465 152.136,120.089 152.357,120.128 152.585 C 120.168 152.813,119.975 152.955,119.700 152.900 C 119.425 152.845,119.200 152.980,119.200 153.200 C 119.200 153.420,118.829 153.600,118.376 153.600 C 117.923 153.600,117.664 153.780,117.800 154.000 C 117.936 154.220,117.767 154.400,117.424 154.400 C 117.081 154.400,116.799 154.535,116.797 154.700 C 116.795 154.865,116.345 155.208,115.796 155.463 C 115.042 155.813,114.855 155.813,115.030 155.463 C 115.157 155.208,114.903 155.405,114.466 155.900 C 114.029 156.395,113.476 156.800,113.236 156.800 C 112.996 156.800,112.800 156.959,112.800 157.153 C 112.800 157.508,111.287 158.133,110.670 158.033 C 110.205 157.958,110.721 159.514,111.787 161.400 C 112.284 162.280,113.255 164.035,113.945 165.300 C 114.635 166.565,115.740 168.590,116.400 169.800 C 118.808 174.215,119.940 176.264,121.703 179.400 C 124.168 183.784,134.210 201.739,135.574 204.200 C 136.621 206.090,137.228 207.160,139.262 210.700 C 139.735 211.525,140.500 212.920,140.962 213.800 C 141.423 214.680,141.904 215.490,142.032 215.600 C 142.160 215.710,142.519 216.385,142.830 217.100 C 143.141 217.815,143.498 218.400,143.623 218.400 C 143.748 218.400,144.098 219.030,144.400 219.800 C 144.702 220.570,145.062 221.200,145.200 221.200 C 145.338 221.200,145.698 221.830,146.000 222.600 C 146.302 223.370,146.696 224.000,146.875 224.000 C 147.054 224.000,147.200 224.236,147.200 224.525 C 147.200 224.813,147.533 225.406,147.939 225.843 C 148.346 226.279,148.782 226.898,148.908 227.218 C 149.034 227.538,149.151 207.595,149.168 182.900 C 149.194 147.225,149.097 138.002,148.700 138.009 C 148.425 138.014,147.570 138.322,146.800 138.692 M107.657 201.900 C 107.604 207.578,107.651 208.000,108.336 208.000 C 109.086 208.000,112.800 201.572,112.800 200.275 C 112.800 199.272,108.825 197.481,108.478 198.328 C 108.286 198.795,108.128 198.513,107.958 197.400 C 107.824 196.520,107.688 198.545,107.657 201.900 M155.315 229.338 C 154.609 229.812,154.024 230.347,154.015 230.527 C 154.007 230.707,154.523 230.482,155.162 230.027 C 155.801 229.572,156.510 229.200,156.738 229.200 C 156.966 229.200,157.264 229.020,157.400 228.800 C 157.814 228.131,156.676 228.424,155.315 229.338 M233.290 272.900 C 233.340 283.735,233.429 289.450,233.489 285.600 C 233.768 267.632,233.773 253.200,233.500 253.200 C 233.335 253.200,233.241 262.065,233.290 272.900 M220.900 267.887 C 221.505 267.978,222.495 267.978,223.100 267.887 C 223.705 267.795,223.210 267.720,222.000 267.720 C 220.790 267.720,220.295 267.795,220.900 267.887 M192.707 277.890 C 193.426 277.979,194.506 277.977,195.107 277.886 C 195.708 277.795,195.120 277.722,193.800 277.724 C 192.480 277.726,191.988 277.801,192.707 277.890 " stroke="none" fill="#66b848" fill-rule="evenodd"></path><path id="path2" d="M265.036 83.270 C 264.469 84.080,264.400 87.322,264.400 113.242 L 264.400 142.307 263.413 142.495 C 262.794 142.614,262.129 142.407,261.630 141.942 C 261.192 141.534,260.556 141.200,260.217 141.200 C 259.878 141.200,259.600 141.020,259.600 140.800 C 259.600 140.580,259.240 140.400,258.800 140.400 C 258.360 140.400,258.000 140.259,258.000 140.086 C 258.000 139.622,255.755 138.379,255.456 138.677 C 255.315 138.818,255.200 138.723,255.200 138.467 C 255.200 138.210,254.919 138.000,254.576 138.000 C 254.233 138.000,254.064 137.820,254.200 137.600 C 254.357 137.346,253.263 137.200,251.200 137.200 C 249.137 137.200,248.043 137.346,248.200 137.600 C 248.336 137.820,248.078 138.000,247.627 138.000 C 247.176 138.000,246.582 138.360,246.307 138.800 C 246.032 139.240,245.390 139.600,244.880 139.600 C 244.370 139.600,244.040 139.742,244.148 139.915 C 244.255 140.088,243.770 140.477,243.071 140.778 C 242.372 141.079,241.305 141.670,240.700 142.090 C 240.095 142.510,239.600 142.739,239.600 142.599 C 239.600 142.458,239.317 142.626,238.971 142.971 C 238.626 143.317,238.113 143.600,237.833 143.600 C 237.552 143.600,236.912 143.956,236.410 144.392 C 235.908 144.827,235.359 145.098,235.190 144.994 C 235.022 144.890,234.782 145.071,234.657 145.396 C 234.517 145.761,234.171 145.887,233.750 145.725 C 233.289 145.548,233.162 145.615,233.358 145.932 C 233.539 146.226,233.368 146.400,232.899 146.400 C 232.488 146.400,231.764 146.760,231.292 147.200 C 230.820 147.640,230.222 148.000,229.964 148.000 C 229.705 148.000,229.158 148.388,228.747 148.861 C 228.336 149.335,227.994 149.560,227.987 149.361 C 227.980 149.163,227.710 149.349,227.387 149.776 C 227.064 150.204,226.800 150.331,226.800 150.061 C 226.800 149.770,226.442 149.902,225.925 150.384 C 225.443 150.833,224.813 151.200,224.525 151.200 C 224.236 151.200,224.000 151.380,224.000 151.600 C 224.000 151.820,223.640 152.000,223.200 152.000 C 222.760 152.000,222.400 152.180,222.400 152.400 C 222.400 152.620,222.158 152.800,221.862 152.800 C 221.566 152.800,220.998 153.160,220.600 153.600 C 220.202 154.040,219.649 154.400,219.371 154.400 C 219.094 154.400,218.807 154.564,218.733 154.763 C 218.660 154.963,218.240 155.188,217.800 155.263 C 217.360 155.339,216.651 155.715,216.225 156.100 C 215.798 156.485,215.305 156.800,215.129 156.800 C 214.953 156.800,214.455 157.103,214.022 157.474 C 213.588 157.845,212.641 158.349,211.917 158.594 C 211.193 158.839,210.649 159.269,210.710 159.549 C 210.770 159.830,210.656 159.958,210.455 159.834 C 209.272 159.103,209.169 160.973,209.085 184.635 L 209.000 208.551 210.600 210.176 C 211.480 211.069,212.470 211.859,212.800 211.930 C 213.130 212.002,213.460 212.227,213.533 212.430 C 213.607 212.634,214.132 212.800,214.700 212.800 C 215.268 212.800,215.616 212.917,215.473 213.060 C 215.061 213.472,216.498 214.373,217.600 214.393 C 218.394 214.408,218.477 214.492,218.000 214.800 C 217.515 215.114,217.572 215.189,218.300 215.194 C 218.795 215.197,219.200 215.380,219.200 215.600 C 219.200 215.820,219.560 216.000,220.000 216.000 C 220.440 216.000,220.800 216.180,220.800 216.400 C 220.800 216.620,221.081 216.800,221.424 216.800 C 221.767 216.800,221.936 216.980,221.800 217.200 C 221.664 217.420,221.923 217.600,222.376 217.600 C 222.829 217.600,223.200 217.780,223.200 218.000 C 223.200 218.220,223.560 218.400,224.000 218.400 C 224.440 218.400,224.800 218.580,224.800 218.800 C 224.800 219.020,225.070 219.200,225.400 219.200 C 225.730 219.200,226.000 219.391,226.000 219.624 C 226.000 219.857,226.165 219.945,226.366 219.821 C 226.568 219.696,227.268 220.046,227.924 220.597 C 228.579 221.149,229.315 221.600,229.558 221.600 C 229.801 221.600,230.000 221.774,230.000 221.987 C 230.000 222.201,230.247 222.280,230.548 222.164 C 230.850 222.049,231.209 222.246,231.346 222.602 C 231.482 222.959,231.776 223.139,231.997 223.002 C 232.219 222.865,232.400 222.954,232.400 223.200 C 232.400 223.446,232.580 223.536,232.800 223.400 C 233.020 223.264,233.200 223.354,233.200 223.600 C 233.200 223.846,233.380 223.936,233.600 223.800 C 233.820 223.664,234.000 223.722,234.000 223.928 C 234.000 224.134,234.540 224.527,235.200 224.800 C 235.860 225.073,236.400 225.455,236.400 225.649 C 236.400 225.842,236.672 226.000,237.005 226.000 C 237.561 226.000,239.124 226.723,239.600 227.201 C 239.710 227.311,240.295 227.656,240.900 227.968 C 241.505 228.280,242.000 228.685,242.000 228.868 C 242.000 229.050,242.270 229.200,242.600 229.200 C 242.930 229.200,243.200 229.380,243.200 229.600 C 243.200 229.820,243.560 230.000,244.000 230.000 C 244.440 230.000,244.800 230.180,244.800 230.400 C 244.800 230.620,245.036 230.800,245.325 230.800 C 245.613 230.800,246.198 231.115,246.625 231.500 C 247.051 231.885,247.850 232.263,248.400 232.339 C 248.950 232.415,249.617 232.656,249.881 232.872 C 250.515 233.392,253.255 233.137,253.932 232.496 C 254.225 232.219,254.630 232.095,254.832 232.220 C 255.035 232.345,255.200 232.257,255.200 232.024 C 255.200 231.791,255.481 231.600,255.824 231.600 C 256.167 231.600,256.336 231.420,256.200 231.200 C 256.064 230.980,256.323 230.800,256.776 230.800 C 257.229 230.800,257.600 230.653,257.600 230.474 C 257.600 230.092,260.658 228.400,261.349 228.400 C 261.610 228.400,262.083 228.040,262.400 227.600 C 262.717 227.160,263.297 226.800,263.688 226.800 C 264.080 226.800,264.400 226.620,264.400 226.400 C 264.400 226.180,264.771 226.000,265.224 226.000 C 265.677 226.000,265.936 225.820,265.800 225.600 C 265.664 225.380,265.934 225.200,266.400 225.200 C 266.939 225.200,267.143 225.032,266.962 224.738 C 266.799 224.475,266.851 224.384,267.082 224.527 C 267.536 224.807,269.592 223.968,269.597 223.500 C 269.599 223.335,269.870 223.200,270.200 223.200 C 270.530 223.200,270.800 223.009,270.800 222.776 C 270.800 222.543,270.965 222.455,271.168 222.580 C 271.370 222.705,271.780 222.581,272.079 222.304 C 273.206 221.258,275.188 220.000,275.708 220.000 C 276.006 220.000,276.615 219.659,277.062 219.243 C 278.156 218.223,280.239 217.172,280.549 217.483 C 280.687 217.621,280.800 217.523,280.800 217.267 C 280.800 217.010,281.036 216.800,281.325 216.800 C 281.613 216.800,282.231 216.444,282.699 216.009 C 283.166 215.573,283.785 215.168,284.074 215.109 C 284.363 215.049,284.915 214.657,285.300 214.239 C 285.685 213.820,286.000 213.692,286.000 213.954 C 286.000 214.220,286.387 214.070,286.875 213.616 C 287.357 213.167,287.987 212.800,288.275 212.800 C 288.564 212.800,288.800 212.620,288.800 212.400 C 288.800 212.180,289.141 212.000,289.557 212.000 C 289.974 212.000,290.428 211.704,290.567 211.343 C 290.705 210.981,290.924 210.790,291.052 210.919 C 291.180 211.047,291.716 210.721,292.242 210.194 L 293.200 209.236 293.200 152.990 C 293.200 108.038,293.098 96.641,292.692 96.235 C 292.412 95.955,291.767 95.503,291.257 95.231 C 290.748 94.958,290.434 94.632,290.560 94.507 C 290.835 94.232,288.936 93.200,288.154 93.200 C 287.849 93.200,287.600 93.001,287.600 92.757 C 287.600 92.514,287.358 92.407,287.062 92.521 C 286.766 92.634,286.276 92.384,285.974 91.964 C 285.671 91.544,285.003 91.200,284.488 91.200 C 283.966 91.200,283.662 91.023,283.800 90.800 C 283.936 90.580,283.784 90.400,283.461 90.400 C 282.710 90.400,279.811 88.856,278.807 87.921 C 278.381 87.524,277.666 87.200,277.217 87.200 C 276.768 87.200,276.400 87.020,276.400 86.800 C 276.400 86.580,276.130 86.400,275.800 86.400 C 275.470 86.400,275.200 86.220,275.200 86.000 C 275.200 85.780,274.930 85.600,274.600 85.600 C 274.270 85.600,274.000 85.420,274.000 85.200 C 274.000 84.980,273.722 84.800,273.383 84.800 C 273.044 84.800,272.380 84.440,271.908 84.000 C 271.436 83.560,270.813 83.200,270.525 83.200 C 270.236 83.200,270.000 83.051,270.000 82.868 C 270.000 82.003,265.679 82.352,265.036 83.270 M44.715 136.498 C 43.898 136.953,43.324 137.477,43.439 137.662 C 43.553 137.848,43.359 138.000,43.007 138.000 C 42.655 138.000,41.980 138.360,41.508 138.800 C 41.036 139.240,40.273 139.600,39.813 139.600 C 39.353 139.600,38.717 139.960,38.400 140.400 C 38.083 140.840,37.503 141.200,37.112 141.200 C 36.720 141.200,36.400 141.380,36.400 141.600 C 36.400 141.820,36.136 142.000,35.814 142.000 C 35.001 142.000,32.400 143.276,32.400 143.674 C 32.400 143.853,32.145 144.000,31.833 144.000 C 31.522 144.000,31.203 144.190,31.126 144.422 C 31.049 144.654,30.701 144.885,30.353 144.936 C 30.005 144.987,29.249 145.338,28.674 145.715 C 28.099 146.092,27.412 146.400,27.147 146.400 C 26.883 146.400,26.784 146.517,26.927 146.661 C 27.231 146.965,25.379 148.000,24.531 148.000 C 24.213 148.000,24.045 148.150,24.158 148.332 C 24.271 148.515,23.742 148.909,22.982 149.207 C 22.222 149.505,21.600 149.896,21.600 150.075 C 21.600 150.254,21.240 150.400,20.800 150.400 C 20.360 150.400,20.000 150.580,20.000 150.800 C 20.000 151.020,19.706 151.200,19.347 151.200 C 18.988 151.200,18.401 151.515,18.043 151.900 C 17.195 152.811,15.775 153.600,14.982 153.600 C 14.636 153.600,14.464 153.780,14.600 154.000 C 14.736 154.220,14.478 154.400,14.027 154.400 C 13.576 154.400,12.982 154.760,12.707 155.200 C 12.431 155.643,11.774 156.000,11.237 156.000 C 10.703 156.000,10.384 156.117,10.527 156.261 C 10.790 156.523,9.028 157.600,8.335 157.600 C 8.130 157.600,7.526 158.095,6.993 158.700 L 6.025 159.800 6.013 190.624 C 6.002 215.411,6.103 221.587,6.524 222.163 C 7.016 222.836,10.195 223.440,9.790 222.783 C 9.634 222.531,11.008 221.956,11.338 222.135 C 11.403 222.171,11.772 221.885,12.157 221.500 C 12.542 221.115,13.204 220.800,13.629 220.800 C 14.053 220.800,14.400 220.620,14.400 220.400 C 14.400 220.180,14.771 220.000,15.224 220.000 C 15.677 220.000,15.936 219.820,15.800 219.600 C 15.664 219.380,15.896 219.200,16.314 219.200 C 16.733 219.200,17.402 218.840,17.800 218.400 C 18.198 217.960,18.779 217.600,19.091 217.600 C 19.402 217.600,19.929 217.328,20.261 216.996 C 20.593 216.664,21.011 216.483,21.190 216.594 C 21.370 216.705,21.624 216.515,21.755 216.172 C 21.887 215.830,22.176 215.661,22.397 215.798 C 22.619 215.935,22.800 215.857,22.800 215.624 C 22.800 215.391,23.070 215.200,23.400 215.200 C 23.730 215.200,24.000 215.020,24.000 214.800 C 24.000 214.580,24.270 214.400,24.600 214.400 C 24.930 214.400,25.200 214.220,25.200 214.000 C 25.200 213.780,25.470 213.600,25.800 213.600 C 26.130 213.600,26.400 213.420,26.400 213.200 C 26.400 212.980,26.810 212.800,27.312 212.800 C 27.813 212.800,28.483 212.440,28.800 212.000 C 29.117 211.560,29.697 211.200,30.088 211.200 C 30.480 211.200,30.800 211.020,30.800 210.800 C 30.800 210.580,31.035 210.400,31.322 210.400 C 31.851 210.400,34.865 207.839,34.823 207.425 C 34.810 207.301,34.800 200.495,34.800 192.300 C 34.801 175.850,34.796 175.884,37.500 175.030 C 37.995 174.874,38.400 174.578,38.400 174.373 C 38.400 174.168,38.672 174.000,39.005 174.000 C 39.797 174.000,41.212 173.194,42.096 172.239 C 42.483 171.820,42.800 171.608,42.800 171.767 C 42.800 171.927,43.083 171.774,43.429 171.429 C 43.774 171.083,44.327 170.800,44.657 170.800 C 44.987 170.800,45.529 170.528,45.861 170.196 C 46.193 169.864,46.630 169.695,46.832 169.820 C 47.035 169.945,47.200 169.857,47.200 169.624 C 47.200 168.948,48.974 169.134,49.840 169.900 C 50.275 170.285,50.868 170.651,51.158 170.714 C 51.448 170.777,51.951 171.094,52.275 171.418 C 52.599 171.742,53.003 171.922,53.172 171.818 C 53.341 171.713,53.866 171.988,54.339 172.429 C 54.813 172.870,55.206 173.089,55.213 172.916 C 55.220 172.742,55.488 172.947,55.809 173.371 C 56.129 173.795,56.515 174.018,56.666 173.867 C 56.817 173.716,57.374 173.999,57.903 174.496 C 58.432 174.993,58.940 175.355,59.032 175.300 C 59.477 175.035,60.019 175.246,59.800 175.600 C 59.664 175.820,59.743 176.000,59.976 176.000 C 60.209 176.000,60.400 176.360,60.400 176.800 C 60.400 177.240,60.580 177.600,60.800 177.600 C 61.060 177.600,61.200 182.871,61.200 192.613 L 61.200 207.627 62.587 209.013 C 63.349 209.776,64.162 210.400,64.392 210.400 C 64.932 210.400,66.342 211.209,67.355 212.100 C 67.793 212.485,68.387 212.800,68.675 212.800 C 68.964 212.800,69.200 212.980,69.200 213.200 C 69.200 213.420,69.661 213.600,70.224 213.600 C 70.804 213.600,71.140 213.773,71.000 214.000 C 70.864 214.220,71.084 214.400,71.488 214.400 C 71.893 214.400,72.483 214.760,72.800 215.200 C 73.117 215.640,73.697 216.000,74.088 216.000 C 74.480 216.000,74.801 216.135,74.803 216.300 C 74.807 216.654,76.739 217.600,77.457 217.600 C 77.731 217.600,78.206 217.959,78.513 218.397 C 78.820 218.836,79.165 219.102,79.279 218.988 C 79.393 218.874,79.714 219.055,79.992 219.390 C 80.270 219.726,80.746 220.000,81.049 220.000 C 81.352 220.000,81.600 220.180,81.600 220.400 C 81.600 220.620,81.735 220.779,81.900 220.753 C 82.793 220.612,83.617 220.850,83.407 221.188 C 83.275 221.402,83.670 221.693,84.284 221.836 C 84.898 221.979,85.580 222.304,85.800 222.558 C 86.250 223.079,88.400 223.176,88.400 222.676 C 88.400 222.498,88.548 222.444,88.729 222.556 C 90.144 223.431,90.201 222.178,90.169 190.800 C 90.137 160.142,90.067 158.411,88.853 158.387 C 88.024 158.371,86.728 157.405,87.073 157.060 C 87.216 156.917,86.853 156.800,86.267 156.800 C 85.680 156.800,85.200 156.620,85.200 156.400 C 85.200 156.180,84.996 156.000,84.747 156.000 C 84.498 156.000,83.971 155.628,83.577 155.174 C 83.183 154.719,82.751 154.372,82.618 154.402 C 82.245 154.485,80.000 153.435,80.000 153.177 C 80.000 153.052,79.378 152.705,78.618 152.407 C 77.858 152.109,77.310 151.745,77.401 151.599 C 77.491 151.453,77.347 151.333,77.080 151.333 C 76.813 151.333,75.851 150.864,74.942 150.289 C 74.032 149.715,73.178 149.325,73.044 149.423 C 72.910 149.520,72.887 149.483,72.994 149.340 C 73.258 148.985,71.947 148.028,71.175 148.013 C 70.832 148.006,70.202 147.678,69.775 147.285 C 69.349 146.892,68.417 146.331,67.705 146.039 C 66.993 145.746,66.509 145.348,66.629 145.154 C 66.749 144.959,66.421 144.800,65.899 144.800 C 65.378 144.800,64.557 144.433,64.075 143.984 C 63.594 143.536,63.200 143.279,63.200 143.413 C 63.200 143.547,62.915 143.373,62.568 143.025 C 62.220 142.677,61.770 142.495,61.568 142.620 C 61.365 142.745,61.199 142.702,61.197 142.524 C 61.193 142.146,59.280 141.200,58.520 141.200 C 58.234 141.200,58.000 141.020,58.000 140.800 C 58.000 140.580,57.719 140.400,57.376 140.400 C 57.033 140.400,56.864 140.220,57.000 140.000 C 57.136 139.780,56.967 139.600,56.624 139.600 C 56.281 139.600,56.000 139.420,56.000 139.200 C 56.000 138.980,55.713 138.800,55.362 138.800 C 54.708 138.800,52.306 137.280,52.067 136.714 C 51.993 136.542,51.599 136.400,51.190 136.400 C 50.782 136.400,50.336 136.220,50.200 136.000 C 49.848 135.430,47.063 135.504,46.421 136.100 C 45.990 136.500,45.939 136.500,46.165 136.100 C 46.510 135.490,46.540 135.481,44.715 136.498 M350.400 136.800 C 350.400 137.020,350.029 137.200,349.576 137.200 C 349.123 137.200,348.864 137.380,349.000 137.600 C 349.136 137.820,348.904 138.000,348.486 138.000 C 348.067 138.000,347.398 138.360,347.000 138.800 C 346.602 139.240,345.933 139.600,345.514 139.600 C 345.096 139.600,344.844 139.747,344.955 139.927 C 345.066 140.107,344.492 140.494,343.679 140.787 C 342.865 141.079,341.930 141.624,341.600 141.997 C 341.270 142.370,340.802 142.607,340.560 142.524 C 340.318 142.441,339.891 142.649,339.611 142.987 C 339.331 143.324,338.882 143.600,338.612 143.600 C 338.343 143.600,337.712 143.956,337.210 144.392 C 336.708 144.827,336.140 145.087,335.948 144.968 C 335.757 144.850,335.600 144.943,335.600 145.176 C 335.600 145.409,335.229 145.600,334.776 145.600 C 334.323 145.600,334.064 145.780,334.200 146.000 C 334.336 146.220,334.104 146.400,333.686 146.400 C 333.267 146.400,332.598 146.760,332.200 147.200 C 331.802 147.640,331.133 148.000,330.714 148.000 C 330.296 148.000,330.064 148.180,330.200 148.400 C 330.336 148.620,330.099 148.800,329.673 148.800 C 329.247 148.800,328.676 149.068,328.404 149.396 C 328.132 149.723,327.750 149.893,327.555 149.772 C 327.360 149.651,327.200 149.743,327.200 149.976 C 327.200 150.209,326.930 150.400,326.600 150.400 C 326.270 150.400,326.000 150.580,326.000 150.800 C 326.000 151.020,325.730 151.200,325.400 151.200 C 325.070 151.200,324.800 151.347,324.800 151.526 C 324.800 151.705,324.125 152.218,323.300 152.665 C 322.475 153.112,320.968 153.949,319.951 154.524 C 318.934 155.098,317.960 155.441,317.787 155.284 C 317.614 155.128,317.601 155.225,317.759 155.500 C 317.937 155.809,317.809 156.000,317.424 156.000 C 317.081 156.000,316.800 156.180,316.800 156.400 C 316.800 156.620,316.440 156.800,316.000 156.800 C 315.560 156.800,315.200 156.980,315.200 157.200 C 315.200 157.420,314.810 157.600,314.333 157.600 C 313.857 157.600,313.594 157.727,313.749 157.882 C 313.904 158.038,313.439 158.444,312.716 158.785 C 311.904 159.167,311.351 159.748,311.272 160.302 C 311.202 160.796,310.980 161.200,310.779 161.200 C 310.562 161.200,310.413 170.657,310.413 184.400 C 310.413 199.340,310.553 207.600,310.807 207.600 C 311.023 207.600,311.200 207.870,311.200 208.200 C 311.200 208.530,311.410 208.800,311.667 208.800 C 311.923 208.800,312.016 208.917,311.873 209.060 C 311.499 209.434,312.854 210.371,313.800 210.393 C 314.464 210.409,314.498 210.478,314.000 210.800 C 313.532 211.102,313.643 211.189,314.500 211.194 C 315.105 211.197,315.600 211.380,315.600 211.600 C 315.600 211.820,315.788 212.000,316.017 212.000 C 316.246 212.000,316.820 212.360,317.292 212.800 C 317.764 213.240,318.387 213.600,318.675 213.600 C 318.964 213.600,319.200 213.780,319.200 214.000 C 319.200 214.220,319.560 214.400,320.000 214.400 C 320.440 214.400,320.800 214.580,320.800 214.800 C 320.800 215.020,321.120 215.200,321.512 215.200 C 321.903 215.200,322.483 215.560,322.800 216.000 C 323.117 216.440,323.697 216.800,324.088 216.800 C 324.480 216.800,324.800 216.980,324.800 217.200 C 324.800 217.420,324.935 217.569,325.100 217.530 C 325.608 217.412,327.726 218.508,329.258 219.682 C 330.059 220.297,330.914 220.800,331.158 220.800 C 331.401 220.800,331.600 220.991,331.600 221.224 C 331.600 221.457,331.765 221.545,331.968 221.420 C 332.170 221.295,332.620 221.477,332.968 221.825 C 333.315 222.173,333.600 222.326,333.600 222.167 C 333.600 222.007,333.960 222.202,334.400 222.600 C 334.840 222.998,335.200 223.193,335.200 223.033 C 335.200 222.874,335.485 223.027,335.832 223.375 C 336.180 223.723,336.630 223.905,336.832 223.780 C 337.035 223.655,337.200 223.699,337.200 223.877 C 337.200 224.055,338.055 224.647,339.100 225.191 C 340.145 225.735,341.090 226.275,341.200 226.390 C 341.660 226.872,343.234 227.600,343.818 227.600 C 344.164 227.600,344.336 227.780,344.200 228.000 C 344.064 228.220,344.199 228.400,344.501 228.400 C 344.802 228.400,345.436 228.760,345.908 229.200 C 346.380 229.640,347.044 230.000,347.383 230.000 C 347.722 230.000,348.000 230.180,348.000 230.400 C 348.000 230.620,348.272 230.800,348.605 230.800 C 348.938 230.800,349.568 230.980,350.005 231.200 C 350.442 231.420,351.158 231.780,351.595 232.000 C 352.032 232.220,352.762 232.400,353.218 232.400 C 353.674 232.400,353.936 232.220,353.800 232.000 C 353.656 231.767,354.063 231.600,354.776 231.600 C 355.449 231.600,356.000 231.420,356.000 231.200 C 356.000 230.980,356.360 230.800,356.800 230.800 C 357.240 230.800,357.600 230.620,357.600 230.400 C 357.600 230.180,357.870 230.000,358.200 230.000 C 358.530 230.000,358.800 229.820,358.800 229.600 C 358.800 229.380,359.036 229.200,359.325 229.200 C 359.613 229.200,360.236 228.840,360.708 228.400 C 361.180 227.960,361.718 227.600,361.904 227.600 C 362.497 227.600,364.394 226.611,364.397 226.300 C 364.399 226.135,364.760 226.000,365.200 226.000 C 365.640 226.000,366.000 225.820,366.000 225.600 C 366.000 225.380,366.350 225.200,366.777 225.200 C 367.205 225.200,367.835 224.800,368.177 224.311 C 368.520 223.822,368.800 223.636,368.800 223.898 C 368.800 224.160,369.069 224.272,369.398 224.146 C 369.726 224.019,369.896 223.755,369.774 223.558 C 369.652 223.361,369.908 223.200,370.343 223.200 C 370.778 223.200,371.197 223.010,371.274 222.778 C 371.351 222.546,371.708 222.313,372.067 222.261 C 372.426 222.208,373.007 221.926,373.360 221.633 C 373.712 221.341,374.005 221.259,374.012 221.451 C 374.019 221.643,374.204 221.492,374.423 221.117 C 374.666 220.700,375.076 220.531,375.476 220.685 C 375.915 220.853,376.036 220.781,375.842 220.468 C 375.673 220.195,375.788 220.000,376.118 220.000 C 376.429 220.000,377.148 219.569,377.717 219.042 C 378.285 218.515,378.852 218.185,378.975 218.309 C 379.099 218.432,379.200 217.573,379.200 216.400 C 379.200 215.227,379.099 214.368,378.975 214.491 C 378.852 214.615,378.285 214.285,377.717 213.758 C 377.148 213.231,376.429 212.800,376.118 212.800 C 375.807 212.800,375.664 212.620,375.800 212.400 C 375.936 212.180,375.677 212.000,375.224 212.000 C 374.771 212.000,374.400 211.790,374.400 211.533 C 374.400 211.277,374.288 211.179,374.151 211.316 C 374.013 211.453,373.323 211.124,372.615 210.585 C 371.908 210.045,371.210 209.723,371.065 209.869 C 370.919 210.014,370.800 209.913,370.800 209.643 C 370.800 209.373,370.620 209.264,370.400 209.400 C 370.180 209.536,370.000 209.437,370.000 209.181 C 370.000 208.924,369.730 208.818,369.400 208.945 C 369.070 209.071,368.800 209.001,368.800 208.787 C 368.800 208.574,368.612 208.400,368.383 208.400 C 368.154 208.400,367.580 208.040,367.108 207.600 C 366.636 207.160,365.912 206.800,365.501 206.800 C 365.089 206.800,364.864 206.620,365.000 206.400 C 365.136 206.180,364.877 206.000,364.424 206.000 C 363.971 206.000,363.600 205.820,363.600 205.600 C 363.600 205.380,363.322 205.200,362.983 205.200 C 362.644 205.200,361.980 204.840,361.508 204.400 C 361.036 203.960,360.413 203.600,360.125 203.600 C 359.836 203.600,359.600 203.420,359.600 203.200 C 359.600 202.980,359.240 202.800,358.800 202.800 C 358.360 202.800,358.000 202.620,358.000 202.400 C 358.000 202.180,357.629 202.000,357.176 202.000 C 356.723 202.000,356.464 201.820,356.600 201.600 C 356.736 201.380,356.567 201.200,356.224 201.200 C 355.881 201.200,355.600 201.009,355.600 200.776 C 355.600 200.543,355.419 200.465,355.197 200.602 C 354.976 200.739,354.687 200.570,354.555 200.228 C 354.424 199.885,354.170 199.695,353.990 199.806 C 353.811 199.917,353.393 199.736,353.061 199.404 C 352.729 199.072,352.202 198.800,351.891 198.800 C 351.579 198.800,350.998 198.440,350.600 198.000 C 350.202 197.560,349.533 197.200,349.114 197.200 C 348.696 197.200,348.464 197.020,348.600 196.800 C 348.736 196.580,348.477 196.400,348.024 196.400 C 347.571 196.400,347.200 196.220,347.200 196.000 C 347.200 195.780,346.853 195.600,346.429 195.600 C 346.004 195.600,345.374 195.317,345.029 194.971 C 344.683 194.626,344.394 194.491,344.387 194.671 C 344.379 194.852,344.020 194.576,343.588 194.057 C 343.128 193.505,342.552 193.209,342.201 193.344 C 341.823 193.489,341.600 193.341,341.600 192.945 C 341.600 192.543,341.378 192.400,340.987 192.550 C 340.578 192.707,340.246 192.447,339.987 191.766 C 339.444 190.337,339.477 176.800,340.024 176.800 C 340.257 176.800,340.336 176.620,340.200 176.400 C 340.064 176.180,340.246 176.000,340.605 176.000 C 340.964 176.000,341.529 175.728,341.861 175.396 C 342.193 175.064,342.606 174.880,342.779 174.987 C 342.952 175.094,343.404 174.838,343.784 174.418 C 344.164 173.998,344.728 173.751,345.038 173.870 C 345.386 174.003,345.600 173.825,345.600 173.400 C 345.600 172.971,345.813 172.796,346.171 172.933 C 346.485 173.054,346.957 172.893,347.220 172.576 C 347.483 172.259,347.873 172.000,348.086 172.000 C 348.299 172.000,348.928 171.642,349.484 171.205 C 350.039 170.768,350.653 170.509,350.847 170.629 C 351.041 170.749,351.200 170.663,351.200 170.438 C 351.200 170.212,351.582 169.824,352.048 169.574 C 352.708 169.221,352.829 169.230,352.593 169.612 C 352.396 169.930,352.485 170.038,352.844 169.919 C 353.508 169.697,357.200 171.479,357.200 172.021 C 357.200 172.229,357.470 172.400,357.800 172.400 C 358.130 172.400,358.400 172.536,358.400 172.702 C 358.400 172.869,358.985 173.255,359.700 173.561 C 360.415 173.866,361.346 174.405,361.769 174.758 C 362.349 175.242,362.454 175.258,362.197 174.821 C 362.004 174.494,362.391 174.624,363.090 175.121 C 363.768 175.605,364.499 176.000,364.713 176.000 C 364.927 176.000,365.349 176.305,365.651 176.677 C 366.125 177.261,366.118 177.305,365.600 177.000 C 365.108 176.710,365.087 176.754,365.483 177.244 C 365.810 177.647,365.984 179.883,366.020 184.121 C 366.064 189.228,366.179 190.400,366.637 190.400 C 366.947 190.400,367.200 190.549,367.200 190.731 C 367.200 191.293,370.858 190.952,371.236 190.355 C 371.430 190.050,371.591 189.948,371.594 190.129 C 371.597 190.309,371.885 190.173,372.232 189.825 C 372.580 189.477,373.003 189.278,373.172 189.382 C 373.341 189.487,373.859 189.219,374.323 188.786 C 374.787 188.354,375.274 188.000,375.404 188.000 C 375.535 188.000,376.293 187.558,377.088 187.018 C 377.883 186.477,378.684 186.128,378.867 186.241 C 379.050 186.355,379.200 186.257,379.200 186.024 C 379.200 185.791,379.436 185.600,379.725 185.600 C 380.013 185.600,380.636 185.240,381.108 184.800 C 381.580 184.360,382.178 184.000,382.436 184.000 C 382.695 184.000,383.242 183.612,383.653 183.139 C 384.064 182.665,384.400 182.492,384.400 182.754 C 384.400 183.020,384.787 182.870,385.275 182.416 C 385.757 181.967,386.387 181.600,386.675 181.600 C 386.964 181.600,387.200 181.420,387.200 181.200 C 387.200 180.980,387.560 180.800,388.000 180.800 C 388.440 180.800,388.800 180.620,388.800 180.400 C 388.800 180.180,389.070 180.000,389.400 180.000 C 389.730 180.000,390.000 179.820,390.000 179.600 C 390.000 179.380,390.178 179.200,390.395 179.200 C 390.816 179.200,391.817 178.452,393.664 176.757 L 394.800 175.713 394.787 167.957 C 394.773 159.467,394.782 159.499,392.300 158.237 C 391.475 157.817,390.800 157.322,390.800 157.137 C 390.800 156.952,390.530 156.800,390.200 156.800 C 389.870 156.800,389.600 156.590,389.600 156.333 C 389.600 156.077,389.492 155.974,389.360 156.106 C 389.016 156.450,386.064 154.838,385.608 154.058 C 385.397 153.696,385.219 153.532,385.212 153.694 C 385.193 154.157,381.954 152.345,381.722 151.741 C 381.608 151.444,381.174 151.200,380.757 151.200 C 380.341 151.200,380.000 151.020,380.000 150.800 C 380.000 150.580,379.640 150.400,379.200 150.400 C 378.760 150.400,378.400 150.232,378.400 150.026 C 378.400 149.820,377.780 149.427,377.021 149.153 C 376.263 148.879,375.711 148.545,375.794 148.410 C 375.877 148.276,375.555 148.137,375.078 148.101 C 374.602 148.065,374.149 147.848,374.073 147.618 C 373.996 147.388,373.668 147.200,373.343 147.200 C 373.018 147.200,372.864 147.020,373.000 146.800 C 373.136 146.580,373.039 146.400,372.785 146.400 C 372.531 146.400,371.768 146.005,371.090 145.521 C 370.348 144.994,369.976 144.874,370.158 145.221 C 370.325 145.540,370.103 145.395,369.666 144.900 C 369.229 144.405,368.586 144.000,368.236 144.000 C 367.886 144.000,367.600 143.809,367.600 143.576 C 367.600 143.343,367.420 143.264,367.200 143.400 C 366.980 143.536,366.800 143.446,366.800 143.200 C 366.800 142.954,366.620 142.864,366.400 143.000 C 366.180 143.136,366.000 143.046,366.000 142.800 C 366.000 142.554,365.820 142.464,365.600 142.600 C 365.380 142.736,365.200 142.657,365.200 142.424 C 365.200 142.191,364.964 142.000,364.675 142.000 C 364.387 142.000,363.764 141.640,363.292 141.200 C 362.820 140.760,362.282 140.400,362.096 140.400 C 361.503 140.400,359.606 139.411,359.603 139.100 C 359.601 138.935,359.280 138.800,358.888 138.800 C 358.497 138.800,357.924 138.450,357.615 138.021 C 357.307 137.593,356.927 137.321,356.772 137.417 C 356.617 137.513,356.268 137.323,355.996 136.996 C 355.425 136.307,350.400 136.131,350.400 136.800 M252.411 170.548 C 253.260 170.905,253.520 171.172,253.157 171.316 C 252.823 171.448,252.961 171.550,253.500 171.568 C 253.995 171.586,254.400 171.774,254.400 171.987 C 254.400 172.201,254.668 172.272,254.997 172.146 C 255.337 172.015,255.699 172.192,255.839 172.556 C 255.973 172.908,256.245 173.096,256.442 172.974 C 256.639 172.852,256.800 172.954,256.800 173.200 C 256.800 173.446,256.980 173.536,257.200 173.400 C 257.420 173.264,257.600 173.373,257.600 173.643 C 257.600 173.913,257.709 174.024,257.843 173.891 C 257.976 173.757,258.460 173.997,258.918 174.424 C 259.376 174.851,260.018 175.200,260.344 175.200 C 260.670 175.200,261.267 175.499,261.671 175.864 C 262.075 176.230,262.809 176.730,263.303 176.976 C 264.180 177.413,264.202 177.595,264.309 185.140 C 264.376 189.891,264.273 192.769,264.041 192.625 C 263.834 192.497,263.348 192.709,262.961 193.096 C 262.574 193.483,262.195 193.749,262.119 193.687 C 262.043 193.625,261.383 194.030,260.652 194.587 C 259.922 195.144,258.936 195.600,258.462 195.600 C 257.988 195.600,257.600 195.758,257.600 195.951 C 257.600 196.145,257.060 196.527,256.400 196.800 C 255.740 197.073,255.200 197.455,255.200 197.649 C 255.200 197.842,254.829 198.000,254.376 198.000 C 253.923 198.000,253.664 198.180,253.800 198.400 C 253.940 198.627,253.604 198.800,253.024 198.800 C 252.461 198.800,252.000 198.983,252.000 199.206 C 252.000 199.430,251.472 199.573,250.828 199.523 C 250.183 199.474,249.744 199.291,249.851 199.117 C 249.959 198.943,249.767 198.800,249.424 198.800 C 249.081 198.800,248.800 198.609,248.800 198.376 C 248.800 198.143,248.641 198.051,248.447 198.171 C 248.253 198.291,247.436 197.941,246.630 197.394 C 245.824 196.847,244.982 196.400,244.759 196.400 C 244.535 196.400,244.483 196.189,244.642 195.932 C 244.838 195.615,244.711 195.548,244.250 195.725 C 243.829 195.887,243.483 195.761,243.343 195.396 C 243.218 195.071,242.978 194.890,242.810 194.994 C 242.641 195.098,242.092 194.827,241.590 194.392 C 241.088 193.956,240.463 193.600,240.200 193.600 C 238.296 193.600,238.000 192.447,238.000 185.025 C 238.000 177.851,238.204 176.800,239.595 176.800 C 239.844 176.800,239.936 176.620,239.800 176.400 C 239.664 176.180,239.923 176.000,240.376 176.000 C 240.829 176.000,241.200 175.832,241.200 175.627 C 241.200 175.422,241.605 175.130,242.100 174.980 C 242.595 174.829,243.334 174.412,243.742 174.053 C 244.150 173.694,244.555 173.445,244.642 173.500 C 245.106 173.793,245.607 173.535,245.358 173.132 C 245.164 172.817,245.287 172.748,245.734 172.919 C 246.100 173.060,246.400 173.001,246.400 172.787 C 246.400 172.574,246.760 172.400,247.200 172.400 C 247.640 172.400,248.000 172.220,248.000 172.000 C 248.000 171.780,248.242 171.600,248.538 171.600 C 248.834 171.600,249.402 171.240,249.800 170.800 C 250.660 169.850,250.734 169.843,252.411 170.548 " stroke="none" fill="#343434" fill-rule="evenodd"></path><path id="path3" d="" stroke="none" fill="#505c48" fill-rule="evenodd"></path><path id="path4" d="M208.987 185.000 C 208.987 197.100,209.037 202.108,209.100 196.128 C 209.162 190.149,209.162 180.249,209.100 174.128 C 209.038 168.008,208.987 172.900,208.987 185.000 M90.186 198.600 C 90.187 210.480,90.238 215.282,90.300 209.272 C 90.362 203.261,90.362 193.541,90.300 187.672 C 90.237 181.802,90.186 186.720,90.186 198.600 " stroke="none" fill="#543448" fill-rule="evenodd"></path></g></svg>