<svg id="svg" version="1.1" xmlns="http://www.w3.org/2000/svg" xmlns:xlink="http://www.w3.org/1999/xlink" width="400" height="400" viewBox="0, 0, 400,400"><g id="svgg"><path id="path0" d="M61.200 50.000 C 61.200 50.220,60.750 50.400,60.200 50.400 C 59.650 50.400,59.200 50.580,59.200 50.800 C 59.200 51.020,58.840 51.200,58.400 51.200 C 57.960 51.200,57.600 51.350,57.600 51.532 C 57.600 51.715,57.106 52.120,56.503 52.432 C 55.078 53.169,52.800 55.425,52.800 56.098 C 52.800 56.387,52.440 56.883,52.000 57.200 C 51.560 57.517,51.200 58.097,51.200 58.488 C 51.200 58.880,51.020 59.200,50.800 59.200 C 50.580 59.200,50.400 59.650,50.400 60.200 C 50.400 60.750,50.220 61.200,50.000 61.200 C 49.751 61.200,49.600 63.525,49.600 67.376 C 49.600 71.063,49.761 73.652,50.000 73.800 C 50.220 73.936,50.400 75.196,50.400 76.600 C 50.400 78.004,50.580 79.264,50.800 79.400 C 51.020 79.536,51.200 80.886,51.200 82.400 C 51.200 83.914,51.380 85.264,51.600 85.400 C 51.820 85.536,52.000 86.807,52.000 88.224 C 52.000 89.675,52.175 90.800,52.400 90.800 C 52.629 90.800,52.800 92.000,52.800 93.600 C 52.800 95.200,52.971 96.400,53.200 96.400 C 53.428 96.400,53.600 97.592,53.600 99.176 C 53.600 100.703,53.780 102.064,54.000 102.200 C 54.220 102.336,54.400 103.697,54.400 105.224 C 54.400 106.808,54.572 108.000,54.800 108.000 C 55.029 108.000,55.200 109.200,55.200 110.800 C 55.200 112.400,55.371 113.600,55.600 113.600 C 55.829 113.600,56.000 114.800,56.000 116.400 C 56.000 118.000,56.171 119.200,56.400 119.200 C 56.629 119.200,56.800 120.400,56.800 122.000 C 56.800 123.600,56.971 124.800,57.200 124.800 C 57.431 124.800,57.600 126.067,57.600 127.800 C 57.600 129.450,57.755 130.800,57.943 130.800 C 58.132 130.800,58.415 132.996,58.572 135.680 C 58.729 138.364,59.025 140.872,59.229 141.254 C 59.433 141.635,59.600 143.029,59.600 144.350 C 59.600 145.672,59.780 146.864,60.000 147.000 C 60.220 147.136,60.400 148.486,60.400 150.000 C 60.400 151.514,60.580 152.864,60.800 153.000 C 61.020 153.136,61.200 154.497,61.200 156.024 C 61.200 157.608,61.372 158.800,61.600 158.800 C 61.829 158.800,62.000 160.000,62.000 161.600 C 62.000 163.200,62.171 164.400,62.400 164.400 C 62.629 164.400,62.800 165.600,62.800 167.200 C 62.800 168.800,62.971 170.000,63.200 170.000 C 63.428 170.000,63.600 171.192,63.600 172.776 C 63.600 174.303,63.780 175.664,64.000 175.800 C 64.220 175.936,64.400 177.297,64.400 178.824 C 64.400 180.408,64.572 181.600,64.800 181.600 C 65.029 181.600,65.200 182.800,65.200 184.400 C 65.200 186.000,65.371 187.200,65.600 187.200 C 65.825 187.200,66.000 188.325,66.000 189.776 C 66.000 191.193,66.180 192.464,66.400 192.600 C 66.620 192.736,66.800 194.086,66.800 195.600 C 66.800 197.114,66.980 198.464,67.200 198.600 C 67.420 198.736,67.600 199.996,67.600 201.400 C 67.600 202.804,67.780 204.064,68.000 204.200 C 68.220 204.336,68.400 205.607,68.400 207.024 C 68.400 208.475,68.575 209.600,68.800 209.600 C 69.028 209.600,69.200 210.792,69.200 212.376 C 69.200 213.903,69.380 215.264,69.600 215.400 C 69.820 215.536,70.000 216.897,70.000 218.424 C 70.000 220.008,70.172 221.200,70.400 221.200 C 70.629 221.200,70.800 222.400,70.800 224.000 C 70.800 225.600,70.971 226.800,71.200 226.800 C 71.429 226.800,71.600 228.000,71.600 229.600 C 71.600 231.200,71.771 232.400,72.000 232.400 C 72.228 232.400,72.400 233.592,72.400 235.176 C 72.400 236.703,72.580 238.064,72.800 238.200 C 73.020 238.336,73.200 239.697,73.200 241.224 C 73.200 242.808,73.372 244.000,73.600 244.000 C 73.829 244.000,74.000 245.200,74.000 246.800 C 74.000 248.400,74.171 249.600,74.400 249.600 C 74.620 249.600,74.811 250.635,74.825 251.900 C 74.838 253.165,75.024 255.550,75.238 257.200 C 76.033 263.347,76.421 266.280,76.824 269.200 C 77.052 270.850,77.335 273.415,77.452 274.900 C 77.570 276.385,77.831 277.600,78.033 277.600 C 78.235 277.600,78.400 278.860,78.400 280.400 C 78.400 282.000,78.571 283.200,78.800 283.200 C 79.028 283.200,79.200 284.392,79.200 285.976 C 79.200 287.503,79.380 288.864,79.600 289.000 C 79.820 289.136,80.000 290.497,80.000 292.024 C 80.000 293.608,80.172 294.800,80.400 294.800 C 80.629 294.800,80.800 296.000,80.800 297.600 C 80.800 299.200,80.971 300.400,81.200 300.400 C 81.428 300.400,81.600 301.592,81.600 303.176 C 81.600 304.703,81.780 306.064,82.000 306.200 C 82.220 306.336,82.400 307.596,82.400 309.000 C 82.400 310.404,82.580 311.664,82.800 311.800 C 83.020 311.936,83.200 312.577,83.200 313.224 C 83.200 313.871,83.380 314.400,83.600 314.400 C 83.820 314.400,84.000 314.940,84.000 315.600 C 84.000 316.260,84.150 316.800,84.332 316.800 C 84.515 316.800,84.920 317.295,85.232 317.900 C 85.961 319.312,89.938 323.200,90.654 323.200 C 90.954 323.200,91.200 323.344,91.200 323.521 C 91.200 323.901,94.691 325.205,95.700 325.202 C 96.085 325.201,96.400 325.380,96.400 325.600 C 96.400 325.820,96.940 326.000,97.600 326.000 C 98.260 326.000,98.800 326.180,98.800 326.400 C 98.800 326.620,99.340 326.800,100.000 326.800 C 100.660 326.800,101.200 326.980,101.200 327.200 C 101.200 327.420,101.740 327.600,102.400 327.600 C 103.060 327.600,103.600 327.780,103.600 328.000 C 103.600 328.220,104.140 328.400,104.800 328.400 C 105.460 328.400,106.000 328.580,106.000 328.800 C 106.000 329.020,106.540 329.200,107.200 329.200 C 107.860 329.200,108.400 329.380,108.400 329.600 C 108.400 329.820,108.940 330.000,109.600 330.000 C 110.260 330.000,110.800 330.180,110.800 330.400 C 110.800 330.620,111.239 330.800,111.776 330.800 C 112.313 330.800,112.864 330.980,113.000 331.200 C 113.136 331.420,113.676 331.600,114.200 331.600 C 114.724 331.600,115.264 331.780,115.400 332.000 C 115.536 332.220,116.087 332.400,116.624 332.400 C 117.161 332.400,117.600 332.580,117.600 332.800 C 117.600 333.020,118.140 333.200,118.800 333.200 C 119.460 333.200,120.000 333.380,120.000 333.600 C 120.000 333.820,120.540 334.000,121.200 334.000 C 121.860 334.000,122.400 334.180,122.400 334.400 C 122.400 334.620,122.940 334.800,123.600 334.800 C 124.260 334.800,124.800 334.980,124.800 335.200 C 124.800 335.420,125.340 335.600,126.000 335.600 C 126.660 335.600,127.200 335.780,127.200 336.000 C 127.200 336.220,127.639 336.400,128.176 336.400 C 128.713 336.400,129.264 336.580,129.400 336.800 C 129.536 337.020,130.076 337.200,130.600 337.200 C 131.124 337.200,131.664 337.380,131.800 337.600 C 131.936 337.820,132.399 338.000,132.829 338.000 C 133.259 338.000,133.923 338.162,134.305 338.361 C 135.501 338.981,144.000 341.600,144.820 341.600 C 145.249 341.600,145.600 341.780,145.600 342.000 C 145.600 342.220,146.140 342.400,146.800 342.400 C 147.460 342.400,148.000 342.580,148.000 342.800 C 148.000 343.020,148.540 343.200,149.200 343.200 C 149.860 343.200,150.400 343.380,150.400 343.600 C 150.400 343.820,150.940 344.000,151.600 344.000 C 152.260 344.000,152.800 344.180,152.800 344.400 C 152.800 344.620,153.340 344.800,154.000 344.800 C 154.660 344.800,155.200 344.980,155.200 345.200 C 155.200 345.420,155.740 345.600,156.400 345.600 C 157.060 345.600,157.600 345.780,157.600 346.000 C 157.600 346.220,158.140 346.400,158.800 346.400 C 159.460 346.400,160.000 346.580,160.000 346.800 C 160.000 347.020,160.439 347.200,160.976 347.200 C 161.513 347.200,162.064 347.380,162.200 347.600 C 162.336 347.820,162.876 348.000,163.400 348.000 C 163.924 348.000,164.464 348.180,164.600 348.400 C 164.736 348.620,165.287 348.800,165.824 348.800 C 166.361 348.800,166.800 348.980,166.800 349.200 C 166.800 349.420,167.340 349.600,168.000 349.600 C 168.660 349.600,169.200 349.780,169.200 350.000 C 169.200 350.220,169.740 350.400,170.400 350.400 C 171.060 350.400,171.600 350.580,171.600 350.800 C 171.600 351.020,172.140 351.200,172.800 351.200 C 173.460 351.200,174.000 351.380,174.000 351.600 C 174.000 351.820,174.540 352.000,175.200 352.000 C 175.860 352.000,176.400 352.180,176.400 352.400 C 176.400 352.620,176.839 352.800,177.376 352.800 C 177.913 352.800,178.464 352.980,178.600 353.200 C 178.736 353.420,179.276 353.600,179.800 353.600 C 180.324 353.600,180.864 353.780,181.000 354.000 C 181.136 354.220,181.599 354.400,182.029 354.400 C 182.459 354.400,183.123 354.563,183.505 354.763 C 183.887 354.962,186.360 355.788,189.000 356.598 C 191.640 357.408,194.213 358.235,194.719 358.435 C 195.923 358.913,204.099 358.907,205.281 358.427 C 205.787 358.222,207.280 357.757,208.600 357.394 C 209.920 357.031,211.313 356.568,211.695 356.367 C 212.077 356.165,212.741 356.000,213.171 356.000 C 213.601 356.000,214.064 355.820,214.200 355.600 C 214.336 355.380,214.876 355.200,215.400 355.200 C 215.924 355.200,216.464 355.020,216.600 354.800 C 216.736 354.580,217.276 354.400,217.800 354.400 C 218.324 354.400,218.864 354.220,219.000 354.000 C 219.136 353.780,219.676 353.600,220.200 353.600 C 220.724 353.600,221.264 353.420,221.400 353.200 C 221.536 352.980,222.087 352.800,222.624 352.800 C 223.161 352.800,223.600 352.620,223.600 352.400 C 223.600 352.180,224.140 352.000,224.800 352.000 C 225.460 352.000,226.000 351.820,226.000 351.600 C 226.000 351.380,226.540 351.200,227.200 351.200 C 227.860 351.200,228.400 351.020,228.400 350.800 C 228.400 350.580,228.940 350.400,229.600 350.400 C 230.260 350.400,230.800 350.220,230.800 350.000 C 230.800 349.780,231.340 349.600,232.000 349.600 C 232.660 349.600,233.200 349.420,233.200 349.200 C 233.200 348.980,233.740 348.800,234.400 348.800 C 235.060 348.800,235.600 348.620,235.600 348.400 C 235.600 348.180,236.039 348.000,236.576 348.000 C 237.113 348.000,237.664 347.820,237.800 347.600 C 237.936 347.380,238.487 347.200,239.024 347.200 C 239.561 347.200,240.000 347.020,240.000 346.800 C 240.000 346.580,240.540 346.400,241.200 346.400 C 241.860 346.400,242.400 346.220,242.400 346.000 C 242.400 345.780,242.940 345.600,243.600 345.600 C 244.260 345.600,244.800 345.420,244.800 345.200 C 244.800 344.980,245.340 344.800,246.000 344.800 C 246.660 344.800,247.200 344.620,247.200 344.400 C 247.200 344.180,247.740 344.000,248.400 344.000 C 249.060 344.000,249.600 343.820,249.600 343.600 C 249.600 343.380,250.140 343.200,250.800 343.200 C 251.460 343.200,252.000 343.020,252.000 342.800 C 252.000 342.580,252.540 342.400,253.200 342.400 C 253.860 342.400,254.400 342.220,254.400 342.000 C 254.400 341.780,254.748 341.600,255.172 341.600 C 256.007 341.600,262.156 339.754,263.295 339.161 C 263.677 338.963,264.341 338.800,264.771 338.800 C 265.201 338.800,265.664 338.620,265.800 338.400 C 265.936 338.180,266.476 338.000,267.000 338.000 C 267.524 338.000,268.064 337.820,268.200 337.600 C 268.336 337.380,268.876 337.200,269.400 337.200 C 269.924 337.200,270.464 337.020,270.600 336.800 C 270.736 336.580,271.287 336.400,271.824 336.400 C 272.361 336.400,272.800 336.220,272.800 336.000 C 272.800 335.780,273.340 335.600,274.000 335.600 C 274.660 335.600,275.200 335.420,275.200 335.200 C 275.200 334.980,275.740 334.800,276.400 334.800 C 277.060 334.800,277.600 334.620,277.600 334.400 C 277.600 334.180,278.140 334.000,278.800 334.000 C 279.460 334.000,280.000 333.820,280.000 333.600 C 280.000 333.380,280.540 333.200,281.200 333.200 C 281.860 333.200,282.400 333.020,282.400 332.800 C 282.400 332.580,282.940 332.400,283.600 332.400 C 284.260 332.400,284.800 332.220,284.800 332.000 C 284.800 331.780,285.340 331.600,286.000 331.600 C 286.660 331.600,287.200 331.420,287.200 331.200 C 287.200 330.980,287.639 330.800,288.176 330.800 C 288.713 330.800,289.264 330.620,289.400 330.400 C 289.536 330.180,290.087 330.000,290.624 330.000 C 291.161 330.000,291.600 329.820,291.600 329.600 C 291.600 329.380,292.140 329.200,292.800 329.200 C 293.460 329.200,294.000 329.020,294.000 328.800 C 294.000 328.580,294.540 328.400,295.200 328.400 C 295.860 328.400,296.400 328.220,296.400 328.000 C 296.400 327.780,296.940 327.600,297.600 327.600 C 298.260 327.600,298.800 327.420,298.800 327.200 C 298.800 326.980,299.340 326.800,300.000 326.800 C 300.660 326.800,301.200 326.620,301.200 326.400 C 301.200 326.180,301.740 326.000,302.400 326.000 C 303.060 326.000,303.600 325.820,303.600 325.600 C 303.600 325.380,303.915 325.201,304.300 325.202 C 305.309 325.205,308.800 323.901,308.800 323.521 C 308.800 323.344,309.046 323.200,309.346 323.200 C 310.062 323.200,314.039 319.312,314.768 317.900 C 315.080 317.295,315.485 316.800,315.668 316.800 C 315.850 316.800,316.000 316.260,316.000 315.600 C 316.000 314.940,316.180 314.400,316.400 314.400 C 316.620 314.400,316.800 313.871,316.800 313.224 C 316.800 312.577,316.980 311.936,317.200 311.800 C 317.420 311.664,317.600 310.404,317.600 309.000 C 317.600 307.596,317.780 306.336,318.000 306.200 C 318.220 306.064,318.400 304.703,318.400 303.176 C 318.400 301.592,318.572 300.400,318.800 300.400 C 319.029 300.400,319.200 299.200,319.200 297.600 C 319.200 296.000,319.371 294.800,319.600 294.800 C 319.828 294.800,320.000 293.608,320.000 292.024 C 320.000 290.497,320.180 289.136,320.400 289.000 C 320.620 288.864,320.800 287.604,320.800 286.200 C 320.800 284.796,320.980 283.536,321.200 283.400 C 321.420 283.264,321.600 281.903,321.600 280.376 C 321.600 278.849,321.765 277.600,321.967 277.600 C 322.169 277.600,322.430 276.385,322.548 274.900 C 322.665 273.415,322.954 270.850,323.190 269.200 C 323.426 267.550,323.780 264.940,323.977 263.400 C 324.174 261.860,324.521 259.160,324.746 257.400 C 324.972 255.640,325.167 253.165,325.178 251.900 C 325.190 250.635,325.380 249.600,325.600 249.600 C 325.829 249.600,326.000 248.400,326.000 246.800 C 326.000 245.200,326.171 244.000,326.400 244.000 C 326.629 244.000,326.800 242.800,326.800 241.200 C 326.800 239.600,326.971 238.400,327.200 238.400 C 327.431 238.400,327.600 237.133,327.600 235.400 C 327.600 233.667,327.769 232.400,328.000 232.400 C 328.229 232.400,328.400 231.200,328.400 229.600 C 328.400 228.000,328.571 226.800,328.800 226.800 C 329.025 226.800,329.200 225.675,329.200 224.224 C 329.200 222.807,329.380 221.536,329.600 221.400 C 329.820 221.264,330.000 219.903,330.000 218.376 C 330.000 216.792,330.172 215.600,330.400 215.600 C 330.631 215.600,330.800 214.333,330.800 212.600 C 330.800 210.867,330.969 209.600,331.200 209.600 C 331.425 209.600,331.600 208.475,331.600 207.024 C 331.600 205.607,331.780 204.336,332.000 204.200 C 332.220 204.064,332.400 202.829,332.400 201.456 C 332.400 200.083,332.565 198.789,332.768 198.580 C 332.970 198.371,333.243 196.940,333.374 195.400 C 333.505 193.860,333.714 191.385,333.839 189.900 C 333.964 188.415,334.231 187.200,334.433 187.200 C 334.635 187.200,334.800 185.940,334.800 184.400 C 334.800 182.800,334.971 181.600,335.200 181.600 C 335.428 181.600,335.600 180.408,335.600 178.824 C 335.600 177.297,335.780 175.936,336.000 175.800 C 336.220 175.664,336.400 174.404,336.400 173.000 C 336.400 171.596,336.580 170.336,336.800 170.200 C 337.020 170.064,337.200 168.703,337.200 167.176 C 337.200 165.592,337.372 164.400,337.600 164.400 C 337.829 164.400,338.000 163.200,338.000 161.600 C 338.000 160.060,338.165 158.800,338.367 158.800 C 338.569 158.800,338.832 157.585,338.950 156.100 C 339.151 153.600,339.386 151.657,340.391 144.200 C 341.378 136.871,341.552 135.239,341.575 133.100 C 341.589 131.835,341.780 130.800,342.000 130.800 C 342.228 130.800,342.400 129.608,342.400 128.024 C 342.400 126.497,342.580 125.136,342.800 125.000 C 343.020 124.864,343.200 123.503,343.200 121.976 C 343.200 120.392,343.372 119.200,343.600 119.200 C 343.829 119.200,344.000 118.000,344.000 116.400 C 344.000 114.800,344.171 113.600,344.400 113.600 C 344.629 113.600,344.800 112.400,344.800 110.800 C 344.800 109.200,344.971 108.000,345.200 108.000 C 345.428 108.000,345.600 106.808,345.600 105.224 C 345.600 103.697,345.780 102.336,346.000 102.200 C 346.220 102.064,346.400 100.703,346.400 99.176 C 346.400 97.592,346.572 96.400,346.800 96.400 C 347.029 96.400,347.200 95.200,347.200 93.600 C 347.200 92.000,347.371 90.800,347.600 90.800 C 347.824 90.800,348.000 89.693,348.000 88.280 C 348.000 86.894,348.165 85.589,348.368 85.380 C 348.712 85.024,348.824 84.140,349.428 77.000 C 349.558 75.460,349.830 74.029,350.032 73.820 C 350.543 73.292,350.512 61.200,350.000 61.200 C 349.780 61.200,349.600 60.750,349.600 60.200 C 349.600 59.650,349.420 59.200,349.200 59.200 C 348.980 59.200,348.800 58.880,348.800 58.488 C 348.800 58.097,348.440 57.517,348.000 57.200 C 347.560 56.883,347.200 56.387,347.200 56.098 C 347.200 55.425,344.922 53.169,343.497 52.432 C 342.894 52.120,342.400 51.715,342.400 51.532 C 342.400 51.350,342.040 51.200,341.600 51.200 C 341.160 51.200,340.800 51.020,340.800 50.800 C 340.800 50.580,340.350 50.400,339.800 50.400 C 339.250 50.400,338.800 50.220,338.800 50.000 C 338.800 49.734,292.267 49.600,200.000 49.600 C 107.733 49.600,61.200 49.734,61.200 50.000 M312.800 86.776 C 312.800 88.303,312.620 89.664,312.400 89.800 C 312.180 89.936,312.000 91.196,312.000 92.600 C 312.000 94.004,311.820 95.264,311.600 95.400 C 311.380 95.536,311.200 96.897,311.200 98.424 C 311.200 100.008,311.028 101.200,310.800 101.200 C 310.573 101.200,310.400 102.373,310.400 103.920 C 310.400 105.416,310.235 106.811,310.032 107.020 C 309.830 107.229,309.565 108.570,309.443 110.000 C 308.690 118.845,308.162 123.576,307.900 123.836 C 307.735 123.999,307.600 125.273,307.600 126.667 C 307.600 128.089,307.425 129.200,307.200 129.200 C 306.971 129.200,306.800 130.400,306.800 132.000 C 306.800 133.600,306.629 134.800,306.400 134.800 C 306.171 134.800,306.000 136.000,306.000 137.600 C 306.000 139.200,305.829 140.400,305.600 140.400 C 305.372 140.400,305.200 141.592,305.200 143.176 C 305.200 144.703,305.020 146.064,304.800 146.200 C 304.580 146.336,304.400 147.697,304.400 149.224 C 304.400 150.808,304.228 152.000,304.000 152.000 C 303.771 152.000,303.600 153.200,303.600 154.800 C 303.600 156.400,303.429 157.600,303.200 157.600 C 302.971 157.600,302.800 158.800,302.800 160.400 C 302.800 162.000,302.629 163.200,302.400 163.200 C 302.172 163.200,302.000 164.392,302.000 165.976 C 302.000 167.503,301.820 168.864,301.600 169.000 C 301.380 169.136,301.200 170.497,301.200 172.024 C 301.200 173.608,301.028 174.800,300.800 174.800 C 300.575 174.800,300.400 175.925,300.400 177.376 C 300.400 178.793,300.220 180.064,300.000 180.200 C 299.780 180.336,299.600 181.596,299.600 183.000 C 299.600 184.404,299.420 185.664,299.200 185.800 C 298.980 185.936,298.800 187.286,298.800 188.800 C 298.800 190.314,298.620 191.664,298.400 191.800 C 298.180 191.936,298.000 193.196,298.000 194.600 C 298.000 196.004,297.820 197.264,297.600 197.400 C 297.380 197.536,297.200 198.771,297.200 200.144 C 297.200 201.517,297.035 202.811,296.832 203.020 C 296.630 203.229,296.357 204.660,296.226 206.200 C 296.095 207.740,295.886 210.215,295.761 211.700 C 295.636 213.185,295.369 214.400,295.167 214.400 C 294.965 214.400,294.800 215.624,294.800 217.120 C 294.800 218.616,294.635 220.011,294.432 220.220 C 294.230 220.429,293.968 221.770,293.850 223.200 C 293.732 224.630,293.453 227.060,293.230 228.600 C 293.007 230.140,292.652 233.020,292.441 235.000 C 292.231 236.980,291.866 239.770,291.632 241.200 C 291.398 242.630,291.205 244.745,291.203 245.900 C 291.201 247.055,291.020 248.000,290.800 248.000 C 290.572 248.000,290.400 249.192,290.400 250.776 C 290.400 252.303,290.220 253.664,290.000 253.800 C 289.780 253.936,289.600 255.297,289.600 256.824 C 289.600 258.408,289.428 259.600,289.200 259.600 C 288.971 259.600,288.800 260.800,288.800 262.400 C 288.800 264.000,288.629 265.200,288.400 265.200 C 288.171 265.200,288.000 266.400,288.000 268.000 C 288.000 269.600,287.829 270.800,287.600 270.800 C 287.371 270.800,287.200 272.000,287.200 273.600 C 287.200 275.200,287.029 276.400,286.800 276.400 C 286.572 276.400,286.400 277.592,286.400 279.176 C 286.400 280.703,286.220 282.064,286.000 282.200 C 285.780 282.336,285.600 283.697,285.600 285.224 C 285.600 286.808,285.428 288.000,285.200 288.000 C 284.971 288.000,284.800 289.200,284.800 290.800 C 284.800 292.340,284.663 293.600,284.495 293.600 C 284.327 293.600,284.012 294.005,283.795 294.500 C 283.570 295.012,282.969 295.458,282.400 295.534 C 281.850 295.607,281.229 295.832,281.020 296.034 C 280.811 296.235,280.237 296.400,279.744 296.400 C 279.251 296.400,278.736 296.580,278.600 296.800 C 278.464 297.020,277.913 297.200,277.376 297.200 C 276.839 297.200,276.400 297.380,276.400 297.600 C 276.400 297.820,275.860 298.000,275.200 298.000 C 274.540 298.000,274.000 298.180,274.000 298.400 C 274.000 298.620,273.460 298.800,272.800 298.800 C 272.140 298.800,271.600 298.980,271.600 299.200 C 271.600 299.420,271.060 299.600,270.400 299.600 C 269.740 299.600,269.200 299.780,269.200 300.000 C 269.200 300.220,268.660 300.400,268.000 300.400 C 267.340 300.400,266.800 300.580,266.800 300.800 C 266.800 301.020,266.361 301.200,265.824 301.200 C 265.287 301.200,264.736 301.380,264.600 301.600 C 264.464 301.820,263.924 302.000,263.400 302.000 C 262.876 302.000,262.336 302.180,262.200 302.400 C 262.064 302.620,261.513 302.800,260.976 302.800 C 260.439 302.800,260.000 302.980,260.000 303.200 C 260.000 303.420,259.460 303.600,258.800 303.600 C 258.140 303.600,257.600 303.780,257.600 304.000 C 257.600 304.220,257.060 304.400,256.400 304.400 C 255.740 304.400,255.200 304.580,255.200 304.800 C 255.200 305.020,254.660 305.200,254.000 305.200 C 253.340 305.200,252.800 305.380,252.800 305.600 C 252.800 305.820,252.260 306.000,251.600 306.000 C 250.940 306.000,250.400 306.180,250.400 306.400 C 250.400 306.620,249.860 306.800,249.200 306.800 C 248.540 306.800,248.000 306.980,248.000 307.200 C 248.000 307.420,247.460 307.600,246.800 307.600 C 246.140 307.600,245.600 307.780,245.600 308.000 C 245.600 308.220,245.252 308.400,244.828 308.400 C 243.993 308.400,237.844 310.246,236.705 310.839 C 236.323 311.037,235.659 311.200,235.229 311.200 C 234.799 311.200,234.336 311.380,234.200 311.600 C 234.064 311.820,233.524 312.000,233.000 312.000 C 232.476 312.000,231.936 312.180,231.800 312.400 C 231.664 312.620,231.124 312.800,230.600 312.800 C 230.076 312.800,229.536 312.980,229.400 313.200 C 229.264 313.420,228.713 313.600,228.176 313.600 C 227.639 313.600,227.200 313.780,227.200 314.000 C 227.200 314.220,226.660 314.400,226.000 314.400 C 225.340 314.400,224.800 314.580,224.800 314.800 C 224.800 315.020,224.260 315.200,223.600 315.200 C 222.940 315.200,222.400 315.380,222.400 315.600 C 222.400 315.820,221.860 316.000,221.200 316.000 C 220.540 316.000,220.000 316.180,220.000 316.400 C 220.000 316.620,219.460 316.800,218.800 316.800 C 218.140 316.800,217.600 316.980,217.600 317.200 C 217.600 317.420,217.060 317.600,216.400 317.600 C 215.740 317.600,215.200 317.780,215.200 318.000 C 215.200 318.220,214.761 318.400,214.224 318.400 C 213.687 318.400,213.136 318.580,213.000 318.800 C 212.864 319.020,212.324 319.200,211.800 319.200 C 211.276 319.200,210.736 319.380,210.600 319.600 C 210.464 319.820,209.913 320.000,209.376 320.000 C 208.839 320.000,208.400 320.180,208.400 320.400 C 208.400 320.620,207.860 320.800,207.200 320.800 C 206.540 320.800,206.000 320.980,206.000 321.200 C 206.000 321.420,205.460 321.600,204.800 321.600 C 204.140 321.600,203.600 321.780,203.600 322.000 C 203.600 322.220,203.060 322.400,202.400 322.400 C 201.740 322.400,201.200 322.580,201.200 322.800 C 201.200 323.020,200.660 323.200,200.000 323.200 C 199.340 323.200,198.800 323.020,198.800 322.800 C 198.800 322.580,198.260 322.400,197.600 322.400 C 196.940 322.400,196.400 322.220,196.400 322.000 C 196.400 321.780,195.860 321.600,195.200 321.600 C 194.540 321.600,194.000 321.420,194.000 321.200 C 194.000 320.980,193.460 320.800,192.800 320.800 C 192.140 320.800,191.600 320.620,191.600 320.400 C 191.600 320.180,191.161 320.000,190.624 320.000 C 190.087 320.000,189.536 319.820,189.400 319.600 C 189.264 319.380,188.713 319.200,188.176 319.200 C 187.639 319.200,187.200 319.020,187.200 318.800 C 187.200 318.580,186.660 318.400,186.000 318.400 C 185.340 318.400,184.800 318.220,184.800 318.000 C 184.800 317.780,184.260 317.600,183.600 317.600 C 182.940 317.600,182.400 317.420,182.400 317.200 C 182.400 316.980,181.860 316.800,181.200 316.800 C 180.540 316.800,180.000 316.620,180.000 316.400 C 180.000 316.180,179.460 316.000,178.800 316.000 C 178.140 316.000,177.600 315.820,177.600 315.600 C 177.600 315.380,177.060 315.200,176.400 315.200 C 175.740 315.200,175.200 315.020,175.200 314.800 C 175.200 314.580,174.660 314.400,174.000 314.400 C 173.340 314.400,172.800 314.220,172.800 314.000 C 172.800 313.780,172.361 313.600,171.824 313.600 C 171.287 313.600,170.736 313.420,170.600 313.200 C 170.464 312.980,169.924 312.800,169.400 312.800 C 168.876 312.800,168.336 312.620,168.200 312.400 C 168.064 312.180,167.524 312.000,167.000 312.000 C 166.476 312.000,165.936 311.820,165.800 311.600 C 165.664 311.380,165.201 311.200,164.771 311.200 C 164.341 311.200,163.677 311.037,163.295 310.839 C 162.156 310.246,156.007 308.400,155.172 308.400 C 154.748 308.400,154.400 308.220,154.400 308.000 C 154.400 307.780,153.860 307.600,153.200 307.600 C 152.540 307.600,152.000 307.420,152.000 307.200 C 152.000 306.980,151.460 306.800,150.800 306.800 C 150.140 306.800,149.600 306.620,149.600 306.400 C 149.600 306.180,149.060 306.000,148.400 306.000 C 147.740 306.000,147.200 305.820,147.200 305.600 C 147.200 305.380,146.660 305.200,146.000 305.200 C 145.340 305.200,144.800 305.020,144.800 304.800 C 144.800 304.580,144.260 304.400,143.600 304.400 C 142.940 304.400,142.400 304.220,142.400 304.000 C 142.400 303.780,141.860 303.600,141.200 303.600 C 140.540 303.600,140.000 303.420,140.000 303.200 C 140.000 302.980,139.561 302.800,139.024 302.800 C 138.487 302.800,137.936 302.620,137.800 302.400 C 137.664 302.180,137.113 302.000,136.576 302.000 C 136.039 302.000,135.600 301.820,135.600 301.600 C 135.600 301.380,135.060 301.200,134.400 301.200 C 133.740 301.200,133.200 301.020,133.200 300.800 C 133.200 300.580,132.660 300.400,132.000 300.400 C 131.340 300.400,130.800 300.220,130.800 300.000 C 130.800 299.780,130.260 299.600,129.600 299.600 C 128.940 299.600,128.400 299.420,128.400 299.200 C 128.400 298.980,127.860 298.800,127.200 298.800 C 126.540 298.800,126.000 298.620,126.000 298.400 C 126.000 298.180,125.460 298.000,124.800 298.000 C 124.140 298.000,123.600 297.820,123.600 297.600 C 123.600 297.380,123.161 297.200,122.624 297.200 C 122.087 297.200,121.536 297.020,121.400 296.800 C 121.264 296.580,120.749 296.400,120.256 296.400 C 119.763 296.400,119.189 296.235,118.980 296.034 C 118.771 295.832,118.150 295.607,117.600 295.534 C 117.031 295.458,116.430 295.012,116.205 294.500 C 115.988 294.005,115.673 293.600,115.505 293.600 C 115.337 293.600,115.200 292.340,115.200 290.800 C 115.200 289.200,115.029 288.000,114.800 288.000 C 114.572 288.000,114.400 286.808,114.400 285.224 C 114.400 283.697,114.220 282.336,114.000 282.200 C 113.780 282.064,113.600 280.703,113.600 279.176 C 113.600 277.592,113.428 276.400,113.200 276.400 C 112.971 276.400,112.800 275.200,112.800 273.600 C 112.800 272.000,112.629 270.800,112.400 270.800 C 112.171 270.800,112.000 269.600,112.000 268.000 C 112.000 266.400,111.829 265.200,111.600 265.200 C 111.371 265.200,111.200 264.000,111.200 262.400 C 111.200 260.800,111.029 259.600,110.800 259.600 C 110.569 259.600,110.400 258.333,110.400 256.600 C 110.400 254.867,110.231 253.600,110.000 253.600 C 109.771 253.600,109.600 252.400,109.600 250.800 C 109.600 249.200,109.429 248.000,109.200 248.000 C 108.980 248.000,108.799 247.055,108.797 245.900 C 108.795 244.745,108.602 242.630,108.368 241.200 C 107.903 238.366,107.276 232.899,106.945 228.800 C 106.830 227.370,106.570 226.029,106.368 225.820 C 106.165 225.611,106.000 224.317,106.000 222.944 C 106.000 221.571,105.820 220.336,105.600 220.200 C 105.380 220.064,105.200 218.703,105.200 217.176 C 105.200 215.592,105.028 214.400,104.800 214.400 C 104.572 214.400,104.400 213.208,104.400 211.624 C 104.400 210.097,104.220 208.736,104.000 208.600 C 103.780 208.464,103.600 207.204,103.600 205.800 C 103.600 204.396,103.420 203.136,103.200 203.000 C 102.980 202.864,102.800 201.604,102.800 200.200 C 102.800 198.796,102.620 197.536,102.400 197.400 C 102.180 197.264,102.000 196.004,102.000 194.600 C 102.000 193.196,101.820 191.936,101.600 191.800 C 101.380 191.664,101.200 190.314,101.200 188.800 C 101.200 187.286,101.020 185.936,100.800 185.800 C 100.580 185.664,100.400 184.404,100.400 183.000 C 100.400 181.596,100.220 180.336,100.000 180.200 C 99.780 180.064,99.600 178.793,99.600 177.376 C 99.600 175.925,99.425 174.800,99.200 174.800 C 98.972 174.800,98.800 173.608,98.800 172.024 C 98.800 170.497,98.620 169.136,98.400 169.000 C 98.180 168.864,98.000 167.503,98.000 165.976 C 98.000 164.392,97.828 163.200,97.600 163.200 C 97.371 163.200,97.200 162.000,97.200 160.400 C 97.200 158.800,97.029 157.600,96.800 157.600 C 96.571 157.600,96.400 156.400,96.400 154.800 C 96.400 153.200,96.229 152.000,96.000 152.000 C 95.772 152.000,95.600 150.808,95.600 149.224 C 95.600 147.697,95.420 146.336,95.200 146.200 C 94.980 146.064,94.800 144.703,94.800 143.176 C 94.800 141.592,94.628 140.400,94.400 140.400 C 94.171 140.400,94.000 139.200,94.000 137.600 C 94.000 136.000,93.829 134.800,93.600 134.800 C 93.371 134.800,93.200 133.600,93.200 132.000 C 93.200 130.400,93.029 129.200,92.800 129.200 C 92.575 129.200,92.400 128.075,92.400 126.624 C 92.400 125.207,92.247 123.952,92.059 123.837 C 91.872 123.721,91.592 121.357,91.438 118.584 C 91.284 115.811,90.987 113.093,90.779 112.545 C 90.571 111.997,90.400 110.580,90.400 109.398 C 90.400 108.215,90.220 107.136,90.000 107.000 C 89.780 106.864,89.600 105.503,89.600 103.976 C 89.600 102.392,89.428 101.200,89.200 101.200 C 88.972 101.200,88.800 100.008,88.800 98.424 C 88.800 96.897,88.620 95.536,88.400 95.400 C 88.180 95.264,88.000 94.004,88.000 92.600 C 88.000 91.196,87.820 89.936,87.600 89.800 C 87.380 89.664,87.200 88.303,87.200 86.776 L 87.200 84.000 200.000 84.000 L 312.800 84.000 312.800 86.776 M119.719 116.562 C 119.015 116.818,118.310 117.157,118.153 117.314 C 117.995 117.471,117.571 117.600,117.209 117.600 C 116.847 117.600,116.164 117.960,115.692 118.400 C 115.220 118.840,114.668 119.200,114.465 119.200 C 113.867 119.200,110.902 122.250,110.612 123.162 C 110.466 123.623,110.178 124.000,109.973 124.000 C 109.768 124.000,109.600 124.345,109.600 124.767 C 109.600 125.188,109.397 125.601,109.149 125.684 C 108.901 125.766,108.608 126.771,108.498 127.917 C 108.388 129.063,108.141 130.000,107.949 130.000 C 107.757 130.000,107.600 131.530,107.600 133.400 C 107.600 135.400,107.765 136.800,108.000 136.800 C 108.220 136.800,108.400 137.395,108.400 138.121 C 108.400 140.872,113.444 148.000,115.391 148.000 C 115.726 148.000,116.000 148.180,116.000 148.400 C 116.000 148.620,116.360 148.800,116.800 148.800 C 117.240 148.800,117.600 148.980,117.600 149.200 C 117.600 149.420,117.949 149.600,118.376 149.600 C 118.803 149.600,119.264 149.780,119.400 150.000 C 119.559 150.258,126.404 150.400,138.624 150.400 L 157.600 150.400 157.600 194.200 C 157.600 237.733,157.595 238.000,156.800 238.000 C 156.360 238.000,156.000 237.820,156.000 237.600 C 156.000 237.380,155.640 237.200,155.200 237.200 C 154.760 237.200,154.400 237.020,154.400 236.800 C 154.400 236.580,154.040 236.400,153.600 236.400 C 153.160 236.400,152.800 236.220,152.800 236.000 C 152.800 235.780,152.440 235.600,152.000 235.600 C 151.560 235.600,151.200 235.420,151.200 235.200 C 151.200 234.980,150.840 234.800,150.400 234.800 C 149.960 234.800,149.600 234.620,149.600 234.400 C 149.600 234.180,149.240 234.000,148.800 234.000 C 148.360 234.000,148.000 233.820,148.000 233.600 C 148.000 233.380,147.280 233.200,146.400 233.200 C 145.520 233.200,144.800 233.006,144.800 232.770 C 144.800 232.482,143.769 232.405,141.700 232.537 C 137.801 232.785,135.600 233.185,135.600 233.644 C 135.600 233.840,135.184 234.000,134.675 234.000 C 134.167 234.000,133.364 234.360,132.892 234.800 C 132.420 235.240,131.830 235.600,131.582 235.600 C 130.951 235.600,126.800 239.987,126.800 240.654 C 126.800 240.954,126.656 241.200,126.479 241.200 C 126.302 241.200,125.852 242.055,125.477 243.100 C 124.110 246.914,124.869 258.800,126.479 258.800 C 126.656 258.800,126.800 259.046,126.800 259.346 C 126.800 260.122,131.003 264.400,131.765 264.400 C 132.114 264.400,132.400 264.552,132.400 264.737 C 132.400 264.923,133.255 265.508,134.300 266.037 C 135.345 266.567,136.260 267.135,136.333 267.300 C 136.407 267.465,136.686 267.600,136.954 267.600 C 137.663 267.600,139.593 268.549,139.597 268.900 C 139.599 269.065,139.834 269.200,140.120 269.200 C 140.856 269.200,142.793 270.141,142.797 270.500 C 142.799 270.665,143.001 270.800,143.247 270.800 C 143.493 270.800,145.663 271.790,148.070 273.000 C 150.477 274.210,152.706 275.200,153.023 275.200 C 153.341 275.200,153.600 275.380,153.600 275.600 C 153.600 275.820,153.960 276.000,154.400 276.000 C 154.840 276.000,155.200 276.180,155.200 276.400 C 155.200 276.620,155.560 276.800,156.000 276.800 C 156.440 276.800,156.800 276.980,156.800 277.200 C 156.800 277.420,157.160 277.600,157.600 277.600 C 158.040 277.600,158.400 277.780,158.400 278.000 C 158.400 278.220,158.760 278.400,159.200 278.400 C 159.640 278.400,160.001 278.535,160.001 278.700 C 160.002 278.865,160.992 279.450,162.200 280.000 C 163.408 280.550,164.398 281.135,164.399 281.300 C 164.399 281.465,164.760 281.600,165.200 281.600 C 165.640 281.600,166.000 281.780,166.000 282.000 C 166.000 282.220,166.420 282.400,166.933 282.400 C 167.447 282.400,167.990 282.523,168.141 282.674 C 169.872 284.406,180.128 284.406,181.859 282.674 C 182.010 282.523,182.429 282.400,182.791 282.400 C 183.153 282.400,183.836 282.040,184.308 281.600 C 184.780 281.160,185.332 280.800,185.535 280.800 C 186.133 280.800,189.098 277.750,189.388 276.838 C 189.534 276.377,189.822 276.000,190.027 276.000 C 190.232 276.000,190.400 275.655,190.400 275.233 C 190.400 274.812,190.603 274.399,190.851 274.316 C 191.099 274.234,191.392 273.229,191.502 272.083 C 191.612 270.937,191.859 270.000,192.051 270.000 C 192.248 270.000,192.400 239.597,192.400 200.000 C 192.400 160.403,192.248 130.000,192.051 130.000 C 191.859 130.000,191.612 129.063,191.502 127.917 C 191.392 126.771,191.099 125.766,190.851 125.684 C 190.603 125.601,190.400 125.188,190.400 124.767 C 190.400 124.345,190.232 124.000,190.027 124.000 C 189.822 124.000,189.534 123.623,189.388 123.162 C 189.098 122.250,186.133 119.200,185.535 119.200 C 185.332 119.200,184.780 118.840,184.308 118.400 C 183.836 117.960,183.153 117.600,182.791 117.600 C 182.429 117.600,182.010 117.477,181.859 117.326 C 180.632 116.099,178.449 116.012,149.800 116.054 C 128.966 116.084,120.646 116.224,119.719 116.562 M227.800 116.400 C 227.664 116.620,227.113 116.800,226.576 116.800 C 226.039 116.800,225.600 116.980,225.600 117.200 C 225.600 117.420,225.060 117.600,224.400 117.600 C 223.740 117.600,223.200 117.780,223.200 118.000 C 223.200 118.220,222.840 118.400,222.400 118.400 C 221.960 118.400,221.600 118.580,221.600 118.800 C 221.600 119.020,221.240 119.200,220.800 119.200 C 220.360 119.200,220.000 119.380,220.000 119.600 C 220.000 119.820,219.730 120.000,219.400 120.000 C 219.071 120.000,218.059 120.720,217.152 121.600 C 216.245 122.480,215.255 123.200,214.952 123.200 C 214.648 123.200,214.400 123.441,214.400 123.735 C 214.400 124.029,213.711 124.994,212.868 125.880 C 210.504 128.365,208.775 132.318,208.508 135.846 C 208.385 137.471,208.131 138.800,207.942 138.800 C 207.754 138.800,207.600 151.400,207.600 166.800 C 207.600 182.200,207.754 194.800,207.942 194.800 C 208.130 194.800,208.388 196.043,208.516 197.563 C 208.643 199.083,208.918 200.658,209.127 201.063 C 209.336 201.468,209.752 202.340,210.053 203.000 C 210.353 203.660,210.689 204.290,210.800 204.400 C 210.911 204.510,211.271 205.137,211.601 205.792 C 212.390 207.362,217.816 212.800,218.594 212.800 C 218.927 212.800,219.200 212.980,219.200 213.200 C 219.200 213.420,219.436 213.600,219.725 213.600 C 220.013 213.600,220.636 213.960,221.108 214.400 C 221.580 214.840,222.323 215.200,222.760 215.200 C 223.196 215.200,223.664 215.380,223.800 215.600 C 223.936 215.820,224.476 216.000,225.000 216.000 C 225.524 216.000,226.064 216.180,226.200 216.400 C 226.336 216.620,227.337 216.800,228.424 216.800 C 229.511 216.800,230.400 216.980,230.400 217.200 C 230.400 217.453,233.333 217.600,238.400 217.600 L 246.400 217.600 246.400 218.776 C 246.400 219.423,246.220 220.064,246.000 220.200 C 245.780 220.336,245.600 221.571,245.600 222.944 C 245.600 224.317,245.435 225.611,245.234 225.820 C 245.032 226.029,244.769 227.280,244.649 228.600 C 244.529 229.920,244.248 232.260,244.023 233.800 C 243.799 235.340,243.462 237.860,243.275 239.400 C 242.749 243.725,242.064 244.764,239.724 244.787 C 239.022 244.794,238.336 244.980,238.200 245.200 C 238.064 245.420,237.344 245.600,236.600 245.600 C 235.856 245.600,235.136 245.780,235.000 246.000 C 234.864 246.220,234.144 246.400,233.400 246.400 C 232.656 246.400,231.936 246.580,231.800 246.800 C 231.664 247.020,230.944 247.200,230.200 247.200 C 229.456 247.200,228.736 247.380,228.600 247.600 C 228.464 247.820,227.733 248.000,226.976 248.000 C 226.219 248.000,225.600 248.180,225.600 248.400 C 225.600 248.620,224.880 248.800,224.000 248.800 C 223.120 248.800,222.400 248.980,222.400 249.200 C 222.400 249.420,221.781 249.600,221.024 249.600 C 220.267 249.600,219.536 249.780,219.400 250.000 C 219.264 250.220,218.803 250.400,218.376 250.400 C 217.949 250.400,217.600 250.580,217.600 250.800 C 217.600 251.020,217.240 251.200,216.800 251.200 C 216.360 251.200,216.000 251.380,216.000 251.600 C 216.000 251.820,215.726 252.000,215.391 252.000 C 213.444 252.000,208.400 259.128,208.400 261.879 C 208.400 262.605,208.220 263.200,208.000 263.200 C 207.765 263.200,207.600 264.600,207.600 266.600 C 207.600 268.470,207.757 270.000,207.949 270.000 C 208.141 270.000,208.388 270.937,208.498 272.083 C 208.608 273.229,208.901 274.234,209.149 274.316 C 209.397 274.399,209.600 274.812,209.600 275.233 C 209.600 275.655,209.768 276.000,209.973 276.000 C 210.178 276.000,210.466 276.377,210.612 276.838 C 210.902 277.750,213.867 280.800,214.465 280.800 C 214.668 280.800,215.220 281.160,215.692 281.600 C 216.164 282.040,216.847 282.400,217.209 282.400 C 217.571 282.400,217.990 282.523,218.141 282.674 C 219.305 283.838,229.169 284.621,229.800 283.600 C 229.936 283.380,230.656 283.200,231.400 283.200 C 232.144 283.200,232.864 283.020,233.000 282.800 C 233.136 282.580,233.867 282.400,234.624 282.400 C 235.381 282.400,236.000 282.220,236.000 282.000 C 236.000 281.780,236.720 281.600,237.600 281.600 C 238.480 281.600,239.200 281.420,239.200 281.200 C 239.200 280.980,239.819 280.800,240.576 280.800 C 241.333 280.800,242.064 280.620,242.200 280.400 C 242.336 280.180,243.056 280.000,243.800 280.000 C 244.544 280.000,245.264 279.820,245.400 279.600 C 245.536 279.380,246.256 279.200,247.000 279.200 C 247.744 279.200,248.464 279.020,248.600 278.800 C 248.736 278.580,249.456 278.400,250.200 278.400 C 250.944 278.400,251.664 278.220,251.800 278.000 C 251.936 277.780,252.667 277.600,253.424 277.600 C 254.181 277.600,254.800 277.420,254.800 277.200 C 254.800 276.980,255.520 276.800,256.400 276.800 C 257.280 276.800,258.000 276.620,258.000 276.400 C 258.000 276.180,258.720 276.000,259.600 276.000 C 260.480 276.000,261.200 275.820,261.200 275.600 C 261.200 275.380,261.629 275.200,262.154 275.200 C 263.616 275.200,267.073 273.978,267.968 273.144 C 268.407 272.735,268.918 272.400,269.102 272.400 C 269.514 272.400,272.400 269.483,272.400 269.066 C 272.400 268.901,272.735 268.407,273.144 267.968 C 274.106 266.935,275.200 263.535,275.200 261.578 C 275.200 260.736,275.380 259.936,275.600 259.800 C 275.820 259.664,276.000 258.494,276.000 257.200 C 276.000 255.906,276.180 254.736,276.400 254.600 C 276.620 254.464,276.800 253.204,276.800 251.800 C 276.800 250.396,276.980 249.136,277.200 249.000 C 277.420 248.864,277.600 247.604,277.600 246.200 C 277.600 244.796,277.780 243.536,278.000 243.400 C 278.220 243.264,278.400 242.094,278.400 240.800 C 278.400 239.506,278.580 238.336,278.800 238.200 C 279.020 238.064,279.200 236.703,279.200 235.176 C 279.200 233.592,279.372 232.400,279.600 232.400 C 279.829 232.400,280.000 231.200,280.000 229.600 C 280.000 228.000,280.171 226.800,280.400 226.800 C 280.626 226.800,280.800 225.667,280.800 224.200 C 280.800 222.733,280.974 221.600,281.200 221.600 C 281.429 221.600,281.600 220.400,281.600 218.800 C 281.600 217.200,281.771 216.000,282.000 216.000 C 282.251 216.000,282.400 213.400,282.400 209.000 C 282.400 204.600,282.251 202.000,282.000 202.000 C 281.780 202.000,281.600 201.471,281.600 200.824 C 281.600 200.177,281.420 199.536,281.200 199.400 C 280.980 199.264,280.800 198.713,280.800 198.176 C 280.800 197.639,280.620 197.200,280.400 197.200 C 280.180 197.200,280.000 196.840,280.000 196.400 C 280.000 195.960,279.820 195.600,279.600 195.600 C 279.380 195.600,279.197 195.375,279.193 195.100 C 279.173 193.721,271.938 186.400,270.595 186.400 C 270.268 186.400,270.000 186.220,270.000 186.000 C 270.000 185.780,269.640 185.600,269.200 185.600 C 268.760 185.600,268.400 185.420,268.400 185.200 C 268.400 184.980,268.040 184.800,267.600 184.800 C 267.160 184.800,266.800 184.620,266.800 184.400 C 266.800 184.180,266.260 184.000,265.600 184.000 C 264.940 184.000,264.400 183.820,264.400 183.600 C 264.400 183.378,263.333 183.200,262.000 183.200 C 260.667 183.200,259.600 183.022,259.600 182.800 C 259.600 182.546,256.467 182.400,251.000 182.400 L 242.400 182.400 242.400 166.400 L 242.400 150.400 261.376 150.400 C 273.596 150.400,280.441 150.258,280.600 150.000 C 280.736 149.780,281.197 149.600,281.624 149.600 C 282.051 149.600,282.400 149.420,282.400 149.200 C 282.400 148.980,282.760 148.800,283.200 148.800 C 283.640 148.800,284.000 148.620,284.000 148.400 C 284.000 148.180,284.274 148.000,284.609 148.000 C 286.556 148.000,291.600 140.872,291.600 138.121 C 291.600 137.395,291.780 136.800,292.000 136.800 C 292.235 136.800,292.400 135.400,292.400 133.400 C 292.400 131.530,292.243 130.000,292.051 130.000 C 291.859 130.000,291.612 129.063,291.502 127.917 C 291.392 126.771,291.099 125.766,290.851 125.684 C 290.603 125.601,290.400 125.188,290.400 124.767 C 290.400 124.345,290.232 124.000,290.027 124.000 C 289.822 124.000,289.534 123.623,289.388 123.162 C 289.098 122.250,286.133 119.200,285.535 119.200 C 285.332 119.200,284.780 118.840,284.308 118.400 C 283.836 117.960,283.153 117.600,282.791 117.600 C 282.429 117.600,282.010 117.477,281.859 117.326 C 280.652 116.119,278.340 116.012,253.324 116.006 C 236.898 116.002,227.961 116.140,227.800 116.400 " stroke="none" fill="#040404" fill-rule="evenodd"></path><path id="path1" d="" stroke="none" fill="#080404" fill-rule="evenodd"></path><path id="path2" d="" stroke="none" fill="#080404" fill-rule="evenodd"></path><path id="path3" d="" stroke="none" fill="#080404" fill-rule="evenodd"></path><path id="path4" d="" stroke="none" fill="#080404" fill-rule="evenodd"></path></g></svg>