<svg id="svg" version="1.1" xmlns="http://www.w3.org/2000/svg" xmlns:xlink="http://www.w3.org/1999/xlink" width="400" height="400" viewBox="0, 0, 400,400"><g id="svgg"><path id="path0" d="M159.900 144.700 C 137.735 144.757,119.601 144.938,119.603 145.102 C 119.605 145.266,119.878 147.560,120.211 150.200 C 120.774 154.667,121.074 157.161,122.040 165.400 C 122.247 167.160,122.521 169.995,122.650 171.700 L 122.885 174.800 161.419 174.800 C 186.677 174.800,200.038 174.938,200.200 175.200 C 200.336 175.420,200.977 175.600,201.624 175.600 C 204.192 175.600,203.027 176.283,193.700 180.247 C 192.985 180.551,191.815 181.053,191.100 181.361 C 190.385 181.670,187.730 182.769,185.200 183.803 C 182.670 184.836,179.650 186.114,178.488 186.641 C 177.327 187.168,176.219 187.600,176.026 187.600 C 175.833 187.600,174.894 187.986,173.938 188.457 C 172.982 188.928,171.795 189.468,171.300 189.657 C 169.130 190.484,168.487 190.749,166.600 191.593 C 165.500 192.085,164.287 192.648,163.905 192.844 C 163.523 193.040,162.938 193.200,162.605 193.200 C 162.272 193.200,162.000 193.380,162.000 193.600 C 162.000 193.820,161.728 194.000,161.395 194.000 C 161.062 194.000,160.477 194.159,160.095 194.353 C 159.713 194.548,158.950 194.885,158.400 195.103 C 157.850 195.320,156.500 195.904,155.400 196.400 C 154.300 196.896,153.040 197.440,152.600 197.610 C 152.160 197.780,151.170 198.188,150.400 198.518 C 149.630 198.849,146.120 200.327,142.600 201.803 C 139.080 203.280,135.570 204.756,134.800 205.085 C 134.030 205.413,133.040 205.828,132.600 206.007 C 132.160 206.186,131.215 206.572,130.500 206.864 C 129.785 207.156,129.200 207.531,129.200 207.698 C 129.200 207.864,145.175 208.042,164.700 208.094 L 200.200 208.188 163.200 208.403 C 123.283 208.636,125.807 208.574,126.276 209.300 C 126.454 209.575,126.729 211.870,126.887 214.400 C 127.046 216.930,127.366 221.430,127.601 224.400 C 127.835 227.370,128.122 231.776,128.240 234.191 C 128.357 236.606,128.643 238.811,128.876 239.091 C 129.214 239.498,140.182 239.600,183.825 239.600 C 215.141 239.600,238.446 239.751,238.572 239.955 C 238.778 240.288,238.483 246.748,237.574 261.800 C 237.362 265.320,237.043 270.948,236.867 274.307 C 236.519 280.928,236.548 280.850,234.200 281.512 C 233.320 281.761,231.340 282.333,229.800 282.785 C 226.546 283.740,226.098 283.866,218.400 286.000 C 210.614 288.158,207.962 288.906,205.600 289.609 C 205.050 289.773,203.790 290.129,202.800 290.399 C 201.810 290.670,200.595 291.081,200.100 291.313 C 199.463 291.612,198.937 291.607,198.300 291.298 C 197.390 290.855,196.072 290.520,193.696 290.127 C 192.979 290.009,192.294 289.751,192.173 289.556 C 192.052 289.360,191.421 289.200,190.771 289.200 C 190.121 289.200,189.277 289.041,188.895 288.848 C 188.513 288.654,182.993 287.218,176.628 285.656 C 170.264 284.094,164.893 282.653,164.693 282.453 C 164.342 282.102,163.851 277.331,162.765 263.700 L 162.247 257.200 146.478 257.200 L 130.709 257.200 130.962 258.500 C 131.100 259.215,131.387 261.870,131.599 264.400 C 131.811 266.930,132.164 271.070,132.384 273.600 C 132.779 278.142,133.247 283.613,133.973 292.200 C 134.178 294.620,134.457 298.130,134.594 300.000 C 135.020 305.827,135.072 306.000,136.395 306.000 C 137.032 306.000,137.664 306.180,137.800 306.400 C 137.936 306.620,138.566 306.800,139.200 306.800 C 139.834 306.800,140.464 306.980,140.600 307.200 C 140.736 307.420,141.276 307.600,141.800 307.600 C 142.324 307.600,142.864 307.780,143.000 308.000 C 143.136 308.220,143.766 308.400,144.400 308.400 C 145.034 308.400,145.664 308.580,145.800 308.800 C 145.936 309.020,146.566 309.200,147.200 309.200 C 147.834 309.200,148.464 309.380,148.600 309.600 C 148.736 309.820,149.276 310.000,149.800 310.000 C 150.324 310.000,150.864 310.180,151.000 310.400 C 151.136 310.620,151.689 310.800,152.229 310.800 C 152.769 310.800,153.523 310.963,153.905 311.162 C 154.287 311.361,156.670 312.103,159.200 312.811 C 161.730 313.518,164.520 314.319,165.400 314.591 C 166.280 314.862,167.810 315.315,168.800 315.596 C 172.776 316.727,173.432 316.923,174.200 317.210 C 174.640 317.374,175.810 317.734,176.800 318.008 C 180.089 318.921,181.392 319.308,182.200 319.610 C 182.640 319.774,183.810 320.127,184.800 320.393 C 185.790 320.660,186.913 321.040,187.295 321.239 C 187.677 321.438,188.354 321.600,188.800 321.600 C 189.246 321.600,189.923 321.762,190.305 321.961 C 190.687 322.160,191.810 322.537,192.800 322.800 C 193.790 323.063,194.913 323.440,195.295 323.639 C 195.677 323.838,196.442 324.000,196.995 324.000 C 197.548 324.000,198.000 324.156,198.000 324.348 C 198.000 325.643,201.194 325.039,213.904 321.338 C 221.107 319.242,227.585 317.363,228.300 317.163 C 231.423 316.291,232.357 316.017,235.000 315.200 C 236.540 314.724,238.385 314.169,239.100 313.967 C 239.815 313.765,241.030 313.420,241.800 313.200 C 242.570 312.980,243.785 312.637,244.500 312.437 C 246.278 311.940,249.681 310.944,252.800 310.007 C 254.230 309.577,256.750 308.838,258.400 308.363 C 260.050 307.889,262.300 307.202,263.400 306.836 L 265.400 306.170 265.693 303.985 C 265.854 302.783,266.173 299.640,266.401 297.000 C 266.629 294.360,266.989 290.220,267.200 287.800 C 267.936 279.388,268.402 273.974,268.778 269.500 C 268.986 267.025,269.346 262.885,269.578 260.300 C 270.134 254.110,270.580 248.981,271.779 235.000 C 273.237 218.002,273.582 214.079,273.860 211.300 L 274.110 208.800 238.155 208.795 C 218.380 208.792,201.790 208.679,201.289 208.545 C 200.236 208.263,200.941 207.898,209.800 204.134 C 212.660 202.919,215.950 201.492,217.112 200.962 C 218.273 200.433,219.304 200.000,219.402 200.000 C 219.500 200.000,220.759 199.460,222.200 198.800 C 223.641 198.140,224.900 197.600,224.998 197.600 C 225.096 197.600,226.127 197.168,227.288 196.641 C 228.450 196.113,235.160 193.217,242.200 190.204 C 249.240 187.192,255.585 184.473,256.300 184.163 C 257.015 183.854,258.185 183.349,258.900 183.043 C 259.615 182.737,261.240 182.017,262.512 181.443 C 263.783 180.869,264.903 180.400,265.000 180.400 C 265.097 180.400,266.127 179.973,267.288 179.451 C 268.450 178.929,270.570 177.993,272.000 177.371 C 275.932 175.661,276.400 175.287,276.399 173.854 C 276.399 173.164,276.572 171.160,276.784 169.400 C 276.995 167.640,277.360 164.310,277.595 162.000 C 277.829 159.690,278.191 156.180,278.400 154.200 C 278.609 152.220,278.890 149.205,279.024 147.500 L 279.268 144.400 239.734 144.498 C 217.990 144.552,182.065 144.643,159.900 144.700 " stroke="none" fill="#f0f1ef" fill-rule="evenodd"></path><path id="path1" d="M70.800 92.200 C 70.800 92.750,70.980 93.200,71.200 93.200 C 71.442 93.200,71.600 94.933,71.600 97.600 C 71.600 100.267,71.758 102.000,72.000 102.000 C 72.241 102.000,72.400 103.667,72.400 106.200 C 72.400 108.733,72.559 110.400,72.800 110.400 C 73.041 110.400,73.200 112.059,73.200 114.576 C 73.200 116.929,73.375 118.861,73.600 119.000 C 73.820 119.136,74.000 120.911,74.000 122.944 C 74.000 124.977,74.163 126.811,74.362 127.020 C 74.700 127.376,75.174 134.122,75.174 138.600 C 75.175 139.700,75.366 141.590,75.599 142.800 C 75.833 144.010,76.026 146.350,76.029 148.000 C 76.032 149.650,76.197 151.540,76.396 152.200 C 76.595 152.860,76.859 155.020,76.983 157.000 C 77.538 165.835,77.819 169.029,78.079 169.427 C 78.232 169.662,78.390 171.597,78.430 173.727 C 78.469 175.857,78.659 177.600,78.851 177.600 C 79.043 177.600,79.200 179.479,79.200 181.776 C 79.200 184.129,79.375 186.061,79.600 186.200 C 79.825 186.339,80.000 188.271,80.000 190.624 C 80.000 193.141,80.159 194.800,80.400 194.800 C 80.641 194.800,80.800 196.459,80.800 198.976 C 80.800 201.329,80.975 203.261,81.200 203.400 C 81.423 203.538,81.600 205.396,81.600 207.600 C 81.600 209.804,81.777 211.662,82.000 211.800 C 82.223 211.938,82.400 213.796,82.400 216.000 C 82.400 218.204,82.577 220.062,82.800 220.200 C 83.023 220.338,83.200 222.204,83.200 224.424 C 83.200 226.808,83.360 228.400,83.600 228.400 C 83.842 228.400,84.000 230.133,84.000 232.800 C 84.000 235.467,84.158 237.200,84.400 237.200 C 84.641 237.200,84.800 238.867,84.800 241.400 C 84.800 243.933,84.959 245.600,85.200 245.600 C 85.441 245.600,85.600 247.240,85.600 249.720 C 85.600 251.986,85.771 254.011,85.979 254.220 C 86.188 254.429,86.390 256.442,86.428 258.693 C 86.467 260.944,86.656 262.689,86.849 262.570 C 87.042 262.450,87.200 264.353,87.200 266.800 C 87.200 269.663,87.342 271.159,87.600 271.000 C 87.857 270.841,88.000 272.255,88.000 274.953 C 88.000 277.321,88.174 279.261,88.400 279.400 C 88.625 279.539,88.800 281.463,88.800 283.800 C 88.800 286.137,88.975 288.061,89.200 288.200 C 89.421 288.336,89.600 290.130,89.600 292.200 C 89.600 294.270,89.779 296.064,90.000 296.200 C 90.225 296.339,90.400 298.244,90.400 300.544 C 90.400 302.797,90.569 304.811,90.775 305.020 C 90.981 305.229,91.229 307.290,91.326 309.600 C 91.422 311.910,91.714 316.140,91.974 319.000 C 92.233 321.860,92.426 325.230,92.402 326.488 C 92.379 327.746,92.531 329.098,92.742 329.492 C 93.102 330.165,93.350 333.118,93.844 342.600 C 93.958 344.800,94.220 346.771,94.426 346.980 C 94.632 347.189,94.800 348.584,94.800 350.080 C 94.800 352.506,94.884 352.800,95.576 352.800 C 96.003 352.800,96.464 352.980,96.600 353.200 C 96.736 353.420,97.467 353.600,98.224 353.600 C 98.981 353.600,99.600 353.780,99.600 354.000 C 99.600 354.220,100.200 354.400,100.933 354.400 C 101.667 354.400,102.393 354.527,102.548 354.682 C 102.703 354.837,103.318 355.028,103.915 355.106 C 104.512 355.185,105.171 355.418,105.380 355.625 C 105.589 355.831,106.343 356.000,107.056 356.000 C 107.769 356.000,108.464 356.180,108.600 356.400 C 108.736 356.620,109.366 356.800,110.000 356.800 C 110.634 356.800,111.275 356.997,111.423 357.238 C 111.572 357.478,112.123 357.593,112.647 357.493 C 113.171 357.393,113.600 357.466,113.600 357.655 C 113.600 357.845,114.320 358.000,115.200 358.000 C 116.080 358.000,116.800 358.180,116.800 358.400 C 116.800 358.620,117.520 358.800,118.400 358.800 C 119.280 358.800,120.000 358.980,120.000 359.200 C 120.000 359.420,120.540 359.600,121.200 359.600 C 121.860 359.600,122.400 359.780,122.400 360.000 C 122.400 360.220,123.120 360.400,124.000 360.400 C 124.880 360.400,125.600 360.580,125.600 360.800 C 125.600 361.020,126.331 361.200,127.224 361.200 C 128.204 361.200,128.749 361.358,128.600 361.600 C 128.451 361.841,128.988 362.000,129.953 362.000 C 130.833 362.000,131.664 362.180,131.800 362.400 C 131.936 362.620,132.487 362.800,133.024 362.800 C 133.561 362.800,134.000 362.943,134.000 363.118 C 134.000 363.293,134.675 363.481,135.500 363.536 C 136.325 363.590,137.060 363.807,137.133 364.018 C 137.207 364.228,137.972 364.400,138.833 364.400 C 139.695 364.400,140.400 364.580,140.400 364.800 C 140.400 365.020,140.929 365.200,141.576 365.200 C 142.223 365.200,142.864 365.380,143.000 365.600 C 143.136 365.820,143.766 366.000,144.400 366.000 C 145.034 366.000,145.664 366.180,145.800 366.400 C 145.936 366.620,146.667 366.800,147.424 366.800 C 148.181 366.800,148.800 366.980,148.800 367.200 C 148.800 367.420,149.520 367.600,150.400 367.600 C 151.280 367.600,152.000 367.780,152.000 368.000 C 152.000 368.220,152.529 368.400,153.176 368.400 C 153.823 368.400,154.464 368.580,154.600 368.800 C 154.736 369.020,155.467 369.200,156.224 369.200 C 156.981 369.200,157.600 369.380,157.600 369.600 C 157.600 369.820,158.320 370.000,159.200 370.000 C 160.080 370.000,160.800 370.180,160.800 370.400 C 160.800 370.620,161.329 370.800,161.976 370.800 C 162.623 370.800,163.252 370.960,163.373 371.156 C 163.494 371.351,164.224 371.621,164.996 371.756 C 165.768 371.890,167.032 372.110,167.804 372.244 C 168.576 372.379,169.306 372.649,169.427 372.844 C 169.548 373.040,170.267 373.200,171.024 373.200 C 171.781 373.200,172.400 373.356,172.400 373.547 C 172.400 373.893,174.835 374.437,176.862 374.544 C 177.446 374.575,177.840 374.735,177.738 374.900 C 177.636 375.065,178.283 375.200,179.176 375.200 C 180.069 375.200,180.800 375.380,180.800 375.600 C 180.800 375.820,181.329 376.000,181.976 376.000 C 182.623 376.000,183.264 376.180,183.400 376.400 C 183.536 376.620,184.267 376.800,185.024 376.800 C 185.781 376.800,186.400 376.980,186.400 377.200 C 186.400 377.420,187.120 377.600,188.000 377.600 C 188.880 377.600,189.600 377.780,189.600 378.000 C 189.600 378.220,190.142 378.400,190.805 378.400 C 191.468 378.400,192.323 378.558,192.705 378.751 C 193.872 379.340,196.208 380.000,197.128 380.000 C 197.608 380.000,198.000 380.180,198.000 380.400 C 198.000 380.620,198.900 380.800,200.000 380.800 C 201.100 380.800,202.000 380.620,202.000 380.400 C 202.000 380.180,202.619 380.000,203.376 380.000 C 204.133 380.000,204.864 379.820,205.000 379.600 C 205.136 379.380,205.867 379.200,206.624 379.200 C 207.381 379.200,208.000 379.020,208.000 378.800 C 208.000 378.580,208.540 378.400,209.200 378.400 C 209.860 378.400,210.400 378.220,210.400 378.000 C 210.400 377.780,211.105 377.600,211.967 377.600 C 212.828 377.600,213.593 377.428,213.667 377.218 C 213.740 377.007,214.475 376.790,215.300 376.736 C 216.125 376.681,216.800 376.493,216.800 376.318 C 216.800 376.143,217.252 376.000,217.805 376.000 C 218.358 376.000,219.123 375.840,219.505 375.645 C 219.887 375.449,221.280 375.073,222.600 374.809 C 223.920 374.544,225.720 374.151,226.600 373.935 C 227.480 373.719,228.785 373.446,229.500 373.327 C 230.215 373.209,230.800 372.952,230.800 372.756 C 230.800 372.560,231.419 372.400,232.176 372.400 C 232.933 372.400,233.664 372.220,233.800 372.000 C 233.936 371.780,234.566 371.600,235.200 371.600 C 235.834 371.600,236.464 371.420,236.600 371.200 C 236.736 370.980,237.366 370.800,238.000 370.800 C 238.634 370.800,239.264 370.620,239.400 370.400 C 239.536 370.180,240.267 370.000,241.024 370.000 C 241.781 370.000,242.400 369.820,242.400 369.600 C 242.400 369.380,243.120 369.200,244.000 369.200 C 244.880 369.200,245.600 369.040,245.600 368.844 C 245.600 368.648,246.230 368.378,247.000 368.244 C 247.770 368.110,249.030 367.890,249.800 367.756 C 250.570 367.622,251.200 367.352,251.200 367.156 C 251.200 366.960,251.819 366.800,252.576 366.800 C 253.333 366.800,254.064 366.620,254.200 366.400 C 254.336 366.180,255.067 366.000,255.824 366.000 C 256.581 366.000,257.200 365.820,257.200 365.600 C 257.200 365.380,257.729 365.200,258.376 365.200 C 259.023 365.200,259.664 365.020,259.800 364.800 C 259.936 364.580,260.667 364.400,261.424 364.400 C 262.181 364.400,262.800 364.220,262.800 364.000 C 262.800 363.780,263.520 363.600,264.400 363.600 C 265.280 363.600,266.000 363.420,266.000 363.200 C 266.000 362.980,266.529 362.800,267.176 362.800 C 267.823 362.800,268.464 362.620,268.600 362.400 C 268.736 362.180,269.467 362.000,270.224 362.000 C 270.981 362.000,271.600 361.820,271.600 361.600 C 271.600 361.380,272.230 361.200,273.000 361.200 C 273.770 361.200,274.400 361.020,274.400 360.800 C 274.400 360.580,275.120 360.400,276.000 360.400 C 276.880 360.400,277.600 360.220,277.600 360.000 C 277.600 359.780,278.129 359.600,278.776 359.600 C 279.423 359.600,280.064 359.420,280.200 359.200 C 280.336 358.980,281.037 358.800,281.757 358.800 C 282.477 358.800,283.201 358.665,283.366 358.501 C 283.629 358.237,286.090 357.684,290.300 356.942 C 291.015 356.816,291.600 356.552,291.600 356.356 C 291.600 356.160,292.219 356.000,292.976 356.000 C 293.733 356.000,294.452 355.840,294.573 355.644 C 294.694 355.449,295.424 355.179,296.196 355.044 C 296.968 354.910,298.230 354.690,299.000 354.556 C 299.770 354.422,300.400 354.152,300.400 353.956 C 300.400 353.760,301.019 353.600,301.776 353.600 C 302.533 353.600,303.264 353.420,303.400 353.200 C 303.536 352.980,303.997 352.800,304.424 352.800 C 305.116 352.800,305.200 352.506,305.200 350.080 C 305.200 348.584,305.368 347.189,305.574 346.980 C 305.780 346.771,306.045 344.800,306.163 342.600 C 306.281 340.400,306.558 336.530,306.778 334.000 C 306.998 331.470,307.267 328.230,307.376 326.800 C 307.484 325.370,307.781 321.860,308.036 319.000 C 308.290 316.140,308.578 311.910,308.674 309.600 C 308.771 307.290,309.019 305.229,309.225 305.020 C 309.431 304.811,309.600 302.786,309.600 300.520 C 309.600 298.040,309.759 296.400,310.000 296.400 C 310.240 296.400,310.400 294.808,310.400 292.424 C 310.400 290.204,310.577 288.338,310.800 288.200 C 311.025 288.061,311.200 286.137,311.200 283.800 C 311.200 281.463,311.375 279.539,311.600 279.400 C 311.826 279.261,312.000 277.321,312.000 274.953 C 312.000 272.255,312.143 270.841,312.400 271.000 C 312.658 271.159,312.800 269.663,312.800 266.800 C 312.800 264.353,312.958 262.450,313.151 262.570 C 313.344 262.689,313.533 260.944,313.572 258.693 C 313.610 256.442,313.812 254.429,314.021 254.220 C 314.229 254.011,314.400 251.986,314.400 249.720 C 314.400 247.240,314.559 245.600,314.800 245.600 C 315.041 245.600,315.200 243.933,315.200 241.400 C 315.200 238.867,315.359 237.200,315.600 237.200 C 315.842 237.200,316.000 235.475,316.000 232.824 C 316.000 230.337,316.173 228.340,316.400 228.200 C 316.621 228.064,316.800 226.270,316.800 224.200 C 316.800 222.136,316.957 220.350,317.149 220.232 C 317.341 220.113,317.530 218.257,317.570 216.108 C 317.610 213.959,317.813 212.029,318.021 211.820 C 318.230 211.611,318.400 209.687,318.400 207.544 C 318.400 205.377,318.578 203.537,318.800 203.400 C 319.025 203.261,319.200 201.329,319.200 198.976 C 319.200 196.459,319.359 194.800,319.600 194.800 C 319.842 194.800,320.000 193.067,320.000 190.400 C 320.000 187.733,320.158 186.000,320.400 186.000 C 320.641 186.000,320.800 184.333,320.800 181.800 C 320.800 179.459,320.966 177.600,321.174 177.600 C 321.380 177.600,321.644 175.755,321.760 173.500 C 321.877 171.245,322.152 167.510,322.371 165.200 C 322.590 162.890,322.866 159.470,322.986 157.600 C 323.105 155.730,323.376 153.300,323.588 152.200 C 324.006 150.033,324.483 143.655,324.598 138.699 C 324.637 136.993,324.789 135.478,324.935 135.332 C 325.081 135.186,325.200 133.307,325.200 131.157 C 325.200 128.982,325.377 127.138,325.600 127.000 C 325.821 126.864,326.000 125.070,326.000 123.000 C 326.000 120.936,326.158 119.150,326.351 119.031 C 326.543 118.911,326.732 116.966,326.770 114.707 C 326.808 112.448,327.010 110.540,327.219 110.467 C 327.429 110.393,327.600 108.458,327.600 106.167 C 327.600 103.656,327.759 102.000,328.000 102.000 C 328.242 102.000,328.400 100.275,328.400 97.624 C 328.400 95.137,328.573 93.140,328.800 93.000 C 329.020 92.864,329.200 92.403,329.200 91.976 C 329.200 91.209,327.624 91.200,200.000 91.200 L 70.800 91.200 70.800 92.200 M303.774 114.400 C 303.760 115.390,303.524 118.720,303.249 121.800 C 302.975 124.880,302.586 129.290,302.387 131.600 C 302.187 133.910,301.845 137.780,301.628 140.200 C 300.899 148.323,300.381 154.169,299.989 158.700 C 299.775 161.175,299.420 165.270,299.200 167.800 C 298.980 170.330,298.620 174.470,298.400 177.000 C 298.180 179.530,297.825 183.625,297.611 186.100 C 297.396 188.575,297.044 192.580,296.827 195.000 C 296.462 199.079,296.142 202.742,295.203 213.600 C 295.003 215.910,294.651 219.915,294.420 222.500 C 294.189 225.085,293.820 229.270,293.600 231.800 C 293.380 234.330,293.015 238.515,292.790 241.100 C 292.564 243.685,291.939 250.840,291.402 257.000 C 290.864 263.160,290.239 270.315,290.012 272.900 C 288.943 285.094,288.491 290.277,287.589 300.700 C 287.375 303.175,287.025 307.225,286.811 309.700 C 286.596 312.175,286.232 316.270,286.000 318.800 C 285.769 321.330,285.407 325.560,285.196 328.200 C 284.699 334.410,284.543 335.063,283.477 335.378 C 282.995 335.521,280.980 336.064,279.000 336.585 C 277.020 337.106,273.960 337.921,272.200 338.396 C 270.440 338.871,268.100 339.502,267.000 339.797 C 260.005 341.675,243.438 346.149,241.600 346.656 C 240.390 346.990,238.095 347.609,236.500 348.031 C 234.905 348.454,232.295 349.146,230.700 349.569 C 229.105 349.991,226.765 350.621,225.500 350.969 C 224.235 351.316,222.165 351.884,220.900 352.231 C 219.635 352.579,217.340 353.194,215.800 353.600 C 207.373 355.818,204.814 356.504,203.027 357.025 C 201.942 357.341,200.820 357.600,200.532 357.600 C 200.112 357.600,199.989 354.478,199.905 341.743 C 199.815 328.123,199.715 325.844,199.200 325.582 C 198.870 325.415,197.790 325.059,196.800 324.793 C 195.810 324.527,194.640 324.174,194.200 324.010 C 193.392 323.708,192.089 323.321,188.800 322.408 C 187.810 322.134,186.640 321.774,186.200 321.610 C 185.395 321.309,184.122 320.931,180.800 320.008 C 179.810 319.732,178.550 319.360,178.000 319.179 C 176.582 318.715,170.429 316.878,160.000 313.806 C 155.050 312.347,149.740 310.783,148.200 310.328 C 146.660 309.874,144.410 309.188,143.200 308.805 C 141.990 308.421,140.190 307.883,139.200 307.608 C 138.210 307.333,137.040 306.966,136.600 306.791 C 136.160 306.616,135.508 306.381,135.150 306.268 C 134.396 306.031,134.161 304.730,133.584 297.600 C 133.152 292.255,132.601 285.714,131.983 278.600 C 130.977 267.017,130.761 264.308,130.537 260.500 L 130.295 256.400 146.540 256.400 L 162.785 256.400 162.983 257.300 C 163.248 258.506,164.800 277.857,164.800 279.958 C 164.800 281.294,164.975 281.694,165.700 282.014 C 166.434 282.338,186.536 287.541,192.100 288.848 C 193.773 289.241,195.856 289.756,198.080 290.327 C 200.144 290.857,200.000 292.740,200.000 265.135 L 200.000 240.004 164.100 239.902 L 128.200 239.800 127.905 237.400 C 127.632 235.172,127.306 231.286,126.414 219.600 C 126.221 217.070,125.935 213.557,125.779 211.792 C 125.460 208.178,125.467 208.165,128.400 207.030 C 129.390 206.648,130.740 206.086,131.400 205.784 C 133.263 204.929,146.864 199.200,147.031 199.200 C 147.113 199.200,148.359 198.660,149.800 198.000 C 151.241 197.340,152.507 196.800,152.614 196.800 C 152.721 196.800,153.662 196.422,154.704 195.960 C 155.747 195.498,156.960 194.977,157.400 194.801 C 158.304 194.440,160.280 193.606,162.500 192.647 C 164.126 191.945,165.947 191.164,168.300 190.159 C 169.125 189.807,170.160 189.361,170.600 189.168 C 173.409 187.939,185.712 182.800,185.846 182.800 C 185.935 182.800,186.862 182.419,187.904 181.953 C 189.674 181.163,190.290 180.897,193.700 179.447 C 194.415 179.144,195.633 178.615,196.406 178.273 C 197.179 177.931,198.304 177.465,198.906 177.236 C 201.938 176.083,199.441 176.000,161.649 176.000 C 131.135 176.000,123.212 175.896,122.876 175.492 C 122.514 175.056,118.800 147.108,118.800 144.821 C 118.800 144.004,118.814 144.004,159.300 143.902 L 199.800 143.800 199.901 128.600 C 199.956 120.240,200.085 113.174,200.189 112.898 C 200.338 112.499,210.928 112.418,252.088 112.498 L 303.800 112.600 303.774 114.400 " stroke="none" fill="#145ba4" fill-rule="evenodd"></path><path id="path2" d="M200.189 112.898 C 200.085 113.174,199.956 120.240,199.901 128.600 L 199.800 143.800 159.300 143.902 L 118.800 144.004 118.835 145.302 C 118.854 146.016,119.021 147.500,119.206 148.600 C 119.523 150.488,119.538 150.432,119.471 147.600 L 119.400 144.600 159.582 144.498 C 185.568 144.432,199.905 144.255,200.162 143.998 C 200.421 143.739,214.311 143.600,239.831 143.600 C 283.207 143.600,280.387 143.424,279.829 146.101 C 279.680 146.815,279.384 149.290,279.170 151.600 C 278.957 153.910,278.596 157.600,278.368 159.800 C 278.140 162.000,277.801 165.420,277.614 167.400 C 276.845 175.560,276.420 176.764,274.300 176.791 C 273.915 176.796,273.600 176.980,273.600 177.200 C 273.600 177.420,273.358 177.600,273.061 177.600 C 272.765 177.600,272.000 177.850,271.361 178.156 C 270.723 178.462,269.525 179.002,268.700 179.356 C 267.875 179.710,266.615 180.254,265.900 180.565 C 265.185 180.876,262.170 182.156,259.200 183.411 C 256.230 184.666,252.990 186.050,252.000 186.488 C 249.564 187.566,247.564 188.418,246.600 188.790 C 246.160 188.960,244.900 189.504,243.800 190.000 C 242.700 190.496,241.440 191.036,241.000 191.200 C 240.560 191.364,239.345 191.881,238.300 192.349 C 230.433 195.871,229.222 196.400,229.016 196.400 C 228.910 196.400,227.873 196.830,226.712 197.356 C 225.550 197.882,222.170 199.341,219.200 200.597 C 212.342 203.499,211.396 203.905,209.200 204.892 C 208.210 205.337,207.040 205.843,206.600 206.017 C 203.891 207.086,203.200 207.428,203.200 207.695 C 203.200 207.861,219.175 208.042,238.700 208.098 L 274.200 208.200 274.141 211.400 C 274.109 213.160,273.886 216.760,273.646 219.400 C 273.128 225.084,272.263 234.918,271.200 247.200 C 271.000 249.510,270.647 253.560,270.416 256.200 C 270.184 258.840,269.826 262.980,269.619 265.400 C 269.412 267.820,269.058 271.960,268.832 274.600 C 268.605 277.240,268.234 281.650,268.006 284.400 C 266.145 306.840,266.088 307.200,264.370 307.200 C 263.967 307.200,263.224 307.361,262.719 307.558 C 262.213 307.755,260.990 308.133,260.000 308.397 C 259.010 308.662,257.887 309.040,257.505 309.239 C 257.123 309.438,256.369 309.600,255.829 309.600 C 255.289 309.600,254.749 309.759,254.629 309.954 C 254.508 310.149,253.913 310.404,253.305 310.521 C 252.284 310.718,251.110 311.033,247.700 312.023 C 246.985 312.230,245.815 312.563,245.100 312.761 C 241.563 313.744,221.890 319.495,220.400 319.981 C 219.850 320.160,218.590 320.529,217.600 320.800 C 216.610 321.071,215.350 321.431,214.800 321.600 C 214.250 321.769,212.990 322.126,212.000 322.393 C 211.010 322.660,209.887 323.040,209.505 323.239 C 209.123 323.438,208.369 323.600,207.829 323.600 C 207.289 323.600,206.736 323.780,206.600 324.000 C 206.464 324.220,205.834 324.400,205.200 324.400 C 204.566 324.400,203.936 324.580,203.800 324.800 C 203.664 325.020,203.034 325.200,202.400 325.200 C 201.766 325.200,201.131 325.389,200.988 325.619 C 200.809 325.910,200.567 325.904,200.203 325.602 C 199.571 325.078,194.330 323.536,194.069 323.798 C 193.875 323.992,193.979 324.030,196.800 324.792 C 197.790 325.059,198.870 325.415,199.200 325.582 C 199.715 325.844,199.815 328.123,199.905 341.743 C 199.989 354.478,200.112 357.600,200.532 357.600 C 200.820 357.600,201.942 357.341,203.027 357.025 C 204.814 356.504,207.373 355.818,215.800 353.600 C 217.340 353.194,219.635 352.579,220.900 352.231 C 222.165 351.884,224.235 351.316,225.500 350.969 C 226.765 350.621,229.105 349.991,230.700 349.569 C 232.295 349.146,234.905 348.454,236.500 348.031 C 238.095 347.609,240.390 346.990,241.600 346.656 C 243.438 346.149,260.005 341.675,267.000 339.797 C 268.100 339.502,270.440 338.871,272.200 338.396 C 273.960 337.921,277.020 337.106,279.000 336.585 C 280.980 336.064,282.995 335.521,283.477 335.378 C 284.543 335.063,284.699 334.410,285.196 328.200 C 285.407 325.560,285.769 321.330,286.000 318.800 C 286.232 316.270,286.596 312.175,286.811 309.700 C 287.025 307.225,287.375 303.175,287.589 300.700 C 288.491 290.277,288.943 285.094,290.012 272.900 C 290.239 270.315,290.864 263.160,291.402 257.000 C 291.939 250.840,292.564 243.685,292.790 241.100 C 293.015 238.515,293.380 234.330,293.600 231.800 C 293.820 229.270,294.189 225.085,294.420 222.500 C 294.651 219.915,295.003 215.910,295.203 213.600 C 296.142 202.742,296.462 199.079,296.827 195.000 C 297.044 192.580,297.396 188.575,297.611 186.100 C 297.825 183.625,298.180 179.530,298.400 177.000 C 298.620 174.470,298.980 170.330,299.200 167.800 C 299.420 165.270,299.775 161.175,299.989 158.700 C 300.381 154.169,300.899 148.323,301.628 140.200 C 301.845 137.780,302.187 133.910,302.387 131.600 C 302.586 129.290,302.975 124.880,303.249 121.800 C 303.524 118.720,303.760 115.390,303.774 114.400 L 303.800 112.600 252.088 112.498 C 210.928 112.418,200.338 112.499,200.189 112.898 M119.682 151.800 C 119.676 152.460,119.810 153.900,119.982 155.000 L 120.293 157.000 120.299 155.000 C 120.303 153.900,120.168 152.460,120.000 151.800 L 119.695 150.600 119.682 151.800 M120.400 157.874 C 120.400 160.013,122.520 175.062,122.883 175.500 C 123.210 175.894,131.456 176.000,161.649 176.000 C 199.266 176.000,201.884 176.085,199.000 177.210 C 198.450 177.424,197.525 177.785,196.945 178.011 C 196.364 178.237,195.983 178.516,196.097 178.630 C 196.211 178.745,197.609 178.226,199.202 177.479 C 203.328 175.544,204.454 175.601,161.650 175.594 C 140.832 175.591,123.603 175.456,123.361 175.294 C 123.120 175.132,122.792 174.010,122.633 172.800 C 122.159 169.193,121.675 165.231,121.220 161.229 C 120.822 157.726,120.400 155.999,120.400 157.874 M179.000 185.600 C 175.480 187.109,171.880 188.643,171.000 189.010 C 170.120 189.377,168.637 190.020,167.704 190.438 C 166.772 190.857,165.837 191.200,165.628 191.200 C 165.419 191.200,165.135 191.382,164.997 191.605 C 164.692 192.098,167.584 190.997,173.296 188.447 C 174.338 187.981,175.279 187.600,175.386 187.600 C 175.493 187.600,176.709 187.091,178.090 186.469 C 179.470 185.847,181.680 184.919,183.000 184.407 C 185.295 183.516,186.615 182.766,185.780 182.828 C 185.571 182.844,182.520 184.091,179.000 185.600 M163.044 192.329 C 162.932 192.511,162.102 192.902,161.200 193.200 C 160.298 193.498,159.467 193.892,159.354 194.075 C 159.148 194.408,162.816 193.069,163.985 192.385 C 164.522 192.070,164.514 192.023,163.924 192.012 C 163.552 192.005,163.156 192.148,163.044 192.329 M152.123 196.945 C 150.089 197.803,149.104 198.419,149.833 198.380 C 150.366 198.352,155.075 196.069,154.600 196.069 C 154.380 196.069,153.265 196.464,152.123 196.945 M140.200 202.014 C 136.680 203.531,133.350 204.956,132.800 205.180 C 124.776 208.453,125.288 207.834,125.917 213.494 C 126.183 215.883,126.413 218.909,126.430 220.218 C 126.446 221.528,126.614 223.410,126.802 224.400 C 127.228 226.632,126.913 219.026,126.372 214.000 C 125.787 208.563,125.768 208.655,127.700 207.818 C 130.057 206.797,132.690 205.644,134.696 204.753 C 135.628 204.339,136.479 204.000,136.586 204.000 C 136.693 204.000,137.909 203.491,139.290 202.869 C 140.670 202.247,142.880 201.319,144.200 200.807 C 146.495 199.916,147.815 199.166,146.980 199.228 C 146.771 199.244,143.720 200.497,140.200 202.014 M127.230 229.433 C 127.246 231.175,127.411 233.410,127.597 234.400 C 127.819 235.580,127.860 234.548,127.716 231.400 C 127.465 225.890,127.186 224.762,127.230 229.433 M128.152 238.200 L 128.200 239.800 164.103 239.902 L 200.006 240.004 199.903 265.302 C 199.787 293.824,200.155 290.893,196.800 290.027 C 196.030 289.829,194.680 289.483,193.800 289.259 C 192.920 289.035,191.059 288.556,189.664 288.195 C 188.269 287.834,187.033 287.634,186.917 287.750 C 186.801 287.866,187.222 288.085,187.853 288.236 C 188.484 288.387,191.399 289.108,194.331 289.839 C 197.614 290.658,199.919 291.045,200.331 290.847 C 200.699 290.670,201.403 290.317,201.895 290.062 C 202.387 289.808,203.143 289.600,203.576 289.600 C 204.008 289.600,204.776 289.439,205.281 289.242 C 205.787 289.045,207.010 288.664,208.000 288.395 C 208.990 288.127,210.250 287.769,210.800 287.600 C 211.350 287.431,212.610 287.068,213.600 286.792 C 216.071 286.105,218.012 285.546,219.200 285.180 C 219.750 285.010,223.662 283.925,227.894 282.769 C 233.604 281.209,235.644 280.490,235.806 279.980 C 235.926 279.603,236.203 276.167,236.421 272.347 C 236.639 268.526,237.009 262.250,237.242 258.400 C 237.980 246.264,238.208 240.327,237.945 240.165 C 237.805 240.079,213.109 239.887,183.065 239.738 L 128.440 239.468 128.273 238.034 C 128.113 236.669,128.107 236.676,128.152 238.200 M130.400 256.700 C 130.400 256.865,137.591 256.951,146.380 256.891 L 162.360 256.782 162.607 258.291 C 163.034 260.906,163.106 261.043,163.154 259.333 C 163.242 256.160,164.601 256.400,146.557 256.400 C 137.671 256.400,130.400 256.535,130.400 256.700 M130.486 260.400 C 130.471 261.610,130.603 263.410,130.780 264.400 L 131.100 266.200 131.110 264.400 C 131.116 263.410,130.984 261.610,130.817 260.400 L 130.513 258.200 130.486 260.400 M163.230 264.033 C 163.246 265.665,163.412 267.810,163.600 268.800 C 163.827 270.002,163.867 269.072,163.720 266.000 C 163.470 260.754,163.185 259.615,163.230 264.033 M131.286 269.800 C 131.271 271.120,131.403 273.010,131.580 274.000 L 131.900 275.800 131.910 273.800 C 131.916 272.700,131.784 270.810,131.617 269.600 L 131.313 267.400 131.286 269.800 M164.098 273.800 C 164.083 275.340,164.210 277.500,164.382 278.600 L 164.693 280.600 164.697 278.600 C 164.699 277.500,164.571 275.340,164.413 273.800 L 164.126 271.000 164.098 273.800 M132.083 279.200 C 132.070 280.410,132.203 282.210,132.380 283.200 L 132.700 285.000 132.715 283.000 C 132.723 281.900,132.590 280.100,132.418 279.000 L 132.107 277.000 132.083 279.200 M164.800 282.027 C 164.800 282.404,166.718 283.015,167.003 282.730 C 167.095 282.639,166.636 282.363,165.985 282.117 C 165.333 281.871,164.800 281.830,164.800 282.027 M168.200 283.200 C 168.640 283.389,169.360 283.544,169.800 283.544 L 170.600 283.544 169.800 283.200 C 169.360 283.011,168.640 282.856,168.200 282.856 L 167.400 282.856 168.200 283.200 M171.400 284.000 C 171.840 284.189,172.560 284.344,173.000 284.344 L 173.800 284.344 173.000 284.000 C 172.560 283.811,171.840 283.656,171.400 283.656 L 170.600 283.656 171.400 284.000 M174.600 284.800 C 175.040 284.989,175.760 285.144,176.200 285.144 L 177.000 285.144 176.200 284.800 C 175.760 284.611,175.040 284.456,174.600 284.456 L 173.800 284.456 174.600 284.800 M177.800 285.600 C 178.240 285.789,178.960 285.944,179.400 285.944 L 180.200 285.944 179.400 285.600 C 178.960 285.411,178.240 285.256,177.800 285.256 L 177.000 285.256 177.800 285.600 M180.484 286.215 C 180.770 286.503,183.167 287.095,185.400 287.429 C 186.252 287.556,186.113 287.447,184.922 287.052 C 182.783 286.345,180.113 285.841,180.484 286.215 M132.888 288.600 C 132.878 289.700,133.010 291.500,133.182 292.600 L 133.493 294.600 133.512 292.600 C 133.522 291.500,133.390 289.700,133.218 288.600 L 132.907 286.600 132.888 288.600 M133.693 297.800 C 133.685 298.900,133.816 300.790,133.983 302.000 L 134.287 304.200 134.309 302.000 C 134.320 300.790,134.190 298.900,134.018 297.800 L 133.707 295.800 133.693 297.800 M136.574 306.757 C 136.724 307.001,137.188 307.200,137.605 307.200 C 138.021 307.200,138.776 307.360,139.281 307.556 C 139.787 307.752,141.460 308.292,143.000 308.755 C 161.361 314.275,166.097 315.637,166.283 315.450 C 166.392 315.342,165.698 315.042,164.740 314.786 C 163.783 314.529,162.280 314.091,161.400 313.812 C 160.520 313.534,158.450 312.910,156.800 312.426 C 155.150 311.942,153.350 311.399,152.800 311.219 C 152.250 311.040,150.990 310.671,150.000 310.400 C 149.010 310.129,147.750 309.760,147.200 309.579 C 146.217 309.257,138.519 306.942,137.050 306.526 C 136.566 306.389,136.397 306.471,136.574 306.757 M167.400 316.000 C 168.596 316.514,169.595 316.514,168.800 316.000 C 168.470 315.787,167.840 315.622,167.400 315.634 L 166.600 315.656 167.400 316.000 M170.200 316.800 C 170.640 316.989,171.270 317.144,171.600 317.144 C 171.978 317.144,171.904 317.017,171.400 316.800 C 170.960 316.611,170.330 316.456,170.000 316.456 C 169.622 316.456,169.696 316.583,170.200 316.800 M172.800 317.600 C 173.130 317.813,173.670 317.988,174.000 317.988 C 174.533 317.988,174.533 317.945,174.000 317.600 C 173.670 317.387,173.130 317.212,172.800 317.212 C 172.267 317.212,172.267 317.255,172.800 317.600 M175.400 318.400 C 176.596 318.914,177.595 318.914,176.800 318.400 C 176.470 318.187,175.840 318.022,175.400 318.034 L 174.600 318.056 175.400 318.400 M178.000 319.200 C 178.330 319.413,178.960 319.578,179.400 319.566 L 180.200 319.544 179.400 319.200 C 178.204 318.686,177.205 318.686,178.000 319.200 M180.800 320.000 C 181.130 320.213,181.760 320.378,182.200 320.366 L 183.000 320.344 182.200 320.000 C 181.004 319.486,180.005 319.486,180.800 320.000 M183.600 320.782 C 183.930 321.005,184.545 321.191,184.967 321.194 C 185.990 321.202,185.671 320.973,184.200 320.644 C 183.324 320.448,183.162 320.485,183.600 320.782 M186.162 321.538 C 186.376 321.885,186.802 322.007,189.800 322.581 C 190.903 322.792,190.886 322.767,189.600 322.268 C 187.503 321.454,185.899 321.114,186.162 321.538 M191.600 323.182 C 191.930 323.405,192.545 323.591,192.967 323.594 C 193.990 323.602,193.671 323.373,192.200 323.044 C 191.324 322.848,191.162 322.885,191.600 323.182 " stroke="none" fill="#349cd4" fill-rule="evenodd"></path><path id="path3" d="M123.200 44.600 L 123.200 69.200 143.800 69.200 L 164.400 69.200 164.400 61.000 L 164.400 52.800 153.000 52.800 L 141.600 52.800 141.600 45.806 L 141.600 38.812 152.900 38.706 L 164.200 38.600 164.307 29.300 L 164.415 20.000 143.807 20.000 L 123.200 20.000 123.200 44.600 M179.200 28.969 L 179.200 37.939 181.940 40.669 C 183.446 42.171,186.776 45.377,189.340 47.793 C 191.903 50.209,194.000 52.324,194.000 52.493 C 194.000 52.662,190.670 52.800,186.600 52.800 L 179.200 52.800 179.200 61.000 L 179.200 69.200 200.000 69.200 L 220.800 69.200 220.800 60.786 L 220.800 52.372 216.851 48.486 C 214.679 46.349,211.626 43.430,210.066 42.000 C 208.507 40.570,207.224 39.269,207.215 39.110 C 207.207 38.950,210.215 38.770,213.900 38.710 L 220.600 38.600 220.707 29.300 L 220.815 20.000 200.007 20.000 L 179.200 20.000 179.200 28.969 M235.604 29.300 L 235.607 38.600 236.897 39.600 C 237.606 40.150,240.836 43.300,244.074 46.600 L 249.961 52.600 242.781 52.709 L 235.600 52.818 235.600 61.009 L 235.600 69.200 256.200 69.200 L 276.800 69.200 276.800 60.815 L 276.800 52.429 273.700 49.283 C 270.669 46.207,267.264 43.050,264.286 40.555 C 262.167 38.780,262.103 38.800,269.800 38.800 L 276.800 38.800 276.800 29.400 L 276.800 20.000 256.200 20.000 L 235.600 20.000 235.604 29.300 " stroke="none" fill="#1c1c1c" fill-rule="evenodd"></path><path id="path4" d="M200.162 143.998 C 199.905 144.255,185.568 144.432,159.582 144.498 C 119.715 144.599,119.400 144.606,119.361 145.400 C 119.336 145.903,119.381 145.959,119.482 145.551 C 119.638 144.921,278.408 143.875,279.033 144.499 C 279.263 144.729,278.644 151.964,277.211 165.800 C 276.983 168.000,276.682 171.011,276.541 172.492 C 276.253 175.527,276.260 175.519,272.000 177.371 C 270.570 177.993,268.450 178.929,267.288 179.451 C 266.127 179.973,265.097 180.400,265.000 180.400 C 264.903 180.400,263.783 180.869,262.512 181.443 C 261.240 182.017,259.660 182.716,259.000 182.997 C 258.340 183.277,256.990 183.860,256.000 184.291 C 255.010 184.723,252.171 185.939,249.691 186.996 C 247.211 188.052,245.276 189.010,245.392 189.125 C 245.507 189.240,246.006 189.143,246.501 188.908 C 246.995 188.673,248.030 188.212,248.800 187.883 C 249.570 187.554,251.010 186.926,252.000 186.488 C 252.990 186.050,256.230 184.666,259.200 183.411 C 262.170 182.156,265.185 180.876,265.900 180.565 C 266.615 180.254,267.875 179.710,268.700 179.356 C 269.525 179.002,270.723 178.462,271.361 178.156 C 272.000 177.850,272.765 177.600,273.061 177.600 C 273.358 177.600,273.600 177.420,273.600 177.200 C 273.600 176.980,273.915 176.796,274.300 176.791 C 276.420 176.764,276.845 175.560,277.614 167.400 C 277.801 165.420,278.140 162.000,278.368 159.800 C 278.596 157.600,278.957 153.910,279.170 151.600 C 279.384 149.290,279.680 146.815,279.829 146.101 C 280.387 143.424,283.207 143.600,239.831 143.600 C 214.311 143.600,200.421 143.739,200.162 143.998 M119.701 148.600 C 119.697 149.700,119.832 151.140,120.000 151.800 L 120.305 153.000 120.318 151.800 C 120.324 151.140,120.190 149.700,120.018 148.600 L 119.707 146.600 119.701 148.600 M120.497 155.200 C 120.496 156.190,120.632 157.540,120.800 158.200 L 121.105 159.400 121.123 158.200 C 121.133 157.540,120.997 156.190,120.820 155.200 L 120.500 153.400 120.497 155.200 M121.295 162.000 C 121.295 162.770,121.432 163.940,121.600 164.600 L 121.905 165.800 121.905 164.400 C 121.905 163.630,121.768 162.460,121.600 161.800 L 121.295 160.600 121.295 162.000 M122.075 168.800 C 122.086 169.350,122.232 170.340,122.400 171.000 L 122.705 172.200 122.725 170.800 C 122.735 170.030,122.589 169.040,122.400 168.600 C 122.088 167.874,122.058 167.893,122.075 168.800 M123.200 175.200 C 123.575 175.443,138.099 175.605,162.000 175.634 C 200.857 175.681,203.055 175.743,200.787 176.744 C 200.109 177.043,199.632 177.365,199.728 177.461 C 199.982 177.716,202.800 176.308,202.800 175.926 C 202.800 175.747,202.271 175.600,201.624 175.600 C 200.977 175.600,200.336 175.420,200.200 175.200 C 200.038 174.938,186.636 174.802,161.276 174.806 C 136.158 174.810,122.810 174.948,123.200 175.200 M195.022 179.246 C 193.934 179.687,192.134 180.455,191.022 180.953 C 189.910 181.451,188.370 182.099,187.600 182.393 C 186.830 182.687,186.020 183.092,185.800 183.293 C 185.250 183.794,188.916 182.359,194.096 180.047 C 195.138 179.581,196.163 179.200,196.372 179.200 C 196.581 179.200,196.864 179.020,197.000 178.800 C 197.307 178.303,197.395 178.283,195.022 179.246 M236.000 192.844 C 231.490 194.810,227.193 196.684,226.451 197.009 C 225.709 197.334,225.039 197.600,224.961 197.600 C 224.884 197.600,223.641 198.140,222.200 198.800 C 220.759 199.460,219.500 200.000,219.402 200.000 C 219.304 200.000,218.273 200.430,217.112 200.956 C 215.950 201.482,214.050 202.316,212.888 202.810 C 211.726 203.305,210.865 203.798,210.974 203.907 C 211.082 204.016,211.763 203.830,212.486 203.493 C 213.209 203.157,216.230 201.854,219.200 200.597 C 222.170 199.341,225.550 197.882,226.712 197.356 C 227.873 196.830,228.910 196.400,229.016 196.400 C 229.222 196.400,230.433 195.871,238.300 192.349 C 239.345 191.881,240.560 191.360,241.000 191.190 C 243.830 190.099,245.608 189.106,244.500 189.235 C 244.335 189.254,240.510 190.878,236.000 192.844 M154.600 196.378 C 153.720 196.795,153.197 197.150,153.439 197.168 C 153.928 197.204,156.400 196.038,156.400 195.771 C 156.400 195.530,156.376 195.538,154.600 196.378 M148.933 198.722 C 148.016 199.095,147.116 199.551,146.933 199.736 C 146.512 200.160,150.066 198.799,150.580 198.340 C 151.093 197.881,150.880 197.931,148.933 198.722 M140.453 202.253 C 139.713 202.576,139.201 202.934,139.316 203.049 C 139.431 203.164,140.216 202.893,141.062 202.447 C 142.835 201.511,142.441 201.386,140.453 202.253 M205.125 206.121 C 201.851 207.577,200.652 208.281,201.125 208.472 C 201.496 208.621,218.045 208.756,237.900 208.772 C 273.483 208.800,274.000 208.811,274.000 209.584 C 274.000 210.016,273.823 212.131,273.608 214.284 C 272.214 228.198,271.767 234.766,272.247 234.287 C 272.382 234.151,272.656 231.826,272.855 229.120 C 273.055 226.414,273.412 222.040,273.650 219.400 C 273.888 216.760,274.109 213.160,274.141 211.400 L 274.200 208.200 238.700 208.098 C 219.175 208.042,203.200 207.861,203.200 207.695 C 203.200 207.530,203.785 207.156,204.500 206.864 C 205.215 206.572,206.160 206.186,206.600 206.007 C 208.812 205.107,210.400 204.344,210.400 204.181 C 210.400 203.826,209.740 204.068,205.125 206.121 M127.321 207.943 C 126.086 208.577,162.224 208.767,193.200 208.288 C 197.050 208.229,184.225 208.140,164.700 208.090 C 141.360 208.031,129.200 207.863,129.200 207.600 C 129.200 207.084,128.882 207.142,127.321 207.943 M126.237 212.400 C 126.383 214.270,126.570 215.875,126.651 215.967 C 127.012 216.371,126.745 210.138,126.379 209.600 C 126.095 209.183,126.052 210.036,126.237 212.400 M127.059 222.400 C 127.192 224.490,127.369 226.275,127.451 226.367 C 127.776 226.730,127.520 220.148,127.180 219.400 C 126.950 218.894,126.906 219.996,127.059 222.400 M127.848 232.800 C 127.991 234.890,128.174 236.675,128.254 236.767 C 128.608 237.171,128.346 230.137,127.987 229.600 C 127.715 229.191,127.670 230.212,127.848 232.800 M271.460 238.926 C 271.273 241.306,271.213 243.346,271.327 243.460 C 271.671 243.804,272.065 239.565,271.928 237.000 C 271.817 234.918,271.755 235.172,271.460 238.926 M218.947 239.994 L 238.094 240.200 238.025 245.173 C 237.988 247.909,237.872 250.284,237.768 250.452 C 237.664 250.620,237.407 254.052,237.197 258.079 C 236.419 272.999,236.019 279.311,235.806 279.980 C 235.645 280.490,233.599 281.213,227.894 282.777 C 220.850 284.709,219.378 285.123,216.400 286.009 C 215.850 286.173,214.590 286.529,213.600 286.800 C 212.610 287.071,211.350 287.431,210.800 287.600 C 210.250 287.769,208.990 288.127,208.000 288.395 C 207.010 288.664,205.787 289.045,205.281 289.242 C 204.776 289.439,204.008 289.600,203.576 289.600 C 202.822 289.600,202.457 289.734,200.546 290.712 C 200.076 290.953,199.283 291.042,198.784 290.912 C 198.154 290.747,197.963 290.816,198.161 291.137 C 198.504 291.692,199.356 291.732,200.305 291.239 C 200.687 291.040,201.810 290.656,202.800 290.385 C 204.740 289.853,206.804 289.266,208.400 288.791 C 208.950 288.627,210.120 288.294,211.000 288.050 C 224.270 284.380,226.359 283.795,229.800 282.785 C 231.340 282.333,233.320 281.761,234.200 281.512 C 236.548 280.850,236.519 280.928,236.867 274.307 C 237.043 270.948,237.362 265.320,237.574 261.800 C 238.483 246.748,238.778 240.288,238.572 239.955 C 238.448 239.754,229.983 239.641,219.076 239.694 L 199.800 239.788 218.947 239.994 M270.655 248.322 C 270.465 250.589,270.406 252.539,270.522 252.656 C 270.863 252.996,271.269 248.797,271.128 246.400 C 271.019 244.555,270.943 244.865,270.655 248.322 M269.855 257.522 C 269.665 259.789,269.606 261.739,269.722 261.856 C 270.063 262.196,270.469 257.997,270.328 255.600 C 270.219 253.755,270.143 254.065,269.855 257.522 M130.538 257.417 C 130.408 257.757,130.413 258.147,130.551 258.284 C 130.688 258.421,130.800 258.235,130.800 257.871 C 130.800 257.268,132.215 257.199,146.700 257.100 L 162.600 256.991 146.687 256.895 C 132.657 256.811,130.747 256.873,130.538 257.417 M162.493 259.600 C 162.490 260.590,162.621 262.480,162.785 263.800 L 163.082 266.200 163.112 263.800 C 163.128 262.480,162.997 260.590,162.820 259.600 L 162.500 257.800 162.493 259.600 M131.091 263.200 C 131.212 265.510,131.376 267.475,131.456 267.567 C 131.748 267.904,131.510 260.967,131.196 260.000 C 131.013 259.438,130.967 260.838,131.091 263.200 M269.047 266.432 C 268.865 268.539,268.793 270.609,268.889 271.032 C 269.137 272.130,269.696 266.116,269.524 264.200 C 269.428 263.133,269.269 263.877,269.047 266.432 M163.475 271.800 C 163.596 274.220,163.764 276.275,163.847 276.367 C 164.138 276.684,163.939 270.993,163.598 269.200 C 163.364 267.974,163.325 268.804,163.475 271.800 M131.774 271.400 C 131.914 273.380,132.195 276.800,132.400 279.000 C 132.604 281.200,132.966 285.430,133.203 288.400 C 133.441 291.370,133.808 295.342,134.018 297.227 C 134.228 299.112,134.403 301.632,134.406 302.827 C 134.409 304.022,134.585 305.270,134.796 305.600 C 135.059 306.011,135.124 305.571,135.003 304.200 C 134.906 303.100,134.637 299.950,134.405 297.200 C 134.173 294.450,133.808 290.220,133.594 287.800 C 133.131 282.560,132.944 280.272,132.425 273.450 C 132.210 270.618,131.918 268.188,131.776 268.050 C 131.635 267.913,131.633 269.420,131.774 271.400 M268.300 274.759 C 268.135 276.166,268.022 278.236,268.049 279.359 L 268.098 281.400 268.456 279.000 C 268.654 277.680,268.767 275.610,268.708 274.400 L 268.600 272.200 268.300 274.759 M164.183 279.546 C 164.265 280.947,164.492 282.252,164.687 282.447 C 165.122 282.882,180.850 286.883,181.109 286.624 C 181.211 286.522,180.778 286.315,180.147 286.164 C 175.075 284.946,165.061 282.395,164.961 282.295 C 164.893 282.226,164.656 281.007,164.436 279.585 L 164.034 277.000 164.183 279.546 M267.480 284.800 C 267.315 286.670,266.993 290.360,266.764 293.000 C 266.535 295.640,266.133 299.684,265.870 301.986 L 265.392 306.172 263.396 306.837 C 262.298 307.202,260.050 307.889,258.400 308.363 C 256.750 308.838,254.230 309.574,252.800 310.000 C 251.370 310.426,248.850 311.159,247.200 311.629 C 245.550 312.099,243.750 312.624,243.200 312.795 C 242.650 312.967,241.390 313.329,240.400 313.600 C 239.410 313.871,238.150 314.240,237.600 314.419 C 237.050 314.599,235.250 315.136,233.600 315.614 C 231.950 316.092,230.150 316.630,229.600 316.809 C 229.050 316.988,228.060 317.262,227.400 317.417 C 226.740 317.572,226.402 317.774,226.650 317.866 C 226.897 317.958,230.857 316.928,235.450 315.578 C 240.042 314.228,244.430 312.950,245.200 312.739 C 245.970 312.528,247.140 312.195,247.800 312.000 C 250.685 311.147,252.274 310.720,253.305 310.521 C 253.913 310.404,254.508 310.149,254.629 309.954 C 254.749 309.759,255.289 309.600,255.829 309.600 C 256.369 309.600,257.123 309.438,257.505 309.239 C 257.887 309.040,259.010 308.662,260.000 308.397 C 260.990 308.133,262.213 307.755,262.719 307.558 C 263.224 307.361,263.967 307.200,264.370 307.200 C 265.619 307.200,266.090 306.123,266.429 302.497 C 267.590 290.067,268.048 284.023,267.923 282.800 C 267.834 281.938,267.664 282.708,267.480 284.800 M182.400 287.200 C 183.942 287.694,184.764 287.694,184.000 287.200 C 183.670 286.987,182.950 286.827,182.400 286.846 L 181.400 286.880 182.400 287.200 M185.800 288.000 C 186.996 288.514,187.995 288.514,187.200 288.000 C 186.870 287.787,186.240 287.622,185.800 287.634 L 185.000 287.656 185.800 288.000 M189.000 288.800 C 189.136 289.020,189.642 289.187,190.124 289.172 C 190.969 289.145,190.971 289.131,190.200 288.800 C 189.099 288.327,188.708 288.327,189.000 288.800 M192.200 289.600 C 192.336 289.820,192.842 289.987,193.324 289.972 C 194.169 289.945,194.171 289.931,193.400 289.600 C 192.299 289.127,191.908 289.127,192.200 289.600 M195.200 290.400 C 195.530 290.613,196.160 290.778,196.600 290.766 L 197.400 290.744 196.600 290.400 C 195.404 289.886,194.405 289.886,195.200 290.400 M136.600 306.400 C 137.701 306.873,138.092 306.873,137.800 306.400 C 137.664 306.180,137.158 306.013,136.676 306.028 C 135.831 306.055,135.829 306.069,136.600 306.400 M139.400 307.200 C 140.501 307.673,140.892 307.673,140.600 307.200 C 140.464 306.980,139.958 306.813,139.476 306.828 C 138.631 306.855,138.629 306.869,139.400 307.200 M144.600 308.800 C 145.701 309.273,146.092 309.273,145.800 308.800 C 145.664 308.580,145.158 308.413,144.676 308.428 C 143.831 308.455,143.829 308.469,144.600 308.800 M147.200 309.600 C 147.988 310.109,148.915 310.109,148.600 309.600 C 148.464 309.380,147.958 309.203,147.476 309.206 C 146.764 309.211,146.712 309.285,147.200 309.600 M155.400 312.000 C 155.840 312.189,156.470 312.344,156.800 312.344 C 157.178 312.344,157.104 312.217,156.600 312.000 C 156.160 311.811,155.530 311.656,155.200 311.656 C 154.822 311.656,154.896 311.783,155.400 312.000 M158.000 312.800 C 158.330 313.013,158.960 313.178,159.400 313.166 L 160.200 313.144 159.400 312.800 C 158.204 312.286,157.205 312.286,158.000 312.800 M161.000 313.575 C 161.440 313.783,163.150 314.343,164.800 314.818 C 166.450 315.294,168.250 315.830,168.800 316.011 C 169.763 316.326,171.555 316.864,178.000 318.775 C 182.636 320.150,182.526 320.127,182.226 319.643 C 182.076 319.399,181.612 319.200,181.195 319.200 C 180.779 319.200,180.024 319.039,179.519 318.842 C 179.013 318.645,177.790 318.264,176.800 317.996 C 175.810 317.728,174.640 317.370,174.200 317.200 C 173.760 317.030,172.590 316.670,171.600 316.399 C 170.610 316.129,169.350 315.767,168.800 315.595 C 166.668 314.930,161.761 313.527,161.000 313.366 L 160.200 313.196 161.000 313.575 M212.819 321.639 C 205.602 323.750,200.305 325.104,199.819 324.960 C 199.003 324.718,199.003 324.720,199.800 325.332 C 200.297 325.713,200.744 325.805,200.980 325.573 C 201.189 325.368,201.853 325.200,202.456 325.200 C 203.059 325.200,203.664 325.020,203.800 324.800 C 203.936 324.580,204.566 324.400,205.200 324.400 C 205.834 324.400,206.464 324.220,206.600 324.000 C 206.736 323.780,207.289 323.600,207.829 323.600 C 208.369 323.600,209.123 323.438,209.505 323.239 C 209.887 323.040,211.010 322.660,212.000 322.393 C 212.990 322.126,214.250 321.769,214.800 321.600 C 215.350 321.431,216.520 321.093,217.400 320.850 C 220.721 319.930,224.629 318.734,225.400 318.400 C 227.625 317.438,223.896 318.398,212.819 321.639 M183.400 320.400 C 184.596 320.914,185.595 320.914,184.800 320.400 C 184.470 320.187,183.840 320.022,183.400 320.034 L 182.600 320.056 183.400 320.400 M186.200 321.200 C 187.301 321.673,187.692 321.673,187.400 321.200 C 187.264 320.980,186.758 320.813,186.276 320.828 C 185.431 320.855,185.429 320.869,186.200 321.200 M189.000 322.000 C 190.101 322.473,190.492 322.473,190.200 322.000 C 190.064 321.780,189.558 321.613,189.076 321.628 C 188.231 321.655,188.229 321.669,189.000 322.000 M191.400 322.800 C 192.596 323.314,193.595 323.314,192.800 322.800 C 192.470 322.587,191.840 322.422,191.400 322.434 L 190.600 322.456 191.400 322.800 M194.200 323.600 C 195.301 324.073,195.692 324.073,195.400 323.600 C 195.264 323.380,194.758 323.213,194.276 323.228 C 193.431 323.255,193.429 323.269,194.200 323.600 " stroke="none" fill="#7dbde3" fill-rule="evenodd"></path></g></svg>